<svg id="Layer_1" data-name="Layer 1" xmlns="http://www.w3.org/2000/svg" viewBox="0 0 223 220"><defs><style>.cls-1{fill:#303030;}.cls-2{fill:#4d4d4d;}.cls-3{clip-path:url(#clip-path);}.cls-4{opacity:0.35;}.cls-5{fill:#3b5972;stroke:#fff;stroke-miterlimit:10;stroke-width:0.5px;}.cls-6{fill:#2b2f47;opacity:0.04;}.cls-7{fill:#e5b798;}.cls-8{fill:#000102;opacity:0.09;}.cls-9{fill:#1e0000;}.cls-10{fill:#d8996f;}.cls-11{fill:#fff;}.cls-12{fill:#7f5233;}.cls-13{fill:#7f7f7f;}.cls-14{fill:#a06f4a;}.cls-15{clip-path:url(#clip-path-2);}.cls-16{fill:#efefef;}.cls-17{fill:#d85555;}.cls-18{fill:#1e1e1e;}.cls-19{fill:#4f2f22;}.cls-20{fill:#c1a046;}</style><clipPath id="clip-path"><path class="cls-1" d="M-114.54-105.27v.12l1 7v21l3 12-.8 13 72.06-.1h4.92l6.82-29.88L-3-57.33V-85l-9.57-31.17-30-8-26 13-18-13-21-5v.15c-7-2.3-30-1.16-52 .84"/></clipPath><clipPath id="clip-path-2"><path class="cls-2" d="M103 158.9v.1l-1 7v21l-3 12 .8 13-72.06-.1h-4.92L16 182v30H2l-1-64 30-8 26 13 18-13 21-5v.15c7-2.3 30-1.16 52 .84"/></clipPath></defs><path class="cls-1" d="M-114.54-105.27v.12l1 7v21l3 12-.8 13 72.06-.1h4.92l6.82-29.88L-3-57.33V-85l-9.57-31.17-30-8-26 13-18-13-21-5v.15c-7-2.3-30-1.16-52 .84"/><g class="cls-3 cls-4"><path class="cls-5" d="M-30.58-95.3L54.4.06M-30.22-76.6L42.43 4.23M-28.22-66.6l72.65 80.83M-30.22-60.6l72.65 80.83M5.56-36.86l38.87 41.1M-.44-35.86l38.87 41.1M-7.44-34.86l38.87 41.1M-13.44-32.86l38.87 41.1M-19.44-30.86l38.87 41.1M-26.44-29.86l38.87 41.1"/></g><rect class="cls-6" y="41" width="223" height="171" rx="2" ry="2"/><path class="cls-7" d="M80 105.75c-5.8 13.92 4.64 32.48 4.64 32.48L67.28 181 33.6 138.23s12.77-32.48 10.4-32.48"/><path class="cls-8" d="M45.33 104.6L40.46 120s26.16 10.7 38.07.35l-.84-11.5z"/><path class="cls-7" d="M37.13 41.75s-10 45.4 2 62.27 36.5 14.43 47 1.82c5.77-6.92 5.6-29.42 4.26-48.34-1.1-15.57-3-28.7-3-28.7S52.2 9.93 37.12 41.75z"/><path class="cls-8" d="M35.13 58.16s23.34-8.35 23.46-24c0 0 11.33 20.08 32.57 21.06l-1.6-18.3-34-13.6L37.8 35.7l-4.12 9.45zM76.93 81.68s-16.16-3.06-13.8-17.1z"/><ellipse class="cls-9" cx="48.65" cy="55.61" rx="4.06" ry="2.32" transform="rotate(-84.07 48.65 55.61)"/><path class="cls-10" d="M61.4 52.54C62 54.07 81 79.8 80 79.06a8.7 8.7 0 0 0-3.07 0 15.68 15.68 0 0 1-16.8-17.88z"/><path class="cls-11" d="M43.1 89.08c-.26-1 16.2 8.55 38.15 1.8 0 0 0 8.52-5.13 11.62S49.3 112.8 43.1 89.08z"/><path class="cls-12" d="M55.6 44.3a16.56 16.56 0 0 1-2.14 1c-.7.25-1.4.56-2.1.8-1.37.5-2.7 1-3.94 1.52a11.84 11.84 0 0 0-3.24 2 6 6 0 0 0-1.74 3.62 4.55 4.55 0 0 1-.82-2.37 5.06 5.06 0 0 1 .64-2.63 8.28 8.28 0 0 1 3.94-3.35 14.08 14.08 0 0 1 4.7-1.1 13.88 13.88 0 0 1 4.7.5zM87 47.5a44.38 44.38 0 0 0-5-.82 23.2 23.2 0 0 0-4.66-.07 15.56 15.56 0 0 0-4.4 1.14 32 32 0 0 0-4.4 2.4 9.43 9.43 0 0 1 3.2-4.43A10.45 10.45 0 0 1 77 43.64a12.33 12.33 0 0 1 5.54.78A10.14 10.14 0 0 1 87 47.5z"/><path class="cls-9" d="M81.1 55.33a9.1 9.1 0 0 0-2.55-.4 12.53 12.53 0 0 0-2.33.2c-.77.15-1.54.33-2.35.58l-1.25.38a10.3 10.3 0 0 1-1.36.35 7.34 7.34 0 0 1 .83-1.18 8.72 8.72 0 0 1 1.07-.95 7 7 0 0 1 2.7-1.15 5.9 5.9 0 0 1 3 .25 3.77 3.77 0 0 1 2.23 1.93z"/><path class="cls-8" d="M43.1 89.08s18.74 7.7 38.15 1.8a14.85 14.85 0 0 1-.84 5.06s-34.2 4.5-37.3-6.86z"/><path class="cls-13" d="M48.4 97.06A32.2 32.2 0 0 0 52 98.2q1.83.5 3.7.82a42.62 42.62 0 0 0 7.5.72c1.25.06 2.5 0 3.76-.08s2.5-.23 3.74-.47a44.16 44.16 0 0 0 7.3-1.9 36.1 36.1 0 0 1-11 2.8c-1.27.06-2.54.18-3.8.13a39.5 39.5 0 0 1-7.58-.84 33.74 33.74 0 0 1-7.22-2.34z"/><path class="cls-14" d="M58.28 28.14S55.78 14.94 36 13.4a29.58 29.58 0 0 0-6.83.3A37.53 37.53 0 0 1 16 13.3s2.25 6.68 10.64 6.9c0 0-11.44 3-12.67 21.4 0 0 2.25-7.6 6.14-6.45 0 0 4.7 12.68-8.04 22.45a42.7 42.7 0 0 0 15.26-6.34s-7.47 3.8-4 20.64c0 0 1.6-18.06 9.9-14.38 0 0 28.6-22.34 25.06-29.4z"/><path class="cls-14" d="M56.46 23.36S77 8.26 93.7 29.3c0 0 5.25 10.87 10.3 8.13 0 0-2.65 5.2-11.53 1.27 0 0 10.93 3.64 4.9 15.42 0 0-10.64-1.65-37.2-19.15a80.45 80.45 0 0 1-3.7-11.6z"/><path class="cls-14" d="M55.73 25.93s1.8-14.72 9.2-16.77z"/><path class="cls-7" d="M34.7 54.34s-10.13-6.63-11.08 8.82c0 0 1.73 8.46 7.83 9.3s3.25-18.12 3.25-18.12z"/><path class="cls-8" d="M31.5 57s-4.13-2.43-5 4.57a2.54 2.54 0 0 0 3 2.1s1.9 1.77-.67 2.22c.02 0 5.05 7.55 2.66-8.9z"/><path class="cls-7" d="M90 51.5s11.66-7.6 12.74 10.15c0 0-2 9.73-9 10.7S90 51.52 90 51.52z"/><path class="cls-8" d="M93.65 54.6s4.74-2.8 5.73 5.25a2.92 2.92 0 0 1-3.46 2.4s-2.18 2 .76 2.57c0 0-5.78 8.67-3.03-10.23z"/><path class="cls-2" d="M103 158.9v.1l-1 7v21l-3 12 .8 13-72.06-.1h-4.92L16 182v30H2l-1-64 30-8 26 13 18-13 21-5v.15c7-2.3 30-1.16 52 .84"/><g class="cls-15"><g class="cls-4"><path class="cls-5" d="M51 99.2L48 336M45 95l-3 236.82M37 95l-3 236.82M32 95l-3 236.82M27 95l-3 236.82M20 95l-3 236.82"/></g><g class="cls-4"><path class="cls-5" d="M103 47l-3 238.8M98 47l-3 238.8M93 47l-3 238.8M86 47l-3 238.8M79 47l-3 238.8M72 47l-3 238.8M65 47l-3 238.8M58 47l-3 238.8M190.27 134.76l-76.63 21.34M176.82 133.5l-74.6 20.54M196.5 136.5l-95.04 28.1M197.63 139.94l-83.35 26.1M199.8 145.53l-83.34 26.1M202 151.12l-83.36 26.1M163.54 93.15L97.2 122.27M161.36 87.57L95 116.67M165.72 98.74l-66.35 29.12M173.07 125.17l-71.95 19.95M150.54 95.15L84.2 124.27M148.36 89.57L82 118.67M152.72 100.74l-66.35 29.12M167.9 79.33l-66.35 29.12M172.1 120.92l-70.54 18.96M174.77 129.78l-72.56 19.76M19.23 159.36L-68.9 258.4M19.52 149.75l-91.57 103.1M19 168.87l-84.97 95.34M18.65 178.56L-54 259.4M18.65 187.56L-54 268.4M16.65 197.56L-56 278.4M18.65 203.56L-54 284.4M13 140.45L-77.6 242.4M16.92 145.1l-91.37 102.84"/></g></g><path class="cls-16" d="M87 137l-13 17-7.22 58H60l-13-36v-12l-24.32-21.83-.18-.16 4.25-.88 4.4-.93.85-.2 24 13 18-13 13-3z"/><path class="cls-17" d="M55.75 158.35l-1.62 3.54L56 165h6l2-5-6-7.7-2.25 6.05z"/><path class="cls-17" d="M64 170v42h-3.83c-1-6.87-2.43-14.17-3.65-23.2C55.12 178.6 54 170 54 170l3-6h4z"/><path class="cls-18" d="M61.9 212h-3.77L38 171l8-7H35L15.35 144.1l7.33-1.9 4.07-1.06 4.25-1.1.16.17L51 162l5.52 26.8 5.4 23.2zM81 161l-7 1 7 5-12.2 45h-2.94L69 160l5-20 16.06-4L81 161z"/><path class="cls-8" d="M23 142l26 30 8-19-34-11z"/><path class="cls-8" d="M56 155l6 17 20-31-26 14z"/><path class="cls-11" d="M58 153l-6 13s-29-24-28.5-24 8.5-3 8.5-3z"/><path class="cls-11" d="M57 153l8 12s18.36-27 18-27-7.1-1-7.1-1z"/><path class="cls-8" d="M16 182l8-2 4 32h-5l-7-30z"/><path class="cls-2" d="M176.22 176.83l14.13 12.66-2.97 22.5-11.55 4.53-16.03-4.3 16.42-35.4z"/><rect class="cls-19" x="38.85" y="124" width="140.69" height="82" rx="2" ry="2"/><path class="cls-20" d="M77.06 124l-.06-6h2v6h-1.94zM141.06 124l-.06-6h2v6h-1.94z"/><path class="cls-19" d="M79 117s35-8 63 0l1 1H77z"/><path class="cls-7" d="M186.68 199l2-17-7-1-2.85 14.67-9.15 9.33-21.68 1 4.68 4-.43 3h30.1l4.33-14z"/></svg>