<svg xmlns="http://www.w3.org/2000/svg" viewBox="0 0 894 759.99"><defs><style>.a{fill:#426f8e}.b{fill:#edae7a}.c{fill:#000102;opacity:.09}.d{fill:#d85555}.h{fill:#686868}.i{fill:#4f4f4f}.j{fill:#99d2d6}.k{fill:#e5e5e5}.l{fill:#282828}.m{fill:none;stroke:#282828}.m,.u{stroke-miterlimit:10}.n{fill:#93ed58}.o{fill:#1e0000}.p{fill:#b7b7b7}.q{fill:#846134}.r{fill:#d88344}.t{opacity:.35}.u{fill:#3b5972;stroke:#fff;stroke-width:.5px}.v{fill:#212121}.w{opacity:.27}.x{fill:#fff}.z{fill:#4f2f22}.ac{fill:#6b3c2b}.ae{fill:#a3a043}.af{fill:#36afc5}.ag{fill:#eaad00}.ah{fill:#3d3d3d}.ai{fill:#828282}.ak{fill:#385266}.al{fill:#6d6d6d}.ao{fill:#d6c4b9}.as{fill:#fcd47c}</style><clipPath id="a"><path class="a" d="M398 440l7 132-4 95h20l12-100 11-88 49 55 7 80 24-2-14.81-92.2-41-83L398 440z"/></clipPath><clipPath id="b"><path class="a" d="M545.85 296.91l-.18.08c-1.5 4-8.93 19-37.7 26.89v.12l-38 15v21l-3 12 3 60-69 5-17-82-20.3 10.63c-12.44 28.16-35.38 44.2-46.82 50.79 9.62-3.72 28.49-6.62 51.12 12.58 0 0 7 9-18 8a61.78 61.78 0 0 1-40-17c.74-1.4 39-73 40-75l13-22 36-10 26 13 18-13 58-13v.15c7-2.3 16.85-5.18 34-5.15-2.75-10.47-5-36 6-66 .03 0 22.74-25.49 4.88 67.91z"/></clipPath></defs><path class="b" d="M438 282c-5 12 4 28 4 28l-17 13-27-13s11-28 9-28"/><path class="c" d="M262 666l213-19-44-11-231 25 62 5z"/><path class="d" d="M481.5 585.81V81.34l-11-7.34-5 516.39 16-4.58z"/><path fill="#826143" d="M481 81.8l189 13.35v536.98l-189-43.95V81.8z"/><path fill="#f26f69" d="M470 74.46l216 11.01-16 10.09L481 81.8l-11-7.34z"/><path d="M686 84.55v552.16s-19 10.09-19 7.34 3-548.49 3-548.49z" fill="#fc7e7e"/><path class="h" d="M481 581l-29 8 215 56 19-11-205-53z"/><path class="i" d="M452 609v-20l215 56v19l-215-55z"/><path class="h" d="M454 609l-29 8 215 56 27-9-213-55z"/><path class="i" d="M425 637v-20l215 56v19l-215-55z"/><path class="h" d="M667 664l19-9v-21l-19 11v19z"/><path class="h" d="M640 693l46-17v-22l-46 18v21z"/><path class="c" d="M407.17 283.3L404 293.93s22.47 8.92 32.75 0L436 284z"/><path class="b" d="M393 236s3 40 18 51 36 3 42-10c3.29-7.14-2.74-25.7-8.87-41-5-12.6-10.13-23-10.13-23s-36-7-41 23z"/><path class="j" d="M244 652v-20.55h12l-.5 19.31L244 652z"/><path class="k" d="M242.5 649.51s36.11-15 57.08-2.77a7.86 7.86 0 0 1 3.92 6.81v3l-61-2z"/><path class="l" d="M242 654.01h62v5h-62z"/><path class="m" d="M257.08 644.44c-.89.46-9.9-3.87-4.15-8s4.15 8 4.15 8zM258.05 645c-.77-.64-.2-10.63 5.8-6.88s-5.8 6.88-5.8 6.88z"/><path class="n" d="M267.12 642.88L256 654h3.56L271 642l-3.88.88zM274 642l-11 12h3.56L278 642h-4zM280 642l-11 12h3.56L284 642h-4z"/><path class="o" d="M398 220s-3-16 22-26v13s11-17 31-21l-6 10s15-4 28 12c0 0-21 15-38 17z"/><path class="c" d="M394.32 246.71s3.18-5.2 3.18-10.2c0 0 12 0 13-13 0 0 14.72 14.2 32.86 11.6l-4.86-12.6-31-6-13.05 13.33-1.95 8.67z"/><path class="o" d="M398 220h-11s-7 6-6 11c0 0 4-4 8 0s-5 8-5 8h9l2 8s-2-14 3-13 10-14 10-14"/><path class="b" d="M396 247s-10-3-7 10c0 0 3.5 6.57 8.75 5.78S396 247 396 247zM442 236s5-4 6 0 4 12.5 0 13.75-6-13.75-6-13.75z"/><path class="c" d="M441.54 259.41s-13.79 3.32-16.91-8.55z"/><path class="p" d="M509 635.56V615h12l-.5 19.32-11.5 1.24z"/><path class="q" d="M507.5 634.51s36.11-15 57.08-2.77a7.86 7.86 0 0 1 3.92 6.81v3l-61-2z"/><path class="l" d="M507 639.01h62v5h-62z"/><path class="m" d="M522.08 629.44c-.89.46-9.9-3.87-4.15-8s4.15 8 4.15 8zM523.05 630c-.77-.64-.2-10.63 5.8-6.88s-5.8 6.88-5.8 6.88z"/><path class="c" d="M516 659c-4-2-113 38-113 38h62l85-28z"/><path class="p" d="M405 688.56V668h12l-.5 19.32-11.5 1.24z"/><path class="q" d="M403.5 687.51s36.11-15 57.08-2.77a7.86 7.86 0 0 1 3.92 6.81v3l-61-2z"/><path class="l" d="M403 692.01h62v5h-62z"/><path class="m" d="M418.08 682.44c-.89.46-9.9-3.87-4.15-8s4.15 8 4.15 8zM419.05 683c-.77-.64-.2-10.63 5.8-6.88s-5.8 6.88-5.8 6.88z"/><ellipse class="o" cx="407.84" cy="244.64" rx="2" ry="3.5" transform="rotate(-10.55 407.951 244.718)"/><ellipse class="o" cx="434.16" cy="237.37" rx="2" ry="3.5" transform="rotate(-10.55 434.24 237.423)"/><path class="r" d="M419 239c1 1.17 25 17.05 24 16.75a7.21 7.21 0 0 0-2.41 1.29c-7.61 4.94-17.15.3-19.54-9.53z"/><path class="j" d="M202 659v-20.55h12l-.5 19.31L202 659z"/><path class="k" d="M200.5 656.51s36.11-15 57.08-2.77a7.86 7.86 0 0 1 3.92 6.81v3l-61-2z"/><path class="l" d="M200 661.01h62v5h-62z"/><path class="m" d="M215.08 651.44c-.89.46-9.9-3.87-4.15-8s4.15 8 4.15 8zM216.05 652c-.77-.64-.2-10.63 5.8-6.88s-5.8 6.88-5.8 6.88z"/><path class="a" d="M398 440l7 132-4 95h20l12-100 11-88 49 55 7 80 24-2-14.81-92.2-41-83L398 440z"/><g clip-path="url(#a)"><g class="t"><path class="u" d="M465 435.2l-3 236.81M459 431.01l-3 236.8M451 431.01l-3 236.8M446 431.01l-3 236.8M441 431.01l-3 236.8M434 431.01l-3 236.8M427 431.01l-3 236.8M420 431.01l-3 236.8M413 431.01l-3 236.8M406 431.01l-3 236.8"/></g><g class="t"><path class="u" d="M531 387.23l-3 238.78M525 383.01l-3 238.77M517 383.01l-3 238.77M512 383.01l-3 238.77M507 383.01l-3 238.77M500 383.01l-3 238.77M493 383.01l-3 238.77M486 383.01l-3 238.77M479 383.01l-3 238.77M472 383.01l-3 238.77"/></g></g><path class="v" d="M398 440l73-5-.26 8.5-72.26 5.62L398 440z"/><g class="w"><path class="x" d="M527.37 237.81a41.32 41.32 0 0 0-.31-11.92 27.93 27.93 0 0 0-4.25-10.79 23.29 23.29 0 0 0-3.75-4.42 26.8 26.8 0 0 0-2.22-1.9c-.81-.54-1.58-1.17-2.43-1.66a51.19 51.19 0 0 0-10.91-4.9 33.21 33.21 0 0 1 11.69 3.55 27.53 27.53 0 0 1 2.67 1.58 30.39 30.39 0 0 1 2.47 1.93 23.47 23.47 0 0 1 4.14 4.7 25.82 25.82 0 0 1 4.13 11.69 29.05 29.05 0 0 1-1.23 12.14z"/></g><path class="c" d="M481 82l189 14-.04 7.01L491 93l-.52 490.46L481 581V82z"/><path fill="#8c8c8c" d="M604 247l-1 21-73-3 .04-4.71L604 247z"/><path class="x" d="M531 244l72 3-1 19s-72.41-3.79-72.21-3.4S531 244 531 244z"/><path d="M560.13 250.37l-1 1.2a.54.54 0 0 1-.44.24.47.47 0 0 1-.27-.1 3 3 0 0 0-1.62-.54 3.08 3.08 0 0 0-2.36.84 3.13 3.13 0 0 0-1 2.25 3.15 3.15 0 0 0 3 3.39 3.27 3.27 0 0 0 1.7-.39.51.51 0 0 1 .28-.07.58.58 0 0 1 .41.28l.93 1.3a.49.49 0 0 1-.13.8 4.1 4.1 0 0 1-1.12.5 6.3 6.3 0 0 1-2.13.27 5.69 5.69 0 0 1-4.11-1.93 5.76 5.76 0 0 1-1.53-4.29 5.9 5.9 0 0 1 6.21-5.63 5.81 5.81 0 0 1 2.75.81c.43.26.65.5.64.72a.64.64 0 0 1-.21.35zM564 253.39l3.41.17c.39 0 .57.2.54.59l-.07 1.54a.49.49 0 0 1-.6.54l-3.41-.16-.09 1.83 3.42.16a.49.49 0 0 1 .54.59l-.08 1.55a.48.48 0 0 1-.59.53l-5.52-.26a.49.49 0 0 1-.54-.6l.5-10.46a.49.49 0 0 1 .59-.54l5.53.26a.5.5 0 0 1 .54.6l-.08 1.54a.49.49 0 0 1-.59.54l-3.42-.17zM575.08 249.37a5.58 5.58 0 0 1 4 1.93 6 6 0 0 1-.43 8.45 5.86 5.86 0 0 1-8.27-.4 6 6 0 0 1 .38-8.45 5.7 5.7 0 0 1 4.32-1.53zm-.19 2.67a3.1 3.1 0 0 0-2.28.83 3.17 3.17 0 0 0-1.08 2.28 3.1 3.1 0 0 0 .84 2.35 3.22 3.22 0 0 0 5.6-2 3.23 3.23 0 0 0-.85-2.38 3.1 3.1 0 0 0-2.23-1.12z"/><path class="z" d="M350 450l63-8v8l-63 7v-7z"/><path d="M549.23 299.67s24.36-61.58 19.69-73.2l9.7-14-23-9.76-16.91 100.75s3.39 5.44 10.52-3.79z" opacity=".1" fill="#000102"/><path class="o" d="M411 240a15.48 15.48 0 0 1-1.67-.32c-.54-.11-1.07-.2-1.57-.32a14 14 0 0 0-2.95-.28 6.09 6.09 0 0 0-2.63.69 11.18 11.18 0 0 0-2.44 2 5 5 0 0 1 1.49-3.24 5.4 5.4 0 0 1 3.5-1.44 7.85 7.85 0 0 1 3.53.79 13.17 13.17 0 0 1 1.48.93A11 11 0 0 1 411 240zM439.84 228.43c-1.12.45-2.15.87-3.16 1.31a20.41 20.41 0 0 0-2.79 1.47 10.11 10.11 0 0 0-2.28 1.94A12.45 12.45 0 0 0 430 236a5.44 5.44 0 0 1 .26-3.67 7 7 0 0 1 2.55-2.82 9 9 0 0 1 3.44-1.28 7.93 7.93 0 0 1 3.59.2z"/><path class="b" d="M547 240l-20-29 16-12 16 6-12 35z"/><path class="a" d="M545.85 296.91l-.18.08c-1.5 4-8.93 19-37.7 26.89v.12l-38 15v21l-3 12 3 60-69 5-17-82-20.3 10.63c-12.44 28.16-35.38 44.2-46.82 50.79 9.62-3.72 28.49-6.62 51.12 12.58 0 0 7 9-18 8a61.78 61.78 0 0 1-40-17c.74-1.4 39-73 40-75l13-22 36-10 26 13 18-13 58-13v.15c7-2.3 16.85-5.18 34-5.15-2.75-10.47-5-36 6-66 .03 0 22.74-25.49 4.88 67.91z"/><g clip-path="url(#b)"><g class="t"><path class="u" d="M419 272.2l-3 236.81M413 268.01l-3 236.8M405 268.01l-3 236.8M400 268.01l-3 236.8M395 268.01l-3 236.8M388 268.01l-3 236.8"/></g><g class="t"><path class="u" d="M471 220.01l-3 238.77M466 220.01l-3 238.77M461 220.01l-3 238.77M454 220.01l-3 238.77M447 220.01l-3 238.77M440 220.01l-3 238.77M433 220.01l-3 238.77M426 220.01l-3 238.77M581.27 290.75l-111.63 40.34M579.09 285.16L469.5 324.71M583.45 296.34l-113.99 41.27M585.63 301.93l-103.35 37.12M587.81 307.52l-103.35 37.12M589.99 313.11l-103.35 37.12M568.54 258.15l-103.35 37.11M566.36 252.56l-103.35 37.11M570.72 263.74l-103.35 37.11M572.91 269.33l-103.36 37.11M568.54 233.15l-103.35 37.11M566.36 227.56l-103.35 37.11M570.72 238.74l-103.35 37.11M572.91 244.33l-103.36 37.11M575.09 274.92l-105.53 37.96M577.27 280.51l-107.56 38.75M387.23 332.35l-88.12 99.03M387.52 322.74l-91.57 103.09M387.01 341.87l-84.98 95.34M386.65 351.56L314 432.39M350.87 400.3L312 441.39M356.87 401.3L318 442.39M363.87 402.3L325 443.39M369.87 404.3L331 445.39M375.87 406.3L337 447.39M382.87 407.3L344 448.39M351.57 320.25l-73.38 81.7M356.15 324.14l-73.39 81.7M367.8 319.69l-80.47 90.03M380.99 313.44L290.4 415.39M384.92 318.08l-91.37 102.85"/></g></g><path class="b" d="M368 429h25l7.69 24.06L372 458l-4-29z"/><path class="ac" d="M340 479l97-15-12-3-95 14 10 4z"/><path class="ac" d="M330 475l3 61 9 5-2-62-10-4z"/><path d="M205 215l-4-10s9 3 9 6v-10s6 6 5 10 22-5 25-14c0 0-2 15-9 18 0 0 15-14 31 0 0 0 7 3.44 7 14.22 0 .01-88 8.78-64-14.22z" fill="#ad6200"/><path class="z" d="M342 541l92-16 3-61-97 15 2 62z"/><path class="ae" d="M195 290.6l-26 7.4-13 27 32 9 3-9 8 91 65-5 2-72 4-14-4-15 3 5 7.99-19.66-6-8L195 290.6z"/><path class="af" d="M256.7 292c.57 1 1.72 25-12 42 0 0-4.57 5-5.71 8v-2s17.13-22 16.56-48z"/><path class="ag" d="M413 465v-23l4 23h-4zM350 474v-24.88l4 24.88h-4z"/><path class="ah" d="M268.96 245.64L269 229l-34 8v62l32-9 1.96-44.36z"/><path class="af" d="M208 292c-1 1-3 25 21 42 0 0 8 5 10 8v-2s-30-22-29-48z"/><path class="ai" d="M170 231l65 6v62l-63-10-2-58z"/><path fill="#efefef" d="M390.5 315l9.5-2 24 13 18-13 13-3-13 17-9 76-18-54v-12l-24.5-22z"/><path class="d" d="M423.75 331.35l-1.62 3.53L424 338h6l2-5-6-7.72-2.25 6.07z"/><path class="d" d="M429.5 395.76C429 396 422 343 422 343l3-6h4l3 6v56z"/><path class="ak" d="M399 313l-15.65 4.08L403 337h11l-8 7 27 59-14-68-20-22zM433 403l4-70 5-20 16.06-4.01L449 334l-7 1 7 5-16 63z"/><path class="al" d="M269 229l-68-6-31 8 65 6 34-8z"/><path class="c" d="M394 250s-4-1-3 5a2.19 2.19 0 0 0 3 1s2 1 0 2c0 0 6 5 0-8zM391 315l26 30 8-19-34-11z"/><path class="c" d="M424 328l6 17 20-31-26 14z"/><path class="b" d="M272.91 330.07c.63 2.79 8.35 6.35 15.76-9.19l-23.74-54.5s-.59 25.62 7.98 63.69z"/><path d="M271 250l-12-2s-10 4-9 21 9 17 9 17l15 2s-16-19-3-38z" fill="#4c4c4c"/><path class="x" d="M426 326l-6 13s-29-24-28.5-24 8.5-3 8.5-3z"/><path class="x" d="M425 326l8 12s18.36-27 18-27-7.09-1-7.09-1z"/><path class="c" d="M172.43 297l22.57-7s39 7 40 6 31-7 31-7l-28 21z"/><ellipse class="al" cx="286" cy="265.51" rx="20" ry="28.5"/><ellipse class="ah" cx="288.5" cy="265.51" rx="17.5" ry="28.5"/><path d="M180 333l-15 23s-11.57-11.67-3.38-28.13z" fill="#e29b66"/><path class="c" d="M195 292.81l10 1.19 1-29 8-7 4-19-23 2-6 51.19 6 .62z"/><path class="b" d="M165 356s.59-64.84 25.1-92.46c0 0 10.23-9.48 11.58.45 0 .01-12.87 74.61-36.68 92.01z"/><path class="b" d="M193.33 260L189 239l18-10 24 2s-10 8-11 8-10 21-10 21-10.33 7.08-16.67 0zM219.5 224.64L231 220l23 5v2.98l-10.33-.98-6.92.98-17.25-3.34z"/><path class="c" d="M384 355l8-2 9 84-17-82z"/><g class="w"><path class="x" d="M517 186.41a40.9 40.9 0 0 0 11.51 3.23 27.47 27.47 0 0 0 11.6-.95 22.35 22.35 0 0 0 5.32-2.35c.86-.45 1.64-1.05 2.46-1.59s1.57-1.19 2.29-1.87a51.18 51.18 0 0 0 7.82-9.09 33.42 33.42 0 0 1-6.75 10.21 25.32 25.32 0 0 1-4.84 4 23.51 23.51 0 0 1-5.71 2.64 25.57 25.57 0 0 1-12.43.58 29 29 0 0 1-11.27-4.81z"/></g><g class="w"><path class="x" d="M569.92 175.13a40.91 40.91 0 0 0-2.4 11.72 27.59 27.59 0 0 0 1.77 11.49 22.83 22.83 0 0 0 2.73 5.14 26.48 26.48 0 0 0 1.76 2.34c.68.71 1.3 1.48 2 2.15a51.15 51.15 0 0 0 9.62 7.15 33.28 33.28 0 0 1-10.67-6 25.26 25.26 0 0 1-4.28-4.54 23.53 23.53 0 0 1-3.05-5.51 25.57 25.57 0 0 1-1.4-12.35 28.84 28.84 0 0 1 3.92-11.59z"/></g><g class="w"><path class="x" d="M589.37 219.93a40.87 40.87 0 0 0-11.81 1.9 27.52 27.52 0 0 0-10.12 5.73 22.85 22.85 0 0 0-3.84 4.37c-.59.78-1.05 1.65-1.56 2.48s-.93 1.74-1.29 2.66a51.09 51.09 0 0 0-3.28 11.53 33.51 33.51 0 0 1 1.82-12.11 25.35 25.35 0 0 1 2.74-5.61 23.65 23.65 0 0 1 4.07-4.8 25.63 25.63 0 0 1 11-5.75 29.08 29.08 0 0 1 12.27-.4z"/></g><path class="ao" d="M334.5 481.5v34l-23-17 10-32 13 15z"/><path class="c" d="M326 471.7l8.5 30.05.1-9.94L329 475l-3-3.3z"/><path fill="#e0cfc3" d="M334.5 495.25L326 466l33-2v9l-24 4.4-.5 17.85z"/><path class="ao" d="M379 470l32-5-16-9.66L379 470zM299 536.53s12.3 12.43 23.94 13.71c0 0-17.81 19.79-12.12 43.11 0 0-27.39-2.58-32.92-12.55-.04 0 7.42-32.7 21.1-44.27z"/><path class="b" d="M394.13 432.55C395 435 411 439 411 439l-4 4.5-15-1.5z"/><path fill="#1c4466" d="M197.88 424.02l6.35 119.78-4.63 92.2h18.15l11.89-96.74 9.98-79.85 7.26 79.85-3.63 90.74h14.52l6.35-210.51-66.24 4.53z"/><path class="v" d="M197 418.55l68-4.65-.24 7.91-67.31 5.23-.45-8.49z"/><path d="M287.16 244.87c-.87.07-15.17 6.4-7.36 33.17 2.84 9.72 14.36 10.89 18.68 1.8a30.14 30.14 0 0 0 2.06-5.91s4.73-30.39-13.38-29.06z" fill="#0f0e01"/><path class="x" d="M287 248.93s12.23 2.76 10 13.53c0 0-.3-8.37-10-13.53zM296.83 266a28 28 0 0 1-1.16 6.77c-.99 2.7 2.33-2.61 1.16-6.77z"/><path class="r" d="M453.35 260.15a80.65 80.65 0 0 1-8.35 6.48 67.85 67.85 0 0 1-9.16 5.32c-3.22 1.46-6.61 2.8-10.24 2.91a9 9 0 0 1-5.22-1.29 7.72 7.72 0 0 1-2.88-4.41 7.83 7.83 0 0 0 3.14 4 8.36 8.36 0 0 0 4.92.94 20.47 20.47 0 0 0 5-1.09 42.62 42.62 0 0 0 4.82-1.95 95.13 95.13 0 0 0 9.17-5.06c1.5-.92 3-1.88 4.42-2.86s2.94-1.98 4.38-2.99z"/><path class="c" d="M447.5 266.51s1-4-14 3c0 0-6 4 2 4s14-4 12-7zM447 238s-1 2 1 6 0-6-1-6z"/><path class="o" d="M381 215s12.93-3 19 7a23.69 23.69 0 0 0-19-7z"/><path class="as" d="M646 373.61c0 1.11-1 42.4-1 42.4l-18-2 1.64-39.64z"/><circle class="as" cx="637.5" cy="378.51" r="13.5"/><path class="c" d="M651 378.51a13.5 13.5 0 0 1-27 0 13.26 13.26 0 0 1 1-5.13 13 13 0 0 0-.08 1.4 12.57 12.57 0 0 0 25.14 0 13 13 0 0 0-.08-1.4 13.26 13.26 0 0 1 1.02 5.13z"/><path d="M650.91 377a14.49 14.49 0 0 0-26.82 0 13.49 13.49 0 0 1 26.82 0z" opacity=".58" fill="#fff"/><path class="b" d="M551 228l11-11-4-6-8 9 1 8z"/><path d="M632 409l8 1-2-6h-4l-2 5z"/><circle cx="636" cy="401.01" r="4"/><path class="ai" d="M192 229l-2-12h6l16 12h-20z"/><path class="al" d="M212 229l10.67-3L208 215l-12 2 16 12z"/><path class="ai" d="M208 215h-10l-8 2h6l12-2z"/><path class="ah" d="M178 247c0-1 27-15 48 2v7s-20-13-47-3z"/><circle class="ah" cx="179.5" cy="249.51" r="4.5"/><path class="c" d="M231.55 342.45l15.7-.43a1.81 1.81 0 0 1 1.84 1.65l2.15 24a1.8 1.8 0 0 1-1.67 2l-16.68 1.14a1.82 1.82 0 0 1-1.92-1.72l-1.17-24.73a1.8 1.8 0 0 1 1.75-1.91z"/><circle class="ah" cx="226.5" cy="252.51" r="4.5"/><path class="n" d="M225.12 649.88L214 661h3.56L229 649l-3.88.88zM232 649l-11 12h3.56L236 649h-4zM238 649l-11 12h3.56L242 649h-4z"/><path class="c" d="M191 325l2-8 12.29 98.52-6.29.48-8-91z"/><path class="x" d="M231.82 341.72l15.51-2.45a1.8 1.8 0 0 1 2 1.39l5.23 23.55a1.81 1.81 0 0 1-1.41 2.16l-16.38 3.27a1.79 1.79 0 0 1-2.13-1.45l-4.36-24.37a1.81 1.81 0 0 1 1.54-2.1z"/><path d="M240.38 348.2l-1.92.37a.25.25 0 0 1-.34-.23l-.15-.78c0-.2 0-.31.23-.34l5.3-1c.19-.05.3 0 .34.23l.3 1.56a1.69 1.69 0 0 1-.26 1.34 2 2 0 0 1-2.68.5 1.75 1.75 0 0 1-.73-1.13zm1.35-.26l.1.5a.34.34 0 0 0 .25.29.58.58 0 0 0 .32 0 .48.48 0 0 0 .34-.22.38.38 0 0 0 0-.28l-.1-.5zM241.67 353.72l-1.92 1.64a.24.24 0 0 1-.11.06c-.1 0-.16 0-.18-.17l-.19-.94a.39.39 0 0 1 .15-.4l1.81-1.49v-.2l-1.95.37a.24.24 0 0 1-.34-.23l-.15-.78a.24.24 0 0 1 .23-.34l5.29-1c.2-.05.31 0 .35.23l.32 1.67a1.75 1.75 0 0 1-.27 1.38 1.85 1.85 0 0 1-1.24.78 1.79 1.79 0 0 1-1.8-.58zm.81-1.75l.11.55a.5.5 0 0 0 .21.34.52.52 0 0 0 .39.07.48.48 0 0 0 .39-.6l-.11-.55zM243.47 356.52l.33 1.73c0 .2 0 .31-.23.34l-.78.15a.24.24 0 0 1-.34-.23l-.34-1.72-.92.17.33 1.73a.24.24 0 0 1-.23.34l-.78.15a.24.24 0 0 1-.34-.23l-.54-2.79c0-.2 0-.31.23-.34l5.3-1a.24.24 0 0 1 .34.23l.54 2.79a.25.25 0 0 1-.23.34l-.78.15c-.2 0-.31 0-.34-.23l-.34-1.73zM241.65 359.83l.38.54a.59.59 0 0 1 .07.14.38.38 0 0 1-.08.26.64.64 0 0 0-.07.46.51.51 0 0 0 .18.3.37.37 0 0 0 .31.05.51.51 0 0 0 .4-.35 2 2 0 0 0 .12-.47 2 2 0 0 1 1.52-1.79 1.77 1.77 0 0 1 1.37.24 1.73 1.73 0 0 1 .73 1.15 1.75 1.75 0 0 1-.27 1.34c-.14.19-.25.3-.36.32s-.18 0-.27-.14l-.48-.68a.42.42 0 0 1-.08-.14.28.28 0 0 1 0-.19.34.34 0 0 0 .05-.26.32.32 0 0 0-.2-.25.48.48 0 0 0-.26 0 .45.45 0 0 0-.29.27 2.62 2.62 0 0 0-.13.43v.11a3.53 3.53 0 0 1-.42 1.09 1.67 1.67 0 0 1-1.14.68 1.79 1.79 0 0 1-1.42-.26A1.8 1.8 0 0 1 241 360a.85.85 0 0 1 .37-.29.27.27 0 0 1 .28.12zM242.39 363.7l.38.54a.26.26 0 0 1 0 .39.61.61 0 0 0-.07.46.43.43 0 0 0 .18.31.4.4 0 0 0 .31.05.51.51 0 0 0 .4-.35 4.19 4.19 0 0 0 .12-.47c.21-1 .71-1.64 1.51-1.79a1.8 1.8 0 0 1 1.38.24 1.84 1.84 0 0 1 .45 2.49c-.13.19-.25.3-.35.32s-.19 0-.27-.15l-.49-.68a.57.57 0 0 1-.07-.13.27.27 0 0 1 0-.19.36.36 0 0 0 .05-.27.33.33 0 0 0-.21-.25.36.36 0 0 0-.25 0 .43.43 0 0 0-.3.27c0 .05-.06.19-.12.43v.11a3.36 3.36 0 0 1-.42 1.08 1.68 1.68 0 0 1-1.13.69 1.82 1.82 0 0 1-1.42-.26 1.8 1.8 0 0 1-.32-2.66.74.74 0 0 1 .37-.29c.11-.05.19-.01.27.11z"/><path class="af" d="M250 343.39l-19.3 2.41-.35-2a1.82 1.82 0 0 1 1.5-2.1l15.51-2.45a1.81 1.81 0 0 1 2 1.4z"/><circle class="ae" cx="240" cy="344.01" r="2"/></svg>