<svg id="Layer_1" data-name="Layer 1" xmlns="http://www.w3.org/2000/svg" viewBox="0 0 894 890"><defs><style>.cls-1{fill:#426f8e;}.cls-14,.cls-2{fill:none;}.cls-2{clip-rule:evenodd;}.cls-3{fill:#edae7a;}.cls-28,.cls-4{fill:#000102;}.cls-4{opacity:0.09;}.cls-5{fill:#d85555;}.cls-6{fill:#826143;}.cls-7{fill:#f26f69;}.cls-8{fill:#fc7e7e;}.cls-9{fill:#686868;}.cls-10{fill:#4f4f4f;}.cls-11{fill:#99d2d6;}.cls-12{fill:#e5e5e5;}.cls-13{fill:#282828;}.cls-14{stroke:#282828;}.cls-14,.cls-22{stroke-miterlimit:10;}.cls-15{fill:#93ed58;}.cls-16{fill:#1e0000;}.cls-17{fill:#b7b7b7;}.cls-18{fill:#846134;}.cls-19{fill:#d88344;}.cls-20{clip-path:url(#clip-path);}.cls-21{opacity:0.35;}.cls-22{fill:#3b5972;stroke:#fff;stroke-width:0.5px;}.cls-23{fill:#212121;}.cls-24{opacity:0.27;}.cls-25,.cls-47{fill:#fff;}.cls-26{fill:#8c8c8c;}.cls-27{fill:#4f2f22;}.cls-28{opacity:0.1;}.cls-29{clip-path:url(#clip-path-2);}.cls-30{fill:#6b3c2b;}.cls-31{fill:#ad6200;}.cls-32{fill:#a3a043;}.cls-33{fill:#36afc5;}.cls-34{fill:#eaad00;}.cls-35{fill:#3d3d3d;}.cls-36{fill:#828282;}.cls-37{fill:#efefef;}.cls-38{fill:#385266;}.cls-39{fill:#6d6d6d;}.cls-40{fill:#4c4c4c;}.cls-41{fill:#e29b66;}.cls-42{fill:#d6c4b9;}.cls-43{fill:#e0cfc3;}.cls-44{fill:#1c4466;}.cls-45{fill:#0f0e01;}.cls-46{fill:#fcd47c;}.cls-47{opacity:0.58;}.cls-48{clip-path:url(#clip-path-3);}.cls-49{fill:#f1f1f1;}.cls-50{fill:#393f59;}</style><clipPath id="clip-path"><path class="cls-1" d="M398 570l7 132-4 95h20l12-100 11-88 49 55 7 80 24-2-14.8-92.2-41-83L398 570z"/></clipPath><clipPath id="clip-path-2"><path class="cls-1" d="M546 427h-.3c-1.5 4-9 19-37.7 27l-38 15v21l-3 12 3 60-69 5-17-82-20.3 10.6c-12.5 28.2-35.4 44.2-46.8 50.8 9.5-3.7 28.3-6.6 51 12.6 0 0 7 9-18 8a61.8 61.8 0 0 1-40-17l40-75 13-22 36-10 26 13 18-13 58-13c7-2.2 16.8-5 34-5-2.8-10.5-5-36 6-66 0 0 22.7-25.5 5 68z"/></clipPath><clipPath id="clip-path-3"><path class="cls-2" d="M306.4 54h141.8L401 177H448L378 248 306.4 177H350L306.5 54z"/></clipPath></defs><path class="cls-3" d="M438 412c-5 12 4 28 4 28l-17 13-27-13s11-28 9-28"/><path class="cls-4" d="M262 796l213-19-44-11-231 25 62 5z"/><path class="cls-5" d="M481.5 715.8V211.3l-11-7.3-5 516.4 16-4.6z"/><path class="cls-6" d="M481 211.8l189 13.4v537l-189-44V211.8z"/><path class="cls-7" d="M470 204.5l216 11-16 10L481 212l-11-7.3z"/><path class="cls-8" d="M686 214.6v552s-19 10.2-19 7.5l3-548.4z"/><path class="cls-9" d="M481 711l-29 8 215 56 19-11-205-53z"/><path class="cls-10" d="M452 739v-20l215 56v19l-215-55z"/><path class="cls-9" d="M454 739l-29 8 215 56 27-9-213-55z"/><path class="cls-10" d="M425 767v-20l215 56v19l-215-55z"/><path class="cls-9" d="M667 794l19-9v-21l-19 11v19z"/><path class="cls-9" d="M640 823l46-17v-22l-46 18v21z"/><path class="cls-4" d="M407.2 413.3L404 424s22.5 9 32.7 0l-.7-10z"/><path class="cls-3" d="M393 366s3 40 18 51 36 3 42-10c3.3-7-2.7-25.7-9-41-5-12.6-10-23-10-23s-36-7-41 23z"/><path class="cls-11" d="M244 782v-20.5h12l-.5 19.3L244 782z"/><path class="cls-12" d="M242.5 779.5s36-15 57-2.8a8 8 0 0 1 4 6.8v3l-61-2z"/><path class="cls-13" d="M242 784h62v5h-62z"/><path class="cls-14" d="M257 774.4c-.8.5-9.8-3.8-4-8s4 8 4 8zM258 775c-.8-.6-.2-10.6 5.8-7s-5.8 7-5.8 7z"/><path class="cls-15" d="M267 773l-11 11h3.6l11.4-12-4 1zM274 772l-11 12h3.6l11.4-12h-4zM280 772l-11 12h3.6l11.4-12h-4z"/><path class="cls-16" d="M398 350s-3-16 22-26v13s11-17 31-21l-6 10s15-4 28 12c0 0-21 15-38 17z"/><path class="cls-4" d="M394.3 376.7s3.2-5.2 3.2-10.2c0 0 12 0 13-13 0 0 14.7 14.2 33 11.6l-5-12.5-31-6-13 13.3-2 8.7z"/><path class="cls-16" d="M398 350h-11s-7 6-6 11c0 0 4-4 8 0s-5 8-5 8h9l2 8s-2-14 3-13 10-14 10-14"/><path class="cls-3" d="M396 377s-10-3-7 10c0 0 3.5 6.6 8.8 5.8S396 377 396 377zM442 366s5-4 6 0 4 12.5 0 13.8-6-13.8-6-13.8z"/><path class="cls-4" d="M441.5 389.4s-13.7 3.3-17-8.5z"/><path class="cls-17" d="M509 765.6V745h12l-.5 19.3-11.5 1.3z"/><path class="cls-18" d="M507.5 764.5s36-15 57-2.8a8 8 0 0 1 4 6.8v3l-61-2z"/><path class="cls-13" d="M507 769h62v5h-62z"/><path class="cls-14" d="M522 759.4c-.8.5-9.8-3.8-4-8s4 8 4 8zM523 760c-.8-.6-.2-10.6 5.8-7s-5.8 7-5.8 7z"/><path class="cls-4" d="M516 789c-4-2-113 38-113 38h62l85-28z"/><path class="cls-17" d="M405 818.6V798h12l-.5 19.3-11.5 1.3z"/><path class="cls-18" d="M403.5 817.5s36-15 57-2.8a8 8 0 0 1 4 6.8v3l-61-2z"/><path class="cls-13" d="M403 822h62v5h-62z"/><path class="cls-14" d="M418 812.4c-.8.5-9.8-3.8-4-8s4 8 4 8zM419 813c-.8-.6-.2-10.6 5.8-7s-5.8 7-5.8 7z"/><ellipse class="cls-16" cx="407.8" cy="374.6" rx="2" ry="3.5" transform="rotate(-10.55 407.965 374.707)"/><ellipse class="cls-16" cx="434.2" cy="367.4" rx="2" ry="3.5" transform="rotate(-10.55 434.25 367.467)"/><path class="cls-19" d="M419 369c1 1.2 25 17 24 16.8-.3 0-1 .4-2.4 1.2-7.6 5-17.2.4-19.6-9.5z"/><path class="cls-11" d="M202 789v-20.5h12l-.5 19.3L202 789z"/><path class="cls-12" d="M200.5 786.5s36-15 57-2.8a8 8 0 0 1 4 6.8v3l-61-2z"/><path class="cls-13" d="M200 791h62v5h-62z"/><path class="cls-14" d="M215 781.4c-.8.5-9.8-3.8-4-8s4 8 4 8zM216 782c-.8-.6-.2-10.6 5.8-7s-5.8 7-5.8 7z"/><path class="cls-1" d="M398 570l7 132-4 95h20l12-100 11-88 49 55 7 80 24-2-14.8-92.2-41-83L398 570z"/><g class="cls-20"><g class="cls-21"><path class="cls-22" d="M465 565.2L462 802M459 561l-3 236.8M451 561l-3 236.8M446 561l-3 236.8M441 561l-3 236.8M434 561l-3 236.8M427 561l-3 236.8M420 561l-3 236.8M413 561l-3 236.8M406 561l-3 236.8"/></g><g class="cls-21"><path class="cls-22" d="M531 517.2L528 756M525 513l-3 238.8M517 513l-3 238.8M512 513l-3 238.8M507 513l-3 238.8M500 513l-3 238.8M493 513l-3 238.8M486 513l-3 238.8M479 513l-3 238.8M472 513l-3 238.8"/></g></g><path class="cls-23" d="M398 570l73-5-.3 8.5-72.2 5.6-.5-9z"/><path class="cls-24 cls-25" d="M527.4 367.8a41.3 41.3 0 0 0-.3-12 28 28 0 0 0-4.2-10.7 23 23 0 0 0-3.7-4.3 29 29 0 0 0-2.2-2l-2.4-1.6a50.6 50.6 0 0 0-11-4.8 33.2 33.2 0 0 1 11.8 3.5 27 27 0 0 1 2.7 1.6 31 31 0 0 1 2.3 2 23.8 23.8 0 0 1 4.2 4.7 25.8 25.8 0 0 1 4 11.7 29.2 29.2 0 0 1-1 12z"/><path class="cls-4" d="M481 212l189 14v7l-179-10-.5 490.5-9.5-2.5V212z"/><path class="cls-26" d="M604 377l-1 21-73-3v-4.7l74-13.3z"/><path class="cls-25" d="M531 374l72 3-1 19s-72.4-3.8-72.2-3.4S531 374 531 374z"/><path d="M560 380.4l-1 1.2a.6.6 0 0 1-.3.2.5.5 0 0 1-.3 0 3 3 0 0 0-1.6-.6 3.3 3.3 0 0 0-2.6 5.4 3 3 0 0 0 2.3 1 3.2 3.2 0 0 0 1.7-.4.6.6 0 0 1 .2 0 .6.6 0 0 1 .4.2l1 1.3a.6.6 0 0 1 0 .4.6.6 0 0 1-.2.5 4.3 4.3 0 0 1-1 .5 6 6 0 0 1-2.2.3 6 6 0 1 1 .6-11.8 5.8 5.8 0 0 1 2.7.8c.5.2.7.5.7.7a.6.6 0 0 1-.3.4zM564 383.4l3.4.2a.5.5 0 0 1 .5.5v1.7a.5.5 0 0 1-.7.5H564l-.2 1.7h3.4a.5.5 0 0 1 .5.7v1.5a.5.5 0 0 1-.6.5l-5.5-.2a.5.5 0 0 1-.5-.6l.5-10.6a.5.5 0 0 1 .6-.5h5.6a.5.5 0 0 1 .6.7v1.6a.5.5 0 0 1-.7.5l-3.4-.2zM575 379.4a5.6 5.6 0 0 1 4 2 6 6 0 0 1-.3 8.3 5.8 5.8 0 0 1-8.3-.4 6 6 0 0 1 .4-8.4 5.7 5.7 0 0 1 4.3-1.6zm0 2.6a3 3 0 0 0-2.4 1 3.3 3.3 0 0 0-.2 4.5 3.2 3.2 0 0 0 4.5.2 3 3 0 0 0 1-2.2 3.2 3.2 0 0 0-1-2.4 3 3 0 0 0-2-1z"/><path class="cls-27" d="M350 580l63-8v8l-63 7v-7z"/><path class="cls-28" d="M549.2 429.7s24.4-61.6 19.7-73.2l9.6-14-23-9.8-17 100.8s3.5 5.4 10.6-3.8z"/><path class="cls-16" d="M411 370a13.2 13.2 0 0 1-1.7-.3l-1.5-.3a14.5 14.5 0 0 0-3-.3 6 6 0 0 0-2.6.8 11.2 11.2 0 0 0-2.4 2 5 5 0 0 1 1.4-3.2 5.4 5.4 0 0 1 3.5-1.5 7.7 7.7 0 0 1 3.6 1 15.3 15.3 0 0 1 1.4.8 11.4 11.4 0 0 1 1.3 1.2zM439.8 358.4l-3 1.4a20.5 20.5 0 0 0-3 1.4 10.3 10.3 0 0 0-2.2 2 12.7 12.7 0 0 0-1.6 2.8 5.4 5.4 0 0 1 .3-3.7 7 7 0 0 1 2.5-2.8 9 9 0 0 1 3.4-1.3 8 8 0 0 1 3.6.2z"/><path class="cls-3" d="M547 370l-20-29 16-12 16 6-12 35z"/><path class="cls-1" d="M546 427h-.3c-1.5 4-9 19-37.7 27l-38 15v21l-3 12 3 60-69 5-17-82-20.3 10.6c-12.5 28.2-35.4 44.2-46.8 50.8 9.5-3.7 28.3-6.6 51 12.6 0 0 7 9-18 8a61.8 61.8 0 0 1-40-17l40-75 13-22 36-10 26 13 18-13 58-13c7-2.2 16.8-5 34-5-2.8-10.5-5-36 6-66 0 0 22.7-25.5 5 68z"/><g class="cls-29"><g class="cls-21"><path class="cls-22" d="M419 402.2L416 639M413 398l-3 236.8M405 398l-3 236.8M400 398l-3 236.8M395 398l-3 236.8M388 398l-3 236.8"/></g><g class="cls-21"><path class="cls-22" d="M471 350l-3 238.8M466 350l-3 238.8M461 350l-3 238.8M454 350l-3 238.8M447 350l-3 238.8M440 350l-3 238.8M433 350l-3 238.8M426 350l-3 238.8M581.3 420.8L469.6 461M579 415.2l-109.5 39.5M583.5 426.4l-114 41.2M585.6 432l-103.3 37M587.8 437.5l-103.3 37M590 443l-103.4 37.2M568.5 388l-103.3 37.3M566.4 382.6l-103.4 37M570.7 393.7L467.4 431M573 399.3l-103.4 37M568.5 363l-103.3 37.3M566.4 357.6l-103.4 37M570.7 368.7L467.4 406M573 374.3l-103.4 37M575 405l-105.4 38M577.3 410.5l-107.6 38.8M387.2 462.4l-88 99M387.5 452.8l-91.6 103M387 472L302 567M386.6 481.6L314 562.4M351 530.3l-39 41M357 531.3l-39 41M364 532.3l-39 41M370 534.3l-39 41M376 536.3l-39 41M383 537.3l-39 41M351.6 450.3L278.2 532M356 454L283 536M367.8 449.7l-80.5 90M381 443.4l-90.6 102M385 448l-91.4 103"/></g></g><path class="cls-3" d="M368 559h25l7.7 24-28.7 5-4-29z"/><path class="cls-30" d="M340 609l97-15-12-3-95 14 10 4z"/><path class="cls-30" d="M330 605l3 61 9 5-2-62-10-4z"/><path class="cls-31" d="M205 345l-4-10s9 3 9 6v-10s6 6 5 10 22-5 25-14c0 0-2 15-9 18 0 0 15-14 31 0 0 0 7 3.4 7 14.2 0 0-88 8.8-64-14.2z"/><path class="cls-27" d="M342 671l92-16 3-61-97 15 2 62z"/><path class="cls-32" d="M195 420.6l-26 7.4-13 27 32 9 3-9 8 91 65-5 2-72 4-14-4-15 3 5 8-19.7-6-8-76 3.3z"/><path class="cls-33" d="M256.7 422c.6 1 1.7 25-12 42 0 0-4.6 5-5.7 8v-2s17-22 16.5-48z"/><path class="cls-34" d="M413 595v-23l4 23h-4zM350 604v-25l4 25h-4z"/><path class="cls-35" d="M269 375.6V359l-34 8v62l32-9 2-44.4z"/><path class="cls-33" d="M208 422c-1 1-3 25 21 42 0 0 8 5 10 8v-2s-30-22-29-48z"/><path class="cls-36" d="M170 361l65 6v62l-63-10-2-58z"/><path class="cls-37" d="M390.5 445l9.5-2 24 13 18-13 13-3-13 17-9 76-18-54v-12l-24.5-22z"/><path class="cls-5" d="M423.8 461.4L422 465l2 3h6l2-5-6-7.7-2.2 6z"/><path class="cls-5" d="M429.5 525.8c-.5.2-7.5-52.8-7.5-52.8l3-6h4l3 6v56z"/><path class="cls-38" d="M399 443l-15.6 4 19.6 20h11l-8 7 27 59-14-68-20-22zM433 533l4-70 5-20 16-4-9 25-7 1 7 5-16 63z"/><path class="cls-39" d="M269 359l-68-6-31 8 65 6 34-8z"/><path class="cls-4" d="M394 380s-4-1-3 5a2.2 2.2 0 0 0 3 1s2 1 0 2c0 0 6 5 0-8zM391 445l26 30 8-19-34-11z"/><path class="cls-4" d="M424 458l6 17 20-31-26 14z"/><path class="cls-3" d="M273 460c.5 3 8.3 6.4 15.7-9L265 396.3s-.7 25.6 8 63.7z"/><path class="cls-40" d="M271 380l-12-2s-10 4-9 21 9 17 9 17l15 2s-16-19-3-38z"/><path class="cls-25" d="M426 456l-6 13s-29-24-28.5-24 8.5-3 8.5-3z"/><path class="cls-25" d="M425 456l8 12s18.4-27 18-27l-7-1z"/><path class="cls-4" d="M172.4 427l22.6-7s39 7 40 6 31-7 31-7l-28 21z"/><ellipse class="cls-39" cx="286" cy="395.5" rx="20" ry="28.5"/><ellipse class="cls-35" cx="288.5" cy="395.5" rx="17.5" ry="28.5"/><path class="cls-41" d="M180 463l-15 23s-11.6-11.7-3.4-28z"/><path class="cls-4" d="M195 422.8l10 1.2 1-29 8-7 4-19-23 2-6 51.2 6 .6z"/><path class="cls-3" d="M165 486s.6-64.8 25-92.5c0 0 10.3-9.4 11.7.5 0 0-13 74.6-36.7 92z"/><path class="cls-3" d="M193.3 390l-4.3-21 18-10 24 2s-10 8-11 8-10 21-10 21-10.3 7-16.7 0zM219.5 354.6L231 350l23 5v3l-10.3-1-7 1-17.2-3.4z"/><path class="cls-4" d="M384 485l8-2 9 84-17-82z"/><path class="cls-24 cls-25" d="M517 316.4a40.8 40.8 0 0 0 11.5 3.3 27.6 27.6 0 0 0 11.6-1 22.7 22.7 0 0 0 5.4-2.3 28 28 0 0 0 2.5-1.6c.6-.7 1.5-1.2 2.2-2a51.2 51.2 0 0 0 7.8-9 33.5 33.5 0 0 1-6.8 10.2 25.4 25.4 0 0 1-4.8 4 23.6 23.6 0 0 1-5.7 2.6 25.5 25.5 0 0 1-12.4.6 29 29 0 0 1-11.3-4.8zM570 305a40.8 40.8 0 0 0-2.5 12 27.6 27.6 0 0 0 1.8 11.4 22.8 22.8 0 0 0 2.7 5 28 28 0 0 0 1.8 2.4l2 2.2a51.2 51.2 0 0 0 9.6 7 33.5 33.5 0 0 1-10.7-6 25.4 25.4 0 0 1-4.3-4.4 23.6 23.6 0 0 1-3-5.5 25.5 25.5 0 0 1-1.4-12.3 29 29 0 0 1 4-11.6zM589.4 350a40.8 40.8 0 0 0-11.8 1.8 27.6 27.6 0 0 0-10.2 5.8 22.7 22.7 0 0 0-3.8 4.3 28 28 0 0 0-1.6 2.4c-.4 1-1 1.7-1.2 2.7a51.2 51.2 0 0 0-3.3 11.6 33.5 33.5 0 0 1 1.8-12 25.4 25.4 0 0 1 2.7-5.7 23.6 23.6 0 0 1 4-5 25.5 25.5 0 0 1 11-5.7 29 29 0 0 1 12.4-.4z"/><path class="cls-42" d="M334.5 611.5v34l-23-17 10-32 13 15z"/><path class="cls-4" d="M326 601.7l8.5 30v-10L329 605l-3-3.3z"/><path class="cls-43" d="M334.5 625.3L326 596l33-2v9l-24 4.4-.5 18z"/><path class="cls-42" d="M379 600l32-5-16-9.7-16 14.7zM299 666.5s12.3 12.5 24 13.7c0 0-18 19.8-12.2 43 0 0-27.4-2.4-33-12.4 0 0 7.5-32.7 21.2-44.3z"/><path class="cls-3" d="M394 562.6c1 2.4 17 6.4 17 6.4l-4 4.5-15-1.5z"/><path class="cls-44" d="M198 554l6.2 119.8-4.6 92.2h18.2l11.8-96.7 10-80 7.3 80-3.7 90.7h14.5l6.3-210.5-66 4.5z"/><path class="cls-23" d="M197 548.6l68-4.7-.2 7.8-67.4 5.2-.4-8.4z"/><path class="cls-45" d="M287.2 375c-1 0-15.2 6.3-7.4 33 2.8 9.8 14.4 11 18.7 2a30.3 30.3 0 0 0 2-6s4.8-30.4-13.3-29z"/><path class="cls-25" d="M287 379s12.2 2.7 10 13.5c0 0-.3-8.4-10-13.6zM296.8 396a27.4 27.4 0 0 1-1 6.8c-1 2.7 2.2-2.6 1-6.8z"/><path class="cls-19" d="M417.5 404.5a81.7 81.7 0 0 1 8.3-6.5 68.2 68.2 0 0 1 9.2-5.3c3.2-1.4 6.6-2.8 10.3-3a9 9 0 0 1 5.2 1.4 7.7 7.7 0 0 1 3 4.5 7.8 7.8 0 0 0-3.3-4 8.4 8.4 0 0 0-5-1 20.7 20.7 0 0 0-5 1.2 42.6 42.6 0 0 0-4.7 2 94.7 94.7 0 0 0-9.2 5l-4.4 3-4.5 2.8z"/><path class="cls-4" d="M447.5 396.5s1-4-14 3c0 0-6 4 2 4s14-4 12-7zM447 368s-1 2 1 6 0-6-1-6z"/><path class="cls-16" d="M381 345s13-3 19 7a23.7 23.7 0 0 0-19-7z"/><path class="cls-46" d="M646 503.6l-1 42.4-18-2 1.6-39.6z"/><circle class="cls-46" cx="637.5" cy="508.5" r="13.5"/><path class="cls-4" d="M651 508.5a13.5 13.5 0 0 1-27 0 13.2 13.2 0 0 1 1-5 11.5 11.5 0 0 0 0 1.3 12.6 12.6 0 1 0 25 0 11.5 11.5 0 0 0 0-1.4 13.2 13.2 0 0 1 1 5z"/><path class="cls-47" d="M651 507a14.5 14.5 0 0 0-27 0 13.5 13.5 0 0 1 27 0z"/><path class="cls-3" d="M551 358l11-11-4-6-8 9 1 8z"/><path d="M632 539l8 1-2-6h-4l-2 5z"/><circle cx="636" cy="531" r="4"/><path class="cls-36" d="M192 359l-2-12h6l16 12h-20z"/><path class="cls-39" d="M212 359l10.7-3-14.7-11-12 2 16 12z"/><path class="cls-36" d="M208 345h-10l-8 2h6l12-2z"/><path class="cls-35" d="M178 377c0-1 27-15 48 2v7s-20-13-47-3z"/><circle class="cls-35" cx="179.5" cy="379.5" r="4.5" transform="rotate(-82.48 179.516 379.516)"/><path class="cls-4" d="M231.6 472.5l15.6-.5a1.8 1.8 0 0 1 2 1.7l2 24a1.8 1.8 0 0 1-1.6 2l-16.7 1a1.8 1.8 0 0 1-2-1.6l-1.2-24.6a1.8 1.8 0 0 1 1.8-2z"/><circle class="cls-35" cx="226.5" cy="382.5" r="4.5" transform="rotate(-82.48 226.517 382.512)"/><path class="cls-15" d="M225 780l-11 11h3.6l11.4-12-4 1zM232 779l-11 12h3.6l11.4-12h-4zM238 779l-11 12h3.6l11.4-12h-4z"/><path class="cls-4" d="M191 455l2-8 12.3 98.5-6.3.5-8-91z"/><path class="cls-25" d="M231.8 471.7l15.5-2.4a1.8 1.8 0 0 1 2 1.4l5.3 23.5a1.8 1.8 0 0 1-1.5 2.2l-16.2 3.3a1.8 1.8 0 0 1-2.2-1.5l-4.3-24.4a1.8 1.8 0 0 1 1.5-2z"/><path d="M240.4 478.2l-2 .4a.3.3 0 0 1-.3-.3v-.7a.3.3 0 0 1 .2-.4l5.3-1a.3.3 0 0 1 .3.3l.3 1.5a1.7 1.7 0 0 1 0 1.4 1.8 1.8 0 0 1-1.3.7 2 2 0 0 1-1.5 0 1.7 1.7 0 0 1-.7-1.3zm1.3-.3v.4a.4.4 0 0 0 .4.3.6.6 0 0 0 .4 0 .5.5 0 0 0 .3-.2.4.4 0 0 0 0-.3v-.5zM241.7 483.7l-2 1.7h-.3v-1a.4.4 0 0 1 0-.5l1.8-1.6v-.2l-2 .4a.3.3 0 0 1-.3-.2l-.3-.8a.3.3 0 0 1 .3-.4l5.3-1a.3.3 0 0 1 .3.3l.3 1.7a1.8 1.8 0 0 1-.4 1.3 2 2 0 0 1-1.2.8 1.8 1.8 0 0 1-1.7-.6zm.8-1.7v.5a.5.5 0 0 0 .3.4.5.5 0 0 0 .4 0 .5.5 0 0 0 .3-.3.5.5 0 0 0 0-.4v-.5zM243.5 486.5l.3 1.8a.3.3 0 0 1-.2.3h-.8a.3.3 0 0 1-.3 0l-.4-1.8-.8.2.3 1.7a.3.3 0 0 1-.2.3l-.8.2a.3.3 0 0 1-.3-.2l-.6-2.8a.3.3 0 0 1 .3-.4l5.2-1a.3.3 0 0 1 .3.3l.5 2.8a.3.3 0 0 1-.2.4h-.8a.3.3 0 0 1-.3 0l-.3-1.8zM241.7 489.8l.3.6a.4.4 0 0 1 0 .4.6.6 0 0 0 0 .4.5.5 0 0 0 0 .3.4.4 0 0 0 .4 0 .5.5 0 0 0 .4-.3 3 3 0 0 0 .2-.4 2 2 0 0 1 1.5-1.8 1.8 1.8 0 0 1 1.4.2 1.7 1.7 0 0 1 .6 1.2 1.7 1.7 0 0 1-.3 1.3c0 .2-.3.3-.3.3a.3.3 0 0 1-.3 0l-.5-.8a.3.3 0 0 1 0-.3.4.4 0 0 0 0-.4.3.3 0 0 0-.2-.2.4.4 0 0 0-.3 0 .4.4 0 0 0-.3.2 4.3 4.3 0 0 0 0 .5v.2a3.6 3.6 0 0 1-.5 1 1.7 1.7 0 0 1-1.3.7 1.8 1.8 0 0 1-1.4-.3 1.7 1.7 0 0 1-.7-1 1.7 1.7 0 0 1 .4-1.7.8.8 0 0 1 .4-.3.3.3 0 0 1 .3 0zM242.4 493.7l.4.5a.4.4 0 0 1 0 .2.4.4 0 0 1 0 .2.6.6 0 0 0 0 .5.5.5 0 0 0 0 .4.4.4 0 0 0 .4 0 .5.5 0 0 0 .4-.3 3 3 0 0 0 0-.4 2 2 0 0 1 1.6-1.8 1.8 1.8 0 0 1 1.4.3 1.7 1.7 0 0 1 .7 1.2 1.7 1.7 0 0 1-.2 1.4c0 .2-.2.3-.3.3a.3.3 0 0 1-.3-.3l-.5-.6a.3.3 0 0 1 0-.3.3.3 0 0 0 0-.2.3.3 0 0 0-.3-.3.4.4 0 0 0-.2 0 .4.4 0 0 0-.3.3 4.3 4.3 0 0 0-.2.4 3.5 3.5 0 0 1-.4 1 1.7 1.7 0 0 1-1 .8 1.8 1.8 0 0 1-1.5-.3 1.7 1.7 0 0 1-.6-1 1.7 1.7 0 0 1 .4-1.6.8.8 0 0 1 .3-.4.3.3 0 0 1 .4 0z"/><path class="cls-33" d="M250 473.4l-19.3 2.4-.3-2a1.8 1.8 0 0 1 1.4-2l15.6-2.6a1.8 1.8 0 0 1 2 1.5z"/><circle class="cls-32" cx="240" cy="474" r="2"/><path class="cls-48 cls-49" d="M301.4 49h151.8v204H301.4z"/><path class="cls-50" d="M227.3 138.2l2.2-8.8a1 1 0 0 1 1-.8h3q.8 0 .8.7a1.5 1.5 0 0 1 0 .3l-5 18.4a1 1 0 0 1-1 .8h-2a1 1 0 0 1-1-.8l-2.3-8.7-2.2 8.7a1 1 0 0 1-1 1h-2a1 1 0 0 1-1-1l-5-18.4a1.7 1.7 0 0 1 0-.4q0-.6.7-.6h3a1 1 0 0 1 1 1l2.2 8.6 2.2-8.8a1 1 0 0 1 1-.8h2a1 1 0 0 1 1 1zM240.8 136.3h6a.8.8 0 0 1 1 1v2.7a.8.8 0 0 1-1 1h-6v3.2h6a.8.8 0 0 1 1 1v2.7a.8.8 0 0 1-1 1h-9.6a.8.8 0 0 1-1-1v-18.4a.8.8 0 0 1 1-1h9.6a.8.8 0 0 1 1 1v2.7a.8.8 0 0 1-1 1h-6zM251 129l1.8.5q.8.2.7.8a1.6 1.6 0 0 1 0 .4l-1 3.4q0 .8-.6.8h-.4l-1.3-.2q-.7 0-.7-.8a1.6 1.6 0 0 1 0-.2l.3-3.6q0-1 .6-1a2 2 0 0 1 .4 0zM265.6 140.5l4.2 7.4a1 1 0 0 1 0 .3q0 .5-.5.5H266a1.3 1.3 0 0 1-1.3-.7l-3.7-7h-.7v6.8a.8.8 0 0 1-1 1h-2.7a.8.8 0 0 1-1-1v-18.2a.8.8 0 0 1 1-1h5.7a6 6 0 0 1 4.5 1.8 6.3 6.3 0 0 1 1.8 4.6 6.2 6.2 0 0 1-3 5.5zm-5.3-3.8h2a1.7 1.7 0 0 0 1.2-.5 1.7 1.7 0 0 0 .4-1.3 1.6 1.6 0 0 0-.5-1.2 1.7 1.7 0 0 0-1.3-.5h-2zM276.4 136.3h6a.8.8 0 0 1 1 1v2.7a.8.8 0 0 1-1 1h-6v3.2h6a.8.8 0 0 1 1 1v2.7a.8.8 0 0 1-1 1h-9.6a.8.8 0 0 1-1-1v-18.4a.8.8 0 0 1 1-1h9.6a.8.8 0 0 1 1 1v2.7a.8.8 0 0 1-1 1h-6zM294.7 144.5l2-1a1.4 1.4 0 0 1 .5 0 1.3 1.3 0 0 1 .8.4 2 2 0 0 0 1.5.4 1.6 1.6 0 0 0 1-.4 1.4 1.4 0 0 0 .5-1 1.8 1.8 0 0 0-1-1.6 11 11 0 0 0-1.4-.7q-5-2-5-6.2a6 6 0 0 1 1.7-4.4 6.2 6.2 0 0 1 8.6.2 2.3 2.3 0 0 1 .7 1.4q0 .5-.7.8l-2.5 1.2a1.4 1.4 0 0 1-.5 0 1 1 0 0 1-.6 0 1.2 1.2 0 0 0-1-.5 1 1 0 0 0-1 .7 1.4 1.4 0 0 0-.2.8 1.4 1.4 0 0 0 .7 1 13.2 13.2 0 0 0 1.3.8l.4.2a12 12 0 0 1 3.3 2 5.7 5.7 0 0 1 1.6 4.3 6.2 6.2 0 0 1-1.8 4.6 5.7 5.7 0 0 1-4.2 1.7 5.8 5.8 0 0 1-5-2.3 3 3 0 0 1-.6-1.4q0-.5.7-.8zM312.6 136.3h6a.8.8 0 0 1 1 1v2.7a.8.8 0 0 1-1 1h-6v3.2h6a.8.8 0 0 1 1 1v2.7a.8.8 0 0 1-1 1H309a.8.8 0 0 1-1-1v-18.4a.8.8 0 0 1 1-1h9.5a.8.8 0 0 1 1 1v2.7a.8.8 0 0 1-1 1h-6zM326.6 137.4V148a.8.8 0 0 1-1 1H323a.8.8 0 0 1-1-1v-18.4a.8.8 0 0 1 1-1h2.7a1.4 1.4 0 0 1 1.4.7l6.6 11v-10.7a.8.8 0 0 1 1-1h2.7a.8.8 0 0 1 1 1V148a.8.8 0 0 1-1 1h-2.7a1.4 1.4 0 0 1-1.3-1zM340.8 148v-18.4a.8.8 0 0 1 1-1h5.8a10 10 0 0 1 0 20.2h-5.8a.8.8 0 0 1-1-1zm4.7-3.8h2a5.3 5.3 0 0 0 4-1.5 5.4 5.4 0 0 0 1.6-4 5.3 5.3 0 0 0-1.5-4 5 5 0 0 0-3.8-1.5h-2.2zM361 128.6h2.6a.8.8 0 0 1 1 1V148a.8.8 0 0 1-1 1H361a.8.8 0 0 1-1-1v-18.4a.8.8 0 0 1 1-1zM371.7 137.4V148a.8.8 0 0 1-1 1H368a.8.8 0 0 1-1-1v-18.4a.8.8 0 0 1 1-1h2.7a1.4 1.4 0 0 1 1.4.7l6.6 11v-10.7a.8.8 0 0 1 1-1h2.7a.8.8 0 0 1 1 1V148a.8.8 0 0 1-1 1h-2.7a1.4 1.4 0 0 1-1.3-1zM398.8 142h-3.2a.8.8 0 0 1-1-1v-2.4a.8.8 0 0 1 1-1h7a.8.8 0 0 1 1 1v5a3.3 3.3 0 0 1-.5 2 8.4 8.4 0 0 1-2 1.8 9.5 9.5 0 0 1-5.3 1.7 9.8 9.8 0 0 1-7.2-3 10.5 10.5 0 0 1 0-14.7 9.8 9.8 0 0 1 7.2-3 10.7 10.7 0 0 1 4.8 1.2q1.3.6 1.3 1.2a1 1 0 0 1-.3.7l-1.6 2a1 1 0 0 1-1 .6 1 1 0 0 1-.4-.2 6 6 0 0 0-3-.8 5.2 5.2 0 0 0-3.8 1.6 5.6 5.6 0 0 0-1.7 4 5.5 5.5 0 0 0 1.8 4 5.4 5.4 0 0 0 4 1.7 3.8 3.8 0 0 0 3-1zM420 145.3l-1 2.8a1.2 1.2 0 0 1-1.3.8h-3q-.8 0-.8-.5a1 1 0 0 1 0-.4l7.4-18.7a1 1 0 0 1 1.2-.7h1.6a1 1 0 0 1 1.2.7l7.4 18.6a1 1 0 0 1 0 .3q0 .5-.7.5h-3a1.2 1.2 0 0 1-1-.7l-1.3-2.7zm3.4-8.3l-1.5 4h3zM454 137.6a6.4 6.4 0 0 1 2 4.8 6.3 6.3 0 0 1-1.7 4.5 6 6 0 0 1-4.5 2h-5.4a.8.8 0 0 1-1-1v-18.4a.8.8 0 0 1 1-1h5.2a5.2 5.2 0 0 1 3.7 1.6 5.6 5.6 0 0 1 1.7 4 6.7 6.7 0 0 1-1 3.4zm-6-1.5h1.3a1.2 1.2 0 0 0 1-.3 1.3 1.3 0 0 0 .2-1 1.4 1.4 0 0 0-.4-1 1.3 1.3 0 0 0-1-.4h-1zm0 8.2h1.7a1.6 1.6 0 0 0 1.2-.5 2 2 0 0 0 .5-1.4 2 2 0 0 0-.6-1.5 1.7 1.7 0 0 0-1.3-.5H448zM463.8 145.3l-1.2 2.8a1.2 1.2 0 0 1-1.2.8h-3q-.8 0-.8-.5a1 1 0 0 1 0-.4l7.5-18.7a1 1 0 0 1 1.3-.7h1.6a1 1 0 0 1 1 .7l7.5 18.6a1 1 0 0 1 0 .3q0 .5-.7.5h-3a1.2 1.2 0 0 1-1.2-.7l-1.2-2.7zm3.3-8.3l-1.4 4h3zM480 128.6h2.7a.8.8 0 0 1 1 1V148a.8.8 0 0 1-1 1H480a.8.8 0 0 1-1-1v-18.4a.8.8 0 0 1 1-1zM490.8 144.2h5.2a.8.8 0 0 1 1 1v2.7a.8.8 0 0 1-1 1h-8.8a.8.8 0 0 1-1-1v-18.4a.8.8 0 0 1 1-1h2.6a.8.8 0 0 1 1 1zM500 128.6h2.6a.8.8 0 0 1 1 1V148a.8.8 0 0 1-1 1H500a.8.8 0 0 1-1-1v-18.4a.8.8 0 0 1 1-1zM510.7 141v7a.8.8 0 0 1-1 1H507a.8.8 0 0 1-1-1v-18.4a.8.8 0 0 1 1-1h9.7a.8.8 0 0 1 1 1v2.7a.8.8 0 0 1-1 1h-6v3h6a.8.8 0 0 1 1 1v2.7a.8.8 0 0 1-1 1zM524 141v7a.8.8 0 0 1-1 1h-2.6a.8.8 0 0 1-1-1v-18.4a.8.8 0 0 1 1-1h9.7a.8.8 0 0 1 1 1v2.7a.8.8 0 0 1-1 1h-6v3h6a.8.8 0 0 1 1 1v2.7a.8.8 0 0 1-1 1zM539 138v1.4q0 1-1 1h-.8a.8.8 0 0 1-1-1l.2-1.4-1 1a.7.7 0 0 1-1.3 0l-.4-.5a1 1 0 0 1-.3-.6 1 1 0 0 1 .3-.7l1-1h-1.4a.8.8 0 0 1-1-1v-.5a.8.8 0 0 1 1-1h1.5l-1-1a1 1 0 0 1-.4-.5 1 1 0 0 1 .3-.6l.5-.6a1 1 0 0 1 .8-.2 1 1 0 0 1 .6.3l1 1v-1.5q0-.7.7-.7h1q1 0 1 1v1.3l.8-1a1 1 0 0 1 .7-.3 1 1 0 0 1 .6.4l.6.6a.8.8 0 0 1 0 1.2l-1 1h1.4q1 0 1 .8v.8a.7.7 0 0 1-1 .8h-1.4l1 1a.7.7 0 0 1 0 1.3l-.6.5a1 1 0 0 1-.6.3.8.8 0 0 1-.6-.3zM452.6 166v.6q0 .4-.4.4h-.3a.3.3 0 0 1-.5-.4v-.6l-.5.5a.4.4 0 0 1-.2 0 .4.4 0 0 1-.3 0l-.3-.3a.4.4 0 0 1 0-.2.4.4 0 0 1 0-.3l.5-.5h-.6a.3.3 0 0 1-.3-.3v-.4a.3.3 0 0 1 .4-.4h.7l-.5-.5a.4.4 0 0 1 0-.2.4.4 0 0 1 0-.3l.3-.3a.4.4 0 0 1 .2-.2.4.4 0 0 1 .3.2l.5.4v-.6q0-.4.4-.4h.2q.4 0 .4.4v.6l.4-.4a.4.4 0 0 1 .3 0 .4.4 0 0 1 .3 0l.2.2a.3.3 0 0 1 0 .6l-.5.4h.6q.3 0 .3.4v.4a.3.3 0 0 1-.3.3h-.7l.5.5a.3.3 0 0 1 0 .5l-.3.3a.4.4 0 0 1-.2 0 .4.4 0 0 1-.3 0zM455.3 170.4v-8a.4.4 0 0 1 .4-.6h2.6a4.5 4.5 0 0 1 0 9h-2.6a.4.4 0 0 1-.4-.4zm2-1.6h1a2.4 2.4 0 0 0 1.8-.7 2.4 2.4 0 0 0 .8-1.7 2.4 2.4 0 0 0-.7-1.7 2.3 2.3 0 0 0-1.6-.7h-1zM466 165.3h2.5a.4.4 0 0 1 .5.4v1.2a.4.4 0 0 1-.5.4H466v1.4h2.5a.4.4 0 0 1 .5.4v1.2a.4.4 0 0 1-.5.5h-4.3a.4.4 0 0 1-.4-.6v-8a.4.4 0 0 1 .4-.5h4.3a.4.4 0 0 1 .5.3v1.2a.4.4 0 0 1-.5.4H466zM476 162.3v6a2.5 2.5 0 0 1-1 2 3.3 3.3 0 0 1-4.3-.3 2.4 2.4 0 0 1-.7-1.7v-6a.4.4 0 0 1 .4-.5h1.2a.4.4 0 0 1 .5.5v5.7a.8.8 0 0 0 .4.6 1 1 0 0 0 .7.3 1 1 0 0 0 .7-.4.8.8 0 0 0 .3-.6v-5.7a.4.4 0 0 1 .4-.5h1.2a.4.4 0 0 1 .5.5zM481.6 167l2 3.4a.4.4 0 0 1 0 .2q0 .3-.4.3H482a.6.6 0 0 1-.6-.5l-1.6-3h-.3v3a.4.4 0 0 1-.5.4h-1.2a.4.4 0 0 1-.4-.6v-8a.4.4 0 0 1 .4-.5h2.6a2.7 2.7 0 0 1 2 .6 2.8 2.8 0 0 1 .8 2 2.7 2.7 0 0 1-1.4 2.5zm-2.3-1.6h.8a.7.7 0 0 0 .7-.2.8.8 0 0 0 .2-.5.7.7 0 0 0-.3-.6.8.8 0 0 0-.6 0h-.7zM490.6 166l1-3.8a.4.4 0 0 1 .5-.3h1.4q.4-.2.4 0a.7.7 0 0 1 0 .3l-2.2 8.2a.4.4 0 0 1-.5.4h-.8a.4.4 0 0 1-.4-.5l-1-4-1 4a.4.4 0 0 1-.5.4h-1a.4.4 0 0 1-.4-.5l-2.2-8.2a.8.8 0 0 1 0-.2h1.7a.4.4 0 0 1 .5.2l1 4 1-4a.4.4 0 0 1 .4-.3h1a.4.4 0 0 1 .4.2zM496.4 169.3l-.5 1.2a.5.5 0 0 1-.6.4H494q-.3 0-.3-.4a.5.5 0 0 1 0-.2l3.3-8.2a.5.5 0 0 1 .5-.4h.7a.5.5 0 0 1 .6.4l3.2 8.2a.4.4 0 0 1 0 .2q0 .3-.3.3h-1.3a.5.5 0 0 1-.6-.5l-.5-1.2zm1.5-3.7l-.8 1.7h1.4zM505.7 169.3l-.5 1.2a.5.5 0 0 1-.6.4h-1.4q-.3 0-.3-.4a.5.5 0 0 1 0-.2l3.2-8.2a.5.5 0 0 1 .5-.4h.8a.5.5 0 0 1 .5.4l3.3 8.2a.4.4 0 0 1 0 .2q0 .3-.4.3h-1.4a.5.5 0 0 1-.5-.5l-.5-1.2zm1.4-3.7l-.6 1.7h1.4zM516.8 167l2 3.4a.4.4 0 0 1 0 .2q0 .3-.3.3H517a.6.6 0 0 1-.6-.5l-1.6-3h-.3v3a.4.4 0 0 1-.5.4h-1.2a.4.4 0 0 1-.4-.6v-8a.4.4 0 0 1 .4-.5h2.6a2.7 2.7 0 0 1 2 .6 2.8 2.8 0 0 1 .8 2 2.7 2.7 0 0 1-1.4 2.5zm-2.3-1.6h.8a.7.7 0 0 0 .6-.2.8.8 0 0 0 0-.5.7.7 0 0 0 0-.6.8.8 0 0 0-.7 0h-.8zM519.6 170.4v-8a.4.4 0 0 1 .4-.6h2.6a4.5 4.5 0 0 1 0 9H520a.4.4 0 0 1-.4-.4zm2-1.6h1a2.4 2.4 0 0 0 1.7-.7 2.4 2.4 0 0 0 .7-1.7 2.4 2.4 0 0 0-.7-1.7 2.3 2.3 0 0 0-1.6-.7h-1zM530 165.3h2.8a.4.4 0 0 1 .4.4v1.2a.4.4 0 0 1-.4.4H530v1.4h2.8a.4.4 0 0 1 .4.4v1.2a.4.4 0 0 1-.4.5h-4.3a.4.4 0 0 1-.4-.6v-8a.4.4 0 0 1 .5-.5h4.3a.4.4 0 0 1 .4.3v1.2a.4.4 0 0 1-.4.4H530zM538.7 167l2 3.4a.4.4 0 0 1 0 .2q0 .3-.3.3H539a.6.6 0 0 1-.6-.5l-1.7-3h-.3v3a.4.4 0 0 1-.5.4h-1.3a.4.4 0 0 1-.4-.6v-8a.4.4 0 0 1 .4-.5h2.6a2.7 2.7 0 0 1 2 .6 2.8 2.8 0 0 1 .8 2 2.7 2.7 0 0 1-1.3 2.5zm-2.3-1.6h.8a.7.7 0 0 0 .6-.2.8.8 0 0 0 .2-.5.7.7 0 0 0-.2-.6.8.8 0 0 0-.6 0h-.8z"/><path class="cls-7" d="M293.8 94.3v16.2a1 1 0 0 1-1 1h-3a1 1 0 0 1-1.2-1V94.3H285a1 1 0 0 1-1-1v-3a1 1 0 0 1 1-1h12.5a1 1 0 0 1 1 1v3a1 1 0 0 1-1 1zM305.6 103v7.6a1 1 0 0 1-1 1h-3a1 1 0 0 1-1.2-1V90.3a1 1 0 0 1 1-1h3a1 1 0 0 1 1.2 1v7.5h6.2v-7.5a1 1 0 0 1 1-1h3a1 1 0 0 1 1.2 1v20.3a1 1 0 0 1-1 1h-3a1 1 0 0 1-1.2-1V103zM320.5 89.2h3a1 1 0 0 1 1 1v20.4a1 1 0 0 1-1 1h-3a1 1 0 0 1-1-1V90.3a1 1 0 0 1 1-1zM328 106.8l2.2-1a1.6 1.6 0 0 1 .6 0 1.4 1.4 0 0 1 .8.3 2.4 2.4 0 0 0 1.7.7 1.7 1.7 0 0 0 1.2-.4 1.5 1.5 0 0 0 .4-1 2 2 0 0 0-1-2 12.2 12.2 0 0 0-1.7-.7q-5.6-2.2-5.6-6.8a6.6 6.6 0 0 1 2-5 6.4 6.4 0 0 1 4.7-1.8 6.5 6.5 0 0 1 4.8 2 2.6 2.6 0 0 1 1 1.5q0 .6-.8 1l-3 1.2a1.6 1.6 0 0 1-.5.2 1 1 0 0 1-.7-.4 1.4 1.4 0 0 0-1-.3 1.3 1.3 0 0 0-1 .5 1.5 1.5 0 0 0-.4 1 1.6 1.6 0 0 0 .7 1.2 14.6 14.6 0 0 0 1.5.8l.4.2a13.3 13.3 0 0 1 3.7 2.3 6.4 6.4 0 0 1 1.7 4.7 7 7 0 0 1-2 5 6.3 6.3 0 0 1-4.6 2 6.5 6.5 0 0 1-5.5-2.6 3.2 3.2 0 0 1-1-1.6q.2-.6 1-1zM357.5 107.7l-1.4 3a1.3 1.3 0 0 1-1.2 1h-3.4q-.8 0-.8-.7a1.3 1.3 0 0 1 0-.4L359 90a1.3 1.3 0 0 1 1.2-1h2a1.3 1.3 0 0 1 1.2 1l8 20.6a1 1 0 0 1 .2.4q0 .7-.8.7h-3.3a1.3 1.3 0 0 1-1.4-1l-1.2-3zm3.6-9.2l-1.6 4.3h3.4zM388.6 90.3v15a6.2 6.2 0 0 1-2.8 5 8.3 8.3 0 0 1-10.5-.7 6 6 0 0 1-2-4.4v-15a1 1 0 0 1 1.2-1h3a1 1 0 0 1 1 1v14.4a2 2 0 0 0 1 1.6 2.7 2.7 0 0 0 1.6.5 2.3 2.3 0 0 0 1.7-.6 2 2 0 0 0 .7-1.3V90.3a1 1 0 0 1 1-1h3a1 1 0 0 1 1.2 1zM400.2 94.3v16.2a1 1 0 0 1-1 1h-3a1 1 0 0 1-1.2-1V94.3h-3.6a1 1 0 0 1-1-1v-3a1 1 0 0 1 1-1H404a1 1 0 0 1 1 1v3a1 1 0 0 1-1 1zM421.8 90.3v15a6.2 6.2 0 0 1-2.8 5 8.3 8.3 0 0 1-10.5-.7 6 6 0 0 1-2-4.4v-15a1 1 0 0 1 1.2-1h3a1 1 0 0 1 1 1v14.4a2 2 0 0 0 1 1.6 2.7 2.7 0 0 0 1.6.5 2.3 2.3 0 0 0 1.6-.6 2 2 0 0 0 .6-1.3V90.3a1 1 0 0 1 1-1h3a1 1 0 0 1 1.2 1zM429.5 99.3v11.3a1 1 0 0 1-1 1h-3.2a1 1 0 0 1-1-1V90.3a1 1 0 0 1 1-1h4.2a1.2 1.2 0 0 1 1.3.8l4.6 13.3 4.8-13.3a1.2 1.2 0 0 1 1.3-1h4.3a1 1 0 0 1 1 1.2v20.3a1 1 0 0 1-1 1h-3a1 1 0 0 1-1-1V99.3l-4 11.5a1.2 1.2 0 0 1-1.4 1h-2a1 1 0 0 1-1.3-1zM454.5 99v11.6a1 1 0 0 1-1 1h-3a1 1 0 0 1-1.2-1V90.3a1 1 0 0 1 1-1h3a1.6 1.6 0 0 1 1.7.7l7.2 12V90.3a1 1 0 0 1 1-1h3a1 1 0 0 1 1.2 1v20.3a1 1 0 0 1-1 1h-3a1.6 1.6 0 0 1-1.5-.8z"/></svg>