<svg id="Layer_1" data-name="Layer 1" xmlns="http://www.w3.org/2000/svg" viewBox="0 0 223 220"><defs><style>.cls-1{fill:#596628;}.cls-2{fill:#2b2f47;opacity:0.04;}.cls-3{fill:#e5b798;}.cls-4{fill:#513a2a;}.cls-5{fill:#000102;opacity:0.09;}.cls-6{fill:#1e0000;}.cls-7{fill:#d88344;}.cls-8{fill:#543d2d;}.cls-9{clip-path:url(#clip-path);}.cls-10{opacity:0.35;}.cls-11{fill:#3b5972;stroke:#fff;stroke-miterlimit:10;stroke-width:0.5px;}.cls-12{fill:#efefef;}.cls-13{fill:#d85555;}.cls-14{fill:#fff;}.cls-15{fill:#4f2f22;}.cls-16{fill:#c1a046;}</style><clipPath id="clip-path"><path class="cls-1" d="M155 158.9v.1l-1 7v21l-3 12 .8 13-72.06-.1h-4.92L68 182l-16 8.14v-39.3L83 140l26 13 18-13 21-5v.15c7.07-2.3 35.74 15.85 7 23.74z"/></clipPath></defs><rect class="cls-2" y="41" width="223" height="171" rx="2" ry="2"/><path class="cls-3" d="M128 103.75c-5.8 13.92 4.64 32.48 4.64 32.48L115.28 179 81.6 136.23s12.77-32.48 10.4-32.48"/><path class="cls-4" d="M84.32 54.3s-5.14 2.06-7.2-5.14a5 5 0 0 0 4.1 0S72 45 73 31.68a17.66 17.66 0 0 1 7.2-13.38s6.17-2.06 4.1-6.17c0 0 5.15 0 4.12 4.1 0 0 6.17-10.28 17.5-9.25 0 0 3.08 3.1 7.2 0 0 0 1 0 0 2.06S118.25 6 124.4 7c0 0-4.1 1-1 4.1 0 0 6.18 3.1 8.24-2.05 0 0 9.26 4.1 8.23 18.5 0 0 1-3.08 5.13-3.08 0 0-6.17 6.17-3.1 13.37 0 0 5.15 5.14 0 11.3z"/><path class="cls-5" d="M93.33 102.6L88.46 118s26.16 10.7 38.07.35l-.84-11.5z"/><path class="cls-3" d="M85.13 39.75s-10 45.4 2 62.27 36.5 14.43 47 1.82c5.77-6.92 5.6-29.42 4.26-48.34-.24-3.26-.5-6.42-.78-9.36C135.88 27.57 116 16 99.34 24.3c-5.42 2.7-10.44 7.5-14.2 15.45z"/><path class="cls-5" d="M122 83.46s-15.62-5.14-11.44-18.76z"/><ellipse class="cls-6" cx="96.65" cy="53.61" rx="4.06" ry="2.32" transform="rotate(-84.07 96.65 53.61)"/><ellipse class="cls-6" cx="125.65" cy="52.61" rx="2.32" ry="4.06"/><path class="cls-7" d="M110.38 52.54c.37 1.6 15.83 29.6 15 28.73a8.7 8.7 0 0 0-3-.4A15.68 15.68 0 0 1 108 60.95z"/><path class="cls-4" d="M103.6 42.3a16.56 16.56 0 0 1-2.14 1c-.7.25-1.4.56-2.1.8-1.37.5-2.7 1-3.94 1.52a11.84 11.84 0 0 0-3.24 2 6 6 0 0 0-1.74 3.62 4.55 4.55 0 0 1-.82-2.37 5.06 5.06 0 0 1 .64-2.63 8.28 8.28 0 0 1 3.94-3.35 14.07 14.07 0 0 1 4.7-1.1 13.88 13.88 0 0 1 4.7.5zM120.27 42.3a13.88 13.88 0 0 1 4.7-.52 14.07 14.07 0 0 1 4.7 1.08 8.28 8.28 0 0 1 3.94 3.35 5.06 5.06 0 0 1 .65 2.64 4.55 4.55 0 0 1-.82 2.37 6 6 0 0 0-1.74-3.6 11.84 11.84 0 0 0-3.25-2c-1.25-.53-2.57-1-3.95-1.53-.7-.23-1.38-.54-2.1-.8a16.56 16.56 0 0 1-2.13-.98z"/><path class="cls-8" d="M96.4 95.06a32.2 32.2 0 0 0 3.6 1.14q1.83.5 3.7.82a42.62 42.62 0 0 0 7.5.72c1.25.06 2.5 0 3.76-.08s2.5-.23 3.74-.47a44.17 44.17 0 0 0 7.3-1.9 36.1 36.1 0 0 1-11 2.8c-1.27.06-2.54.18-3.8.13a39.5 39.5 0 0 1-7.58-.84 33.73 33.73 0 0 1-7.22-2.34z"/><path class="cls-3" d="M82.7 52.34s-10.13-6.63-11.08 8.82c0 0 1.73 8.46 7.83 9.3s3.25-18.12 3.25-18.12z"/><path class="cls-5" d="M79.5 55s-4.13-2.43-5 4.57a2.54 2.54 0 0 0 3 2.1s1.9 1.77-.67 2.22c.02 0 5.05 7.55 2.66-8.9z"/><path class="cls-3" d="M138 49.5s11.66-7.6 12.74 10.15c0 0-2 9.73-9 10.7S138 49.52 138 49.52z"/><path class="cls-5" d="M141.65 52.6s4.74-2.8 5.73 5.25a2.92 2.92 0 0 1-3.46 2.4s-2.18 2 .76 2.57c0 0-5.78 8.67-3.03-10.23zM83 53l2-14s6.53-13.5 16.77-15.75a26.54 26.54 0 0 1 29.16 7.47S138 37 138 49c0 0-3-9-5-12 0 0-29-30-50 16zM102 101s10 3 13 1c0 0-7 7-13-1z"/><path class="cls-1" d="M40.47 176.83L26.33 189.5l4.05 22.5 10 5.13 16.5-4.9-16.4-35.4zM177.22 176.83l14.13 12.66-4.72 23.5-10.56 3.3-15.27-4.08 16.42-35.4zM155 158.9v.1l-1 7v21l-3 12 .8 13-72.06-.1h-4.92L68 182l-16 8.14v-39.3L83 140l26 13 18-13 21-5v.15c7.07-2.3 35.74 15.85 7 23.74z"/><g class="cls-9"><g class="cls-10"><path class="cls-11" d="M103 99.2L100 336M97 95l-3 236.82M89 95l-3 236.82M84 95l-3 236.82M79 95l-3 236.82M72 95l-3 236.82"/></g><g class="cls-10"><path class="cls-11" d="M155 47l-3 238.8M150 47l-3 238.8M145 47l-3 238.8M138 47l-3 238.8M131 47l-3 238.8M124 47l-3 238.8M117 47l-3 238.8M110 47l-3 238.8M242.27 134.76l-76.63 21.34M228.82 133.5l-74.6 20.54M248.5 136.5l-95.04 28.1M249.63 139.94l-83.35 26.1M251.8 145.53l-83.34 26.1M254 151.12l-83.36 26.1M215.54 93.15l-66.35 29.12M213.36 87.57L147 116.67M217.72 98.74l-66.35 29.12M225.07 125.17l-71.95 19.95M202.54 95.15l-66.35 29.12M200.36 89.57L134 118.67M204.72 100.74l-66.35 29.12M219.9 79.33l-66.35 29.12M224.1 120.92l-70.54 18.96M226.77 129.78l-72.56 19.76M71.23 159.36L-16.9 258.4M71.52 149.75l-91.57 103.1M71 168.87l-84.97 95.34M70.65 178.56L-2 259.4M35.57 147.26l-73.38 81.7M40.15 151.15l-73.4 81.7M51.8 146.7l-80.47 90.03M65 140.45L-25.6 242.4M68.92 145.1l-91.37 102.84"/></g></g><path class="cls-12" d="M139 137l-13 17-7.22 58H112l-13-36v-12l-24.32-21.83-.18-.16 4.25-.88 4.4-.93.85-.2 24 13 18-13 13-3z"/><path class="cls-13" d="M107.75 158.35l-1.62 3.54L108 165h6l2-5-6-7.7-2.25 6.05z"/><path class="cls-13" d="M116 170v42h-3.83c-1-6.87-2.43-14.17-3.65-23.2C107.12 178.6 106 170 106 170l3-6h4z"/><path class="cls-1" d="M113.9 212h-3.77L90 171l8-7H87L67.35 144.1l7.33-1.9 4.07-1.06 4.25-1.1.16.17L103 162l5.52 26.8 5.4 23.2zM133 161l-7 1 7 5-12.2 45h-2.94l3.14-52 5-20 16.06-4-9.06 25z"/><path class="cls-5" d="M75 142l26 30 8-19-34-11z"/><path class="cls-5" d="M108 155l6 17 20-31-26 14z"/><path class="cls-14" d="M110 153l-6 13s-29-24-28.5-24 8.5-3 8.5-3z"/><path class="cls-14" d="M109 153l8 12s18.36-27 18-27-7.1-1-7.1-1z"/><path class="cls-5" d="M68 182l8-2 4 32h-5l-7-30z"/><rect class="cls-15" x="38.85" y="124" width="140.69" height="82" rx="2" ry="2"/><path class="cls-16" d="M77.06 124l-.06-6h2v6h-1.94zM141.06 124l-.06-6h2v6h-1.94z"/><path class="cls-3" d="M187.68 199l2-17-7-1-2.85 14.67-9.15 9.33-22.68 1 5.68 4 .67 3h29l4.33-14z"/><path class="cls-15" d="M79 117s35-8 63 0l1 1H77z"/><path class="cls-3" d="M30 199l-2-17 7-1 2.85 14.67L47 205l21 1-4 4 .83 3h-30.5L30 199z"/></svg>