<svg id="Layer_1" data-name="Layer 1" xmlns="http://www.w3.org/2000/svg" viewBox="0 0 223 220"><defs><style>.cls-1{fill:#303030;}.cls-2{fill:#2b2f47;opacity:0.04;}.cls-3{clip-path:url(#clip-path);}.cls-4{opacity:0.35;}.cls-5{fill:#3b5972;stroke:#fff;stroke-miterlimit:10;stroke-width:0.5px;}.cls-6{fill:#efefef;}.cls-7{fill:#d85555;}.cls-8{fill:#1e1e1e;}.cls-9{fill:#000102;opacity:0.09;}.cls-10{fill:#fff;}.cls-11{fill:#f2be97;}.cls-12{fill:#1e0000;}.cls-13{fill:#e29b6a;}.cls-14{fill:#724f16;}.cls-15{fill:#d6a538;}.cls-16{fill:#7f7f7f;}.cls-17{fill:#e5b53e;}.cls-18{fill:#c1a046;}.cls-19{fill:#4f2f22;}.cls-20{fill:#e5b798;}</style><clipPath id="clip-path"><path class="cls-1" d="M111.46 158.9v.1l1 7v21l3 12-.8 13 72.06-.1h4.92l6.8-29.9L223 206.83v-27.66L213.43 148l-30-8-26 13-18-13-21-5v.15c-7-2.3-30-1.16-52 .84"/></clipPath></defs><rect class="cls-2" x=".08" y="41" width="223" height="171" rx="2" ry="2"/><path class="cls-1" d="M111.46 158.9v.1l1 7v21l3 12-.8 13 72.06-.1h4.92l6.8-29.9L223 206.83v-27.66L213.43 148l-30-8-26 13-18-13-21-5v.15c-7-2.3-30-1.16-52 .84"/><g class="cls-3"><g class="cls-4"><path class="cls-5" d="M163.43 99.2l3 236.8M169.43 95l3 236.82M177.43 95l3 236.82M182.43 95l3 236.82M187.43 95l3 236.82M194.43 95l3 236.82"/></g><g class="cls-4"><path class="cls-5" d="M111.43 47l3 238.78M116.43 47l3 238.78M121.43 47l3 238.78M128.43 47l3 238.78M135.43 47l3 238.78M142.43 47l3 238.78M149.43 47l3 238.78M156.43 47l3 238.78M24.17 134.76l76.62 21.34M37.6 133.5l74.6 20.54M17.93 136.5l95.05 28.1M16.8 139.94l83.36 26.1M14.62 145.53l83.35 26.1M12.44 151.12l83.35 26.1M50.9 93.15l66.34 29.12M53.07 87.57l66.35 29.1M48.7 98.74l66.36 29.12M41.36 125.17l71.95 19.95M63.9 95.15l66.34 29.12M66.07 89.57l66.35 29.1M61.7 100.74l66.36 29.12M46.53 79.33l66.35 29.12M42.35 120.92l70.52 18.96M39.66 129.78l72.56 19.76M195.2 159.35l88.12 99.04M194.9 149.75l91.58 103.1M195.42 168.87l84.98 95.34M195.78 178.56l72.65 80.84M195.78 187.56l72.65 80.84M197.78 197.56l72.65 80.84M195.78 203.56l72.65 80.84M214.63 146.7l80.47 90.03M201.45 140.45l90.6 101.94M197.52 145.1l91.36 102.84"/></g></g><path class="cls-6" d="M127.43 137l13 17 7.22 58h6.78l13-36v-12l24.32-21.83.18-.16-4.25-.88-4.4-.93-.85-.2-24 13-18-13-13-3z"/><path class="cls-7" d="M158.68 158.35l1.63 3.54-1.87 3.1h-6l-2-5 6-7.7 2.25 6.05z"/><path class="cls-7" d="M150.43 170v42h3.83c1-6.87 2.43-14.17 3.65-23.2 1.4-10.22 2.53-18.8 2.53-18.8l-3-6h-4z"/><path class="cls-8" d="M152.52 212h3.78l20.13-41-8-7h11l19.65-19.92-7.33-1.9-4.07-1.06-4.25-1.1-.16.17-19.84 21.8-5.52 26.8-5.38 23.2zM133.43 161l7 1-7 5 12.2 45h2.94l-3.14-52-5-20-16.06-4 9.06 25z"/><path class="cls-9" d="M191.43 142l-26 30-8-19 34-11z"/><path class="cls-9" d="M158.43 155l-6 17-20-31 26 14z"/><path class="cls-10" d="M156.43 153l6 13s29-24 28.5-24-8.5-3-8.5-3z"/><path class="cls-10" d="M157.43 153l-8 12s-18.36-27-18-27 7.1-1 7.1-1z"/><path class="cls-9" d="M198.43 182l-8-2-4 32h5l7-30z"/><path class="cls-11" d="M138.56 106.66c5.38 12.9-4.3 30.13-4.3 30.13l18.3 14 29.04-14s-11.84-30.14-9.68-30.14"/><path class="cls-9" d="M171.73 108.06l3.43 11.43s-24.18 9.6-35.23 0l.78-10.7z"/><path class="cls-11" d="M161.2 41.08s23.23 36.38 17.4 55.53-29.06 25.82-42.6 18.5c-7.43-4-14.22-23.9-18.82-41-3.8-14.1-6.1-26.34-6.1-26.34s26.46-29.3 50.12-6.68z"/><path class="cls-9" d="M167 51.15s-6.33-7.2-14.13-8.15c0 0-22 9.77-28.87 3.33 0 0-1.3 9.8-6.7 26.46l-4.6-24.43 23.48-14.73L156 36.7l7.27 6.2z"/><path class="cls-11" d="M165.7 52.5s6.7-9 12.5 4.08c0 0 1.22 7.92-3.8 10.63s-8.7-14.7-8.7-14.7zM119 72.7s-6.9-.23-5.17 3.86 4.62 13.34 8.87 11.84-3.7-15.7-3.7-15.7z"/><path class="cls-9" d="M134.5 92.54s14-6 9-18.27z"/><ellipse class="cls-12" cx="153.99" cy="58.09" rx="2.15" ry="3.77" transform="rotate(-26.29 154 58.09)"/><ellipse class="cls-12" cx="126.64" cy="68.81" rx="2.15" ry="3.77" transform="rotate(-26.29 126.64 68.82)"/><path class="cls-13" d="M140.75 60.44c-.1 1.66-10.56 30.84-9.87 29.93.17-.23 1.28-.34 2.9-.45 9.75-.66 15-10.8 10.7-20.82z"/><path class="cls-14" d="M145.28 51.14a13 13 0 0 1 .34-1.83 17.16 17.16 0 0 1 .7-1.72 8.38 8.38 0 0 1 2.53-2.93 5.76 5.76 0 0 1 3.9-1 5.47 5.47 0 0 1 3.37 1.77 11.6 11.6 0 0 0-3.38-.2 6.45 6.45 0 0 0-2.75 1.1 15 15 0 0 0-2.37 2.17c-.35.43-.75.85-1.13 1.3a14.9 14.9 0 0 1-1.22 1.34zM117 65.78a8.68 8.68 0 0 1 3-2.43 9.88 9.88 0 0 1 3.78-1.1 7.46 7.46 0 0 1 4 .77 5.93 5.93 0 0 1 2.56 2.98 13.13 13.13 0 0 0-3.2-1.48 10.7 10.7 0 0 0-3.25-.22 20.84 20.84 0 0 0-3.38.56c-1.15.23-2.3.56-3.52.92z"/><path class="cls-9" d="M169.37 53.78s2.8-3.44 5.8 2.37a2.36 2.36 0 0 1-1.93 2.8s-1.08 2.15 1.3 1.72c0 0-1.95 8.17-5.17-6.9zM116 77.64s2.15 1.08 3 5.8-3.87-5.15-3-5.8z"/><path class="cls-10" d="M174.42 82c-.34-.68-8.58 14.1-22 21.8a20 20 0 0 0 8.63.62c4.3-.82 21.4-6.28 13.37-22.42z"/><path class="cls-15" d="M165.7 48.37a10 10 0 0 0 .53-8.12s-7-12.5-10.73-12.75l-9.53 9s16.1 6.5 19.74 11.87z"/><path class="cls-9" d="M174.42 82s-10.7 15.93-22 21.8a28.46 28.46 0 0 0 4.6.8s21.23-14.37 17.4-22.6z"/><path class="cls-16" d="M175.94 87.63a9.4 9.4 0 0 1-1.08 3.3 16.55 16.55 0 0 1-1.95 2.92 21.48 21.48 0 0 1-2.43 2.5l-1.35 1.1-1.43 1c.84-.8 1.7-1.56 2.5-2.37s1.6-1.64 2.32-2.54a23.87 23.87 0 0 0 2-2.78 13 13 0 0 0 1.42-3.13z"/><path class="cls-17" d="M115.9 69.75l-4.84-.94a21.08 21.08 0 0 1 2.94-1.3l-1.6.55s-6.9-5.78-6.15-11.92c0 0 .44.7 3.75 1.7 0 0-12.12-14.34-4.25-32.46l2 6.13s-1.83-4.92 4.1-10.44a21.4 21.4 0 0 1 15.9-5.5c3.76.22 9.22.76 16.86 2 19.26 3 21.67-1.5 21.67-1.5s-10 8.74-16.14 8.5l9 1.24s-.33 14-32.47 16.48l-6.4 2.72-1.15 4.46z"/><path class="cls-18" d="M81.06 124l-.06-6h2v6h-1.94zM145.06 124l-.06-6h2v6h-1.94z"/><path class="cls-19" d="M83 117s35-8 63 0l1 1H81z"/><path class="cls-1" d="M43.55 178.05L29.42 190.7l5.08 22.8 13.25 3.88 12.22-3.95-16.42-35.38z"/><rect class="cls-19" x="38.85" y="124" width="140.69" height="82" rx="2" ry="2"/><path class="cls-20" d="M33.08 200.22l-2-17 7-1 2.86 14.66 9.14 9.34 21.1-.22-3.77 3.72-.7 3.18-29.3 1.32-4.32-14z"/></svg>