<svg id="Layer_1" data-name="Layer 1" xmlns="http://www.w3.org/2000/svg" viewBox="0 0 223 220"><defs><style>.cls-1,.cls-21,.cls-23,.cls-6{fill:none;}.cls-2{fill:#2b2f47;opacity:0.04;}.cls-10,.cls-2{isolation:isolate;}.cls-3{fill:#426f8e;}.cls-4{clip-path:url(#clip-path);}.cls-5{opacity:0.35;}.cls-21,.cls-23,.cls-6{stroke:#fff;stroke-miterlimit:10;}.cls-6{stroke-width:0.5px;}.cls-7{fill:#efefef;}.cls-8{fill:#d85555;}.cls-9{fill:#385266;}.cls-10{fill:#000102;opacity:0.09;}.cls-11{fill:#fff;}.cls-12{fill:#edae7a;}.cls-13{fill:#1e0000;}.cls-14{fill:#d88344;}.cls-15{fill:#7f7f7f;}.cls-16{fill:#4f2f22;}.cls-17{fill:#c1a046;}.cls-18{fill:#36afc5;}.cls-19{clip-path:url(#clip-path-2);}.cls-20{opacity:0.2;}.cls-21{stroke-linecap:square;stroke-width:3px;}.cls-22{fill:#b8e986;}.cls-23{stroke-linecap:round;stroke-width:5px;}</style><clipPath id="clip-path"><path class="cls-1" d="M139.85 129.9l-.18.1h.33c-1.5 4-18.26 18-47 25.88v.12l-1 7v21l-3 12 .8 16-72.06-.1h-4.92L6 179l-6 3.14v-39.3L21 137l26 13 18-13 21-5v.15c7-2.3 10-.16 13-9.16-2.75-10.47 51-38 40.85 6.9z"/></clipPath><clipPath id="clip-path-2"><rect class="cls-1" x="46.12" y="129.35" width="130.46" height="71.5" rx="2" ry="2"/></clipPath></defs><rect class="cls-2" y="41" width="223" height="171" rx="2" ry="2"/><path class="cls-3" d="M139.85 129.9l-.18.1h.33c-1.5 4-18.26 18-47 25.88v.12l-1 7v21l-3 12 .8 16-72.06-.1h-4.92L6 179l-6 3.14v-39.3L21 137l26 13 18-13 21-5v.15c7-2.3 10-.16 13-9.16-2.75-10.47 51-38 40.85 6.9z"/><g class="cls-4"><g class="cls-5"><path class="cls-6" d="M41 96.2L38 333M35 92l-3 236.82M27 92l-3 236.82M22 92l-3 236.82M17 92l-3 236.82M10 92L7 328.83"/></g><g class="cls-5"><path class="cls-6" d="M93 44l-3 238.8M88 44l-3 238.8M83 44l-3 238.8M76 44l-3 238.8M69 44l-3 238.8M62 44l-3 238.8M55 44l-3 238.8M48 44l-3 238.8M166.27 122.76L91.64 155.1M173.1 118.17l-72.6 31.55M168.45 128.35l-77 33.26M170.63 133.94l-66.35 29.1M172.8 139.53l-66.34 29.1M175 145.12l-66.36 29.1M153.54 90.15L87.2 119.27M151.36 84.57L85 113.67M155.72 95.74l-66.35 29.12M157.9 101.33l-66.35 29.12M140.54 92.15L74.2 121.27M138.36 86.57L72 115.67M142.72 97.74l-66.35 29.12M157.9 76.33l-66.35 29.12M160.1 106.92l-68.54 29.96M171.27 113.5l-70.56 30.77M9.23 156.36L-78.9 255.4M9.52 146.75l-91.57 103.1M9 165.87l-84.97 95.34M8.65 175.56L-64 256.4M3 137.45L-87.6 239.4M6.92 142.1l-91.37 102.84"/></g></g><path class="cls-7" d="M77 134l-13 17-7.22 61H50l-13-39v-12l-24.32-21.83-.18-.16 4.25-.88 4.4-.93.85-.2 24 13 18-13 13-3z"/><path class="cls-8" d="M45.75 155.35l-1.62 3.54L46 162h6l2-5-6-7.7-2.25 6.05z"/><path class="cls-8" d="M54 167v45h-3.83c-1-6.87-2.43-17.17-3.65-26.2C45.12 175.6 44 167 44 167l3-6h4z"/><path class="cls-9" d="M51.9 212h-3.77L28 168l8-7H25L5.35 141.1l7.33-1.9 4.07-1.06 4.25-1.1.16.17L41 159l5.52 26.8 5.4 26.2zM71 158l-7 1 7 5-12.2 48h-2.94L59 157l5-20 16.06-4L71 158z"/><path class="cls-10" d="M13 139l26 30 8-19-34-11z"/><path class="cls-10" d="M46 152l6 17 20-31-26 14z"/><path class="cls-11" d="M48 150l-6 13s-29-24-28.5-24 8.5-3 8.5-3z"/><path class="cls-11" d="M47 150l8 12s18.36-27 18-27-7.1-1-7.1-1z"/><path class="cls-10" d="M6 179l8-2 4 35h-5l-7-33z"/><path class="cls-12" d="M66.34 105.66c-5.38 12.9 4.3 30.13 4.3 30.13l-18.3 14-29-14s11.85-30.14 9.7-30.14"/><path class="cls-10" d="M33.17 107.06l-3.43 11.43s24.18 9.6 35.23 0l-.78-10.7z"/><path class="cls-12" d="M17.92 56.16s3.23 43 19.37 54.88 38.7 3.23 45.18-10.76c3.54-7.67-3-27.65-9.54-44.12C67.52 42.6 62 31.42 62 31.42s-38.7-7.54-44.08 24.74z"/><path class="cls-13" d="M23.3 39S20.07 21.73 47 11v14S58.8 6.67 80.33 2.36l-6.46 10.76S90 8.82 104 26c0 0-22.6 16.14-40.9 18.3z"/><path class="cls-10" d="M19.34 67.68s3.42-5.6 3.42-11c0 0 12.9 0 14-14 0 0 15.83 15.28 35.36 12.48l-5.24-13.52-33.36-6.46-14 14.35-2.1 9.33z"/><path class="cls-13" d="M23.3 39H11.46S3.93 45.4 5 50.78c0 0 4.3-4.3 8.6 0s-5.37 8.6-5.37 8.6h9.68L20.08 68s-2.15-15.06 3.23-14 10.76-15 10.76-15"/><path class="cls-12" d="M21.15 68s-10.76-3.23-7.53 10.76c0 0 3.77 7.07 9.4 6.22S21.16 68 21.16 68zM70.64 56.16s5.38-4.3 6.46 0 4.3 13.45 0 14.8-6.46-14.8-6.46-14.8z"/><path class="cls-10" d="M70.14 81.34S55.3 84.92 52 72.14z"/><ellipse class="cls-13" cx="33.89" cy="65.46" rx="2.15" ry="3.77" transform="matrix(.98 -.18 .18 .98 -11.41 7.31)"/><ellipse class="cls-13" cx="62.2" cy="57.64" rx="2.15" ry="3.77" transform="rotate(-10.55 62.19 57.63)"/><path class="cls-14" d="M45.9 59.4c1.08 1.26 27 18.34 25.85 18-.28-.1-1.22.5-2.6 1.37-8.18 5.3-18.45.32-21-10.26z"/><path class="cls-13" d="M37.3 60.47a14.9 14.9 0 0 1-1.8-.37c-.56-.13-1.14-.23-1.68-.37a15 15 0 0 0-3.2-.32 6.44 6.44 0 0 0-2.85.78 11.6 11.6 0 0 0-2.6 2.18 5.47 5.47 0 0 1 1.64-3.43 5.76 5.76 0 0 1 3.74-1.52 8.38 8.38 0 0 1 3.78.84 17.2 17.2 0 0 1 1.6 1 13 13 0 0 1 1.37 1.23zM68.3 48c-1.2.45-2.3.88-3.4 1.35a20.85 20.85 0 0 0-3 1.57A10.7 10.7 0 0 0 59.44 53a13.14 13.14 0 0 0-1.68 3.1 5.93 5.93 0 0 1 .33-3.9 7.46 7.46 0 0 1 2.72-3 9.88 9.88 0 0 1 3.68-1.4 8.68 8.68 0 0 1 3.8.2z"/><path class="cls-10" d="M19 71.23s-4.3-1.08-3.23 5.38a2.36 2.36 0 0 0 3.15 1.12H19s2.15 1.08 0 2.15c0-.03 6.45 5.35 0-8.64zM76 58.32s-1.08 2.15 1.08 6.46.02-6.46-1.08-6.46z"/><path class="cls-13" d="M5 33.57s13.92-3.23 20.4 7.53A25.48 25.48 0 0 0 5 33.57z"/><path class="cls-11" d="M35.9 87.22c-.27-1 12.18 7.1 32.5 3 0 0 5.1 7.1 0 10.16S42 110.58 35.9 87.22z"/><path class="cls-10" d="M35.9 87.22s15.23 7.1 32.5 3A13.73 13.73 0 0 1 70.27 94s-31.32 4.4-34.37-6.78z"/><path class="cls-15" d="M39.34 94.28a11.35 11.35 0 0 0 2 1.12 20 20 0 0 0 2.13.84 27.88 27.88 0 0 0 4.46 1.07 39.9 39.9 0 0 0 4.57.52l2.3.1h2.33c-.77.08-1.54.14-2.3.2s-1.56 0-2.33 0a32.9 32.9 0 0 1-4.64-.4 24.45 24.45 0 0 1-4.5-1.2 13 13 0 0 1-4.02-2.24z"/><rect class="cls-16" x="41.31" y="124" width="140.69" height="82" rx="2" ry="2"/><path class="cls-17" d="M81.06 124l-.06-6h2v6h-1.94zM145.06 124l-.06-6h2v6h-1.94z"/><path class="cls-16" d="M83 117s35-8 63 0l1 1H81z"/><path class="cls-12" d="M113 103.64l-12.65 3.8s-11 2.57-15.18 1.27c0 0-2.53 3.8 2.53 6.34 0 0 6.33 2.33 15.2-1.36l-4.13 5.16 1.58 3.8 7.6-1.27 1.26 1.27 4.84 1.93 5.3-.67 1.26 1.27 6.33-1.27 5.57 2.1 4.5-4.65-1-12.43a5.84 5.84 0 0 0-3-4.7c-3.54-1.83-10.2-3.86-20-.58z"/><rect class="cls-18" x="46.12" y="129.35" width="130.46" height="71.5" rx="2" ry="2"/><g class="cls-19 cls-20"><path class="cls-21" d="M8.45 171.64L112.3 275.5M15.23 164.87L119.08 268.7M22 158.1l103.85 103.84M28.78 151.3l103.85 103.86M35.56 144.53L139.4 248.38M42.34 137.75L146.2 241.6M49.12 130.97l103.85 103.85M55.9 124.2l103.84 103.85M62.67 117.42l103.85 103.85M69.45 110.64L173.3 214.5M76.23 103.86L180.08 207.7M83 97.08l103.86 103.85M89.8 90.3l103.83 103.85M96.56 83.53L200.4 187.38M103.34 76.75L207.2 180.6M110.12 69.97l103.85 103.85"/></g><path class="cls-11" d="M86.2 158.76h-1.77q-.9 0-.87-.88v-2.1a.76.76 0 0 1 .9-.9h4.92a.75.75 0 0 1 .88.9V172a.75.75 0 0 1-.88.88h-2.3a.75.75 0 0 1-.88-.88zM107.4 160.82V167a6.12 6.12 0 0 1-12.22 0v-6.16a6.12 6.12 0 0 1 12.23 0zm-8.17 0v6.07a2.12 2.12 0 0 0 2.06 2.05 1.93 1.93 0 0 0 1.42-.6 2 2 0 0 0 .6-1.46v-6.08a2.05 2.05 0 0 0-3.44-1.52 2 2 0 0 0-.62 1.54zM121.82 160.82V167a6.12 6.12 0 0 1-12.23 0v-6.16a6.12 6.12 0 0 1 12.22 0zm-8.18 0v6.07a2.12 2.12 0 0 0 2.06 2.1 1.93 1.93 0 0 0 1.43-.6 2 2 0 0 0 .6-1.46v-6.07a2.05 2.05 0 0 0-3.44-1.52 2 2 0 0 0-.63 1.54zM128 155.35a4.23 4.23 0 0 1 3.1 1.3 4.45 4.45 0 1 1-6.3 0 4.33 4.33 0 0 1 3.2-1.3zm0 3.07a1.37 1.37 0 0 0-1.4 1.4 1.3 1.3 0 0 0 .4.95 1.34 1.34 0 0 0 1 .4 1.38 1.38 0 0 0 1-2.35 1.3 1.3 0 0 0-.95-.4zm1.1 14.23l-.77-.47q-.43-.27-.43-.6a1 1 0 0 1 .14-.45l8-15.64q.23-.5.6-.5a1.1 1.1 0 0 1 .45.14l.75.4q.48.24.48.58a1 1 0 0 1-.13.46l-8 15.8a.7.7 0 0 1-.6.45.9.9 0 0 1-.53-.18zM138 164a4.46 4.46 0 1 1-3.16 1.3 4.28 4.28 0 0 1 3.14-1.3zm0 3.07a1.3 1.3 0 0 0-.94.4 1.34 1.34 0 0 0-.4 1 1.37 1.37 0 0 0 1.4 1.34 1.36 1.36 0 0 0 0-2.7z"/><circle class="cls-22" cx="179.28" cy="118.37" r="23.51"/><path class="cls-23" d="M167.04 119.13l9 9 16.42-16.44"/></svg>