<svg width="47" height="51" viewBox="0 0 47 51" xmlns="http://www.w3.org/2000/svg"><path d="M10.5.8C9.7.8 9 1.4 9 2.2V5H3c-.7 0-1.2.2-1.6.6C1 6 .8 6.6.8 7v41.3c0 .5.2 1 .6 1.4.4.4 1 .7 1.5.6H44c1 0 2-1 2-2V7c0-1-1-2-2-2H38V2.2c0-.8-.6-1.4-1.4-1.4h-1.4c-.7 0-1.4.6-1.4 1.4V5H13.2V2.2c0-.8-.6-1.4-1.4-1.4h-1.3zM5 9H42v4.2H5v-4zm0 8.3h37v29H5v-29zm4 4.2v4h4.2v-4h-4zm8.3 0v4h4.2v-4h-4.2zm8.3 0v4h4v-4h-4zm8.2 0v4H38v-4h-4.2zM9 29.7v4h4.2v-4h-4zm8.3 0v4h4.2v-4h-4.2zm8.3 0v4h4v-4h-4zm8.2 0v4H38v-4h-4.2zM9 38v4h4.2v-4h-4zm8.3 0v4h4.2v-4h-4.2zm8.3 0v4h4v-4h-4z" fill-rule="nonzero" fill="#f26f69"/></svg>