<svg xmlns="http://www.w3.org/2000/svg" xmlns:xlink="http://www.w3.org/1999/xlink" viewBox="0 0 1959 337.6"><defs><clipPath id="b"><path d="M.2 316.3S189.4 407 990.6 213.7C1433.4 107 1995.8 332.5 1995.8 332.5l-31.3-416.2L1951-282s-338-12-765 124S-6.6-171.5-6.6-171.5l6.2 275.2.6 212.6z" fill="none"/></clipPath><linearGradient id="a" x1="1002.6" y1="259.2" x2="986.4" y2="625.5" gradientTransform="matrix(1 0 0 -1 0 646.26)" gradientUnits="userSpaceOnUse"><stop offset="0" stop-color="#20abc7"/><stop offset=".5" stop-color="#20abc7" stop-opacity=".5"/><stop offset=".8" stop-color="#20abc7" stop-opacity=".1"/><stop offset="1" stop-color="#20abc7" stop-opacity="0"/></linearGradient><linearGradient id="c" x1="1005.4" y1="263.5" x2="997.3" y2="687.7" xlink:href="#a"/></defs><path d="M921 182.4h1049v155.2H921zM0 236h921v101.6H0zm896-22.6h25V236h-25z" fill="#fff"/><g clip-path="url(#b)"><path d="M-47 104.8s377.8 254.7 1025.4 55.8c709.2-218 1086-151 1086-151l-27 727.2-2082.6 53.6-1.8-685.6z" fill="#36afc5"/><path d="M-39.2 114s207.7 4.5 530.5 52.4C1005 242.4 2073.6 18 2073.6 18l-7 693.5-2136.6 10z" fill="url(#a)"/><path d="M1023.3 178.5c134.3 2.8 467.2-39.4 651.5-107 111.5-41 426-96.4 350.2-29l11.7 651-2063.4-.2V11.6s280.3-40.8 732 123a624.3 624.3 0 0 0 155 35c41 4 95.2 7.5 163 9z" fill="url(#c)"/></g></svg>