<svg id="Layer_1" xmlns="http://www.w3.org/2000/svg" xmlns:xlink="http://www.w3.org/1999/xlink" viewBox="0 0 1970 337.6"><style>.st0{clip-path:url(#SVGID_2_);} .st1{fill:#36AFC5;} .st2{fill:url(#SVGID_3_);} .st3{fill:url(#SVGID_4_);}</style><g id="Layer_2"><g id="Layer_2-2"><defs><path id="SVGID_1_" d="M.2 316.3S189.4 407 990.6 213.7C1433.4 107 1995.8 332.5 1995.8 332.5l-31.3-416.2L1951-282S1613-294 1186-158-6.6-171.5-6.6-171.5l6.2 275.2.6 212.6z"/></defs><clipPath id="SVGID_2_"><use xlink:href="#SVGID_1_" overflow="visible"/></clipPath><g class="st0"><path class="st1" d="M-47 104.8s377.8 254.7 1025.4 55.8c709.2-218 1086-151 1086-151l-27 727.2-2082.6 53.6-1.8-685.6z"/><linearGradient id="SVGID_3_" gradientUnits="userSpaceOnUse" x1="1002.5" y1="121.2" x2="986.3" y2="487.5" gradientTransform="matrix(1 0 0 -1 0 508.26)"><stop offset="0" stop-color="#20ABC7"/><stop offset="0" stop-color="#20ABC7"/><stop offset=".5" stop-color="#20ABC7" stop-opacity=".5"/><stop offset=".8" stop-color="#20ABC7" stop-opacity=".1"/><stop offset="1" stop-color="#20ABC7" stop-opacity="0"/></linearGradient><path class="st2" d="M-39.2 114s207.7 4.5 530.5 52.4C1005 242.4 2073.6 18 2073.6 18l-7 693.5-2136.6 10L-39.2 114z"/><g><linearGradient id="SVGID_4_" gradientUnits="userSpaceOnUse" x1="1005.4" y1="125.5" x2="997.3" y2="549.7" gradientTransform="matrix(1 0 0 -1 0 508.26)"><stop offset="0" stop-color="#20ABC7"/><stop offset="0" stop-color="#20ABC7"/><stop offset=".5" stop-color="#20ABC7" stop-opacity=".5"/><stop offset=".8" stop-color="#20ABC7" stop-opacity=".1"/><stop offset="1" stop-color="#20ABC7" stop-opacity="0"/></linearGradient><path class="st3" d="M1023.3 178.5c134.3 2.8 467.2-39.4 651.5-107 111.5-41 426-96.4 350.2-29l11.7 651-2063.4-.2V11.6s280.3-40.8 732 123c50 18.2 102 30 155 35 41 4 95.2 7.5 163 9z"/></g></g></g></g></svg>