<svg xmlns="http://www.w3.org/2000/svg" viewBox="0 0 174 190"><g><path fill="#4f4f4f" d="M6.2 111.6h162v71H6.2z"/><path fill="#4f4f4f" d="M20.2 102.6h134v71h-134zM29.2 99.6h27l-3-60h-20l-4 60M62.2 99.6h27l-3-91h-20l-4 91"/><path fill="#d3e0e2" d="M35.2 122.6h18v18h-18zM64.2 122.6h18v18h-18zM93.2 122.6h18v18h-18zM122.2 122.6h18v18h-18zM35.2 149.6h18v18h-18zM64.2 149.6h18v18h-18zM93.2 149.6h18v18h-18zM122.2 149.6h18v18h-18z"/><path fill="#4f4f4f" d="M103.2 99.6v-26l11 11v-11l11 11v-11L135.7 84V73.7L154 91.8v7.8H103"/></g></svg>