<svg xmlns="http://www.w3.org/2000/svg" width="1608" height="157" viewBox="0 0 1608 157"><defs><linearGradient id="a" x1="650.1" y1="443.5" x2="650.1" y2="442.9" gradientTransform="matrix(1800.48 94.36 33.7 -643.27 -1184532.77 223928.62)" gradientUnits="userSpaceOnUse"><stop offset="0" stop-color="#20abc7" stop-opacity=".3"/><stop offset="1" stop-color="#1ba8c5"/></linearGradient><linearGradient id="b" x1="650.1" y1="443.5" x2="650.1" y2="442.9" gradientTransform="matrix(1802.95 0 0 -644.15 -1171253.49 285700.2)" gradientUnits="userSpaceOnUse"><stop offset="0" stop-color="#36afc5" stop-opacity=".3"/><stop offset="1" stop-color="#36afc5"/></linearGradient></defs><path fill-opacity="0" d="M0 0h1611.8v157H0z"/><path d="M38.3 344.8L40 584.2s145.6 76.2 688.4-28.7 1001 81 1001 81l30.3-332-85.8-5L1672 60s-145.6-76.2-688.4 28.7-1001-81-1001-81l-30.3 332z" style="isolation:isolate" opacity=".5" fill="url(#a)"/><path data-name="Mask" d="M4.5 387.7l14.3 239s149.4 68.5 686-64.7 1003.8 28.5 1003.8 28.5l13-333.2-86-.5-14.3-239s-149.4-68.5-686 64.7S-68.5 54-68.5 54l-13 333.2z" style="isolation:isolate" opacity=".5" fill="url(#b)"/><path d="M1754 301.8v418.5H-96v-620s515 113 1090.3 20.2S1754 73.2 1754 73.2z" fill="#2b2f47"/></svg>
