<svg width="50" height="50" xmlns="http://www.w3.org/2000/svg" viewBox="0 0 50 50"><path d="M32.5 13.3h-15a4.3 4.3 0 0 0-4.3 4.3v15a4.3 4.3 0 0 0 4.4 4.2h14.8a4.3 4.3 0 0 0 4.4-4.3v-15a4.3 4.3 0 0 0-4.3-4.2zM25 32.8a7.8 7.8 0 1 1 7.8-7.7A7.8 7.8 0 0 1 25 33zm8-14a1.8 1.8 0 1 1 1.8-1.7 1.8 1.8 0 0 1-1.8 2z" fill="#fff"/><path d="M25 20.6a4.5 4.5 0 1 0 4.5 4.5 4.5 4.5 0 0 0-4.5-4.4z" fill="#fff"/><path d="M25 0a25 25 0 1 0 25 25A25 25 0 0 0 25 0zm15 32.5a7.6 7.6 0 0 1-7.6 7.6H17.6a7.6 7.6 0 0 1-7.6-7.5v-15a7.6 7.6 0 0 1 7.6-7.5h14.8a7.6 7.6 0 0 1 7.6 7.6z" fill="#fff"/></svg>