<svg viewBox="0 0 52 78" xmlns="http://www.w3.org/2000/svg"><g fill="none" fill-rule="evenodd"><path d="M7 43c-4.4-4.5-7-10.6-7-17.3C0 11.5 11.6 0 26 0s26 11.5 26 25.7c0 5.7-2 11-5.2 15.4l-.3.4-1 1.3-19.5 23L7 43.2z" fill="#F26F69"/><ellipse fill="#000" opacity=".3" cx="26" cy="75.9" rx="17.7" ry="2.1"/><ellipse fill="#FFF" cx="26" cy="25.7" rx="19.8" ry="19.5"/><path d="M29.8 27l-3.3-9-3.4 9c0 .3.2.3.4.3h6c.3 0 .4 0 .4-.2zm7 9.3H34c-.4 0-.8-.2-1-.6l-1.7-4.4s0-.2-.3-.2h-9.2l-.3.3-1.6 4.4c-.3.4-.6.7-1 .6h-2.7c-.4 0-.7 0-.7-.4v-.5l9-24c.3-.4.6-.7 1-.7h1.6c.5 0 .8.3 1 .7l9 24v.4c0 .2 0 .3-.5.3z" fill="#000"/></g></svg>