<svg viewBox="0 0 52 78" xmlns="http://www.w3.org/2000/svg"><g fill="none" fill-rule="evenodd"><g><path d="M7 43c-4.4-4.5-7-10.6-7-17.3C0 11.5 11.6 0 26 0s26 11.5 26 25.7c0 5.7-2 11-5.2 15.4l-.3.4-1 1.3-19.5 23L7 43.2z" fill="#F26F69"/><ellipse fill="#000" opacity=".3" cx="26" cy="75.9" rx="17.7" ry="2.1"/><ellipse fill="#FFF" cx="26" cy="25.7" rx="19.8" ry="19.5"/></g><g transform="translate(13 18)"><path fill="#2B2F47" d="M1 0h2v16H1zM23 0h2v16h-2z"/><ellipse fill="#000" opacity=".2" cx="13" cy="16" rx="13" ry="1"/><path fill="#2B2F47" d="M25 0v2H1V0zM25 6v2H1V6zM7 2v2H5V2zM9 4v2H7V4zM11 2v2H9V2zM13 4v2h-2V4zM15 2v2h-2V2zM17 4v2h-2V4zM19 2v2h-2V2zM21 4v2h-2V4zM23 2v2h-2V2zM5 4v2H3V4z"/></g></g></svg>