<svg xmlns="http://www.w3.org/2000/svg" viewBox="0 0 811 521"><defs><style>.cls-1{fill:none;}.cls-2{fill:#604634;}.cls-3,.cls-9{fill:#2b2f47;}.cls-4{fill:#ed6964;}.cls-5{fill:#edae7a;}.cls-15,.cls-6,.cls-7{fill:#000102;}.cls-6{opacity:0.33;}.cls-7{opacity:0.09;}.cls-8{clip-path:url(#clip-path);}.cls-9{fill-rule:evenodd;}.cls-10{fill:#1e0000;}.cls-11{fill:#d88344;}.cls-12{fill:#fff;}.cls-13{fill:#7f7f7f;}.cls-14{fill:#775d46;}.cls-15{opacity:0.4;}</style><clipPath id="clip-path"><path class="cls-1" d="M316.3 330h112.2v112H316.3z"/></clipPath></defs><g id="Layer_2" data-name="Layer 2"><path class="cls-2" d="M307.7 193.5S305 204 298 204c0 0 12.5 3.6 13.7-3.7S304 208 309 220c0 0 4.5-13.5 7.7-13.2 0 0-6.7 19.2 6.3 35.2 0 0 6-5 7-10 0 0 1 10 7 16l7-11s-18.7-51-36.3-43.5zM397.8 189.4s5.4 9.2 11 7.3c0 0-8.7 6.8-12 .2s8.5 5 8.4 17.8c0 0-7.8-11.5-10.3-10.4 0 0 11.4 16.4 6.4 35 0 0-6.3-3.2-8.7-7.6 0 0 2.5 9.7-.3 17l-9-8.6s-2-53.2 14.4-50.8z"/><path class="cls-3" d="M456.8 270.5s11-10.4 77.2-7.5c0 0-5.3 27.6-73 37.6z"/><path class="cls-4" d="M322 277l-46.8 18-20 24.4 35.8 24.4 14.4-3 24.4 113H429l-4.3-88.4L429 348v-30l30.2-13-5.7-40.3-62.3 12.8-25 56.7L322 277z"/><path class="cls-3" d="M257.5 325.5c-1.4 3-57.5 108-57.5 108s62.2-27 83-93.3z"/><path class="cls-3" d="M200 433.4s36-27.3 83.4 13c0 0 10 13-26 11.4S200 433.4 200 433.4z"/><path class="cls-5" d="M283.4 446.3h36l11 34.6-41.3 7-5.6-41.7z"/><path class="cls-3" d="M527 273s-44-23.5-60.2-83c0 0-1.4-45.3 67.2 73z"/><path class="cls-6" d="M257.5 325.5l-6 11.4 27.3 14.4 4.6-11.5-26-14.5z"/><path class="cls-7" d="M305.4 341l11.5-3 12.8 120.8-24.4-118z"/><path class="cls-5" d="M472.3 210.2s-25.8-3-26.5-4.3l-11.6-19 10-17.6 10 2.5-2.2-14.6s2.4-9.8 4.4-9.3 9.8 10.8 9.8 10.8l.3 11.6 13.5 16zM321 451.4c1.2 3.5 24.3 9.3 24.3 9.3l-5.8 6.5L318 465z"/><g class="cls-8"><path class="cls-3" d="M342.4 392l4-.5a.5.5 0 0 1 .8.5l.3 1.6a.5.5 0 0 1-.5.7l-11.3 2a.5.5 0 0 1-.7-.6l-.5-3.4a3.6 3.6 0 0 1 .6-2.8 4 4 0 0 1 2.7-1.6 4 4 0 0 1 3 .6 3.6 3.6 0 0 1 1.6 2.5zm-2.8.6l-.2-1a.8.8 0 0 0-.5-.7 1.3 1.3 0 0 0-.8-.2 1 1 0 0 0-.7.5.8.8 0 0 0-.2.6l.2 1zM344 383.4l.4-3.2a.5.5 0 0 1 .7-.6l1.7.2a.5.5 0 0 1 .6.7l-.7 5.5a.5.5 0 0 1-.7.5l-11.4-1.3a.5.5 0 0 1-.6-.7l.2-1.7a.5.5 0 0 1 .7-.5zM347 374.5l1.3 1.5a.7.7 0 0 1 0 1l-1 1.6q-.2.4-.5.2a.7.7 0 0 1-.2 0l-7.8-10a.7.7 0 0 1 0-.8l.5-1a.7.7 0 0 1 .7-.3l12.4 1.7a.6.6 0 0 1 .2 0q.4.3 0 .7l-.8 1.7a.7.7 0 0 1-.8.4h-2zm-3.3-4.3l1.5 2 1-1.7zM352.2 366.3l.6-1.2a1 1 0 0 1 .2-.2.8.8 0 0 1 .6 0 1.3 1.3 0 0 0 1-.4 1 1 0 0 0 .3-.7.8.8 0 0 0-.3-.6 1 1 0 0 0-1-.3 7 7 0 0 0-1 .3q-3.3 1-5-1a3.8 3.8 0 0 1-.8-3 4 4 0 0 1 4-3.2 1.4 1.4 0 0 1 1 .3.6.6 0 0 1 0 .7l-.8 1.6a1 1 0 0 1-.2.3.6.6 0 0 1-.4 0 .8.8 0 0 0-.5.3.7.7 0 0 0-.2.5 1 1 0 0 0 .2.5 1 1 0 0 0 .8.3 8.2 8.2 0 0 0 1-.2h.2a7.5 7.5 0 0 1 2.4-.2 3.6 3.6 0 0 1 2.5 1.4 4 4 0 0 1 .8 3 3.6 3.6 0 0 1-1.4 2.4 3.6 3.6 0 0 1-3.3.8 1.8 1.8 0 0 1-.8-.4.6.6 0 0 1 0-.7M359.6 353.4l3.6 8.4a.5.5 0 0 1-.3.8l-1.6.7a.5.5 0 0 1-.8-.3l-3.7-8.4-2 .8a.5.5 0 0 1-.7-.3l-.7-1.5a.5.5 0 0 1 .3-.8l6.4-2.8a.5.5 0 0 1 .8.2l.7 1.6a.5.5 0 0 1-.5.8zM364.4 349l1.6-.3a.5.5 0 0 1 .8.5l2 11.2a.5.5 0 0 1-.4.7l-1.6.5a.5.5 0 0 1-.8-.5l-2.2-11.2a.5.5 0 0 1 .5-.8M380.3 350.4l-1.2 1.3a.6.6 0 0 1-.4.2.5.5 0 0 1-.3-.2 3.2 3.2 0 0 0-1.7-.7 3.5 3.5 0 0 0-3.8 3.4 3.4 3.4 0 0 0 .7 2.6 3.4 3.4 0 0 0 2.4 1.2 3.5 3.5 0 0 0 1.8-.4.5.5 0 0 1 .8.3l1 1.5a.7.7 0 0 1 0 .5.6.6 0 0 1-.2.4 4.8 4.8 0 0 1-1.3.5 6.7 6.7 0 0 1-2.2 0 6.5 6.5 0 1 1 1-12.8 6.3 6.3 0 0 1 3 1c.5.3.7.6.7.8a.7.7 0 0 1-.2.4M387 362l1.3.2a1 1 0 0 1 .3 0 .8.8 0 0 1 .2.6 1.3 1.3 0 0 0 .6.8 1 1 0 0 0 .7.2.8.8 0 0 0 .7-.3 1 1 0 0 0 0-1 6.8 6.8 0 0 0-.4-1q-1.7-3-.2-5a3.7 3.7 0 0 1 2.6-1.6 4 4 0 0 1 4.3 3 1.4 1.4 0 0 1-.2 1 .6.6 0 0 1-.6.3l-1.8-.4a1 1 0 0 1-.3-.2.6.6 0 0 1 0-.4.8.8 0 0 0-.4-.5.7.7 0 0 0-.7-.2.8.8 0 0 0-.5.4 1 1 0 0 0 0 .8 8.3 8.3 0 0 0 .4.8v.3a7.6 7.6 0 0 1 1 2.4 3.6 3.6 0 0 1-1 2.7 4 4 0 0 1-2.5 1.7 3.6 3.6 0 0 1-2.8-.7 3.6 3.6 0 0 1-1.5-3 1.8 1.8 0 0 1 0-1 .6.6 0 0 1 .8-.2M405.2 366.3a6 6 0 0 1 .8 4.8 6.5 6.5 0 0 1-8 5 6.4 6.4 0 0 1-4.7-7.7 6.5 6.5 0 0 1 7.8-5 6.2 6.2 0 0 1 4 3m-2.4 1.4a3.4 3.4 0 0 0-2-1.5 3.6 3.6 0 0 0-4.4 2.7 3.5 3.5 0 0 0 2.6 4 3.4 3.4 0 0 0 2.6-.4 3.5 3.5 0 0 0 1.7-2.2 3.4 3.4 0 0 0-.4-2.6M410.4 384.7L402 386a3.5 3.5 0 0 1-3-1 4.7 4.7 0 0 1-.5-6 3.4 3.4 0 0 1 2.3-1.4l8.2-1.3a.5.5 0 0 1 .8.5l.2 1.6a.5.5 0 0 1-.5.7l-8 1.4a1 1 0 0 0-.8.7 1.5 1.5 0 0 0 0 1 1.3 1.3 0 0 0 .4 1 1 1 0 0 0 1 0l8-1.2a.5.5 0 0 1 .6.5l.3 1.7a.5.5 0 0 1-.6.7M402.6 391l-4-.7a.5.5 0 0 1-.6-.7l.3-1.7a.5.5 0 0 1 .7-.6l11.3 2a.5.5 0 0 1 .5.7l-.6 3.4a3.6 3.6 0 0 1-1.5 2.5 4 4 0 0 1-3 .5 4 4 0 0 1-2.7-1.7 3.6 3.6 0 0 1-.6-2.7zm3 .5l-.3 1a.8.8 0 0 0 .3.8 1.3 1.3 0 0 0 .6.3 1 1 0 0 0 .8-.2.8.8 0 0 0 .4-.5v-1.2zM342.8 406.6l1.2.6a1 1 0 0 1 .3.2.8.8 0 0 1 0 .6 1.3 1.3 0 0 0 .4 1 1 1 0 0 0 .7.3.8.8 0 0 0 .6-.2 1 1 0 0 0 .4-1 7 7 0 0 0-.2-1q-1-3.2 1-4.8a3.7 3.7 0 0 1 2.8-1 3.6 3.6 0 0 1 2.5 1.5 3.7 3.7 0 0 1 .8 2.8 1.4 1.4 0 0 1-.3 1 .6.6 0 0 1-.7 0l-1.6-1a1 1 0 0 1-.2 0 .6.6 0 0 1 0-.5.8.8 0 0 0-.3-.5.7.7 0 0 0-.6-.3 1 1 0 0 0-.6.2 1 1 0 0 0-.2.8 8.3 8.3 0 0 0 .2 1v.2a7.5 7.5 0 0 1 .3 2.4 3.6 3.6 0 0 1-1.4 2.4 4 4 0 0 1-3 1 3.6 3.6 0 0 1-2.5-1.4 3.6 3.6 0 0 1-.8-3.3 1.8 1.8 0 0 1 .4-1 .6.6 0 0 1 .8 0M362.3 411.2l-4.4 7.2a3.5 3.5 0 0 1-3 1.7 4.7 4.7 0 0 1-4.8-3.4 3.4 3.4 0 0 1 .4-2.7l4.4-7.3a.5.5 0 0 1 1-.2l1.3 1a.5.5 0 0 1 .2.8l-4.2 6.8a1 1 0 0 0 0 1 1.5 1.5 0 0 0 .6 1 1.3 1.3 0 0 0 .8 0 1 1 0 0 0 .8-.4l4.2-7a.5.5 0 0 1 1 0l1.3.8a.5.5 0 0 1 .3.8M369 419.6l1.8 5a.6.6 0 0 1 0 .3q0 .2-.4 0l-2-.2a.8.8 0 0 1-.7-.6l-1.7-4.7h-.4l-.6 4a.5.5 0 0 1-.7.6l-1.7-.2a.5.5 0 0 1-.5-.7l2-11a.5.5 0 0 1 .7-.7l3.6.6a3.8 3.8 0 0 1 2.5 1.5 4 4 0 0 1 .6 3 4 4 0 0 1-2.4 3m-3-2.8l1.3.2a1 1 0 0 0 1.2-1 1 1 0 0 0 0-.8 1 1 0 0 0-1-.4l-1-.2zM377.6 419.6l.7 4.3a.5.5 0 0 1-.5.6l-1.7.2a.5.5 0 0 1-.6-.5l-2-11.2a.5.5 0 0 1 .6-.6l6-1a.5.5 0 0 1 .7.5l.3 1.5a.5.5 0 0 1-.5.7l-3.7.7.3 1.7 3.8-.6a.5.5 0 0 1 .7.6l.3 1.7a.5.5 0 0 1-.5.7zM386.8 413.5l3.3-1.8a.5.5 0 0 1 1 .2l.7 1.4a.5.5 0 0 1-.2.8l-3.3 2 1 1.6 3.3-1.8a.5.5 0 0 1 .8.2l.8 1.5a.5.5 0 0 1 0 .8l-5.4 3a.5.5 0 0 1-.8-.2l-5.6-10a.5.5 0 0 1 .2-1l5.3-3a.5.5 0 0 1 .8.4l1 1.5a.5.5 0 0 1-.4.8l-3 1.8zM399.2 406.3l5.2 1a.6.6 0 0 1 .3 0v.6l-1.3 1.4a.8.8 0 0 1-1 .3l-4.8-1-.2.4 3.2 2.8a.5.5 0 0 1 0 1l-1 1a.5.5 0 0 1-1 .2l-8.7-7.3a.5.5 0 0 1 0-1l2.2-2.6a3.8 3.8 0 0 1 2.6-1.4 4 4 0 0 1 3 1 4 4 0 0 1 1.4 3.7m-4 1l.8-1a1 1 0 0 0-.2-1.5 1 1 0 0 0-.7-.2 1 1 0 0 0-.7.4l-.7 1z"/><path class="cls-9" d="M386 395.2l-1-1v.5a2 2 0 0 1-1-1 10 10 0 0 0-1-1.2 18.6 18.6 0 0 0-1.8-2.2 4 4 0 0 0-2.6-1h-1l-.7-.2c-.3 0-.6 0-1-.2l-.5-.2-1.2-.5-.4-2-.8-2.3a7.7 7.7 0 0 0 1.3-2.5 2.4 2.4 0 0 0-.7-2.2 2.2 2.2 0 0 0-.2-.3 3.4 3.4 0 0 1-1-1l-.3-.5a11.5 11.5 0 0 0-1.6-1.5 9.5 9.5 0 0 0-1-.5 4.3 4.3 0 0 0-1.2-.3 2 2 0 0 0-.7 0h-.2a.8.8 0 0 1-.7.2h-.2a.4.4 0 0 1-.2 0v-.2a2.2 2.2 0 0 0-.5-2.2 1.7 1.7 0 0 0-1.2-.3 1.8 1.8 0 0 0-.8.4l-.6.3a.4.4 0 0 0 0 .6v.7l.4 1.3s.5.6 1 .6a3.7 3.7 0 0 1-.7.7 6.3 6.3 0 0 0-.4.7 14.5 14.5 0 0 1-1.2 1.5 7.8 7.8 0 0 0-2.4 2 6 6 0 0 1-1 .5l-.3.3h-.2a2.3 2.3 0 0 0-.3.8 6.6 6.6 0 0 0-.2 1s0 .2.2 0a.6.6 0 0 0 .6.4h.2a.2.2 0 0 0 0-.2 1.4 1.4 0 0 0 0-.3 1.4 1.4 0 0 1 0-.4.3.3 0 0 1 .2 0 1.6 1.6 0 0 0 0 .3h.3a.5.5 0 0 0 0-.3c0-1 1.4-1.4 2.2-2a3.3 3.3 0 0 0 1.2-1c0-.3.4-.5.7-.7a3.6 3.6 0 0 1 1.5-1l1 .6a6.8 6.8 0 0 0 1.2.5c.3 0 .6.2.8.3a7.2 7.2 0 0 0-1.4 1 11.3 11.3 0 0 0-1.7 1.2c-.7.8 0 1.4.4 2a10.4 10.4 0 0 0-1.3-.3 12.6 12.6 0 0 0-1.5-.2 1.4 1.4 0 0 0-.3 0 1.5 1.5 0 0 0-1.5 1 1.4 1.4 0 0 1-.8 2.2 1.4 1.4 0 0 1-1 2.2 1.5 1.5 0 0 0 .6 1.6 1.4 1.4 0 0 0 .2.3 12.4 12.4 0 0 0 1.3 1 10 10 0 0 0 1.6.7 6 6 0 0 0 1.5.6 4.4 4.4 0 0 0 1.2 0 36.4 36.4 0 0 0 4 1.5l3.5 1.4.5.2 1 .3h.4l1 .8a4 4 0 0 0 2.5 1 18.4 18.4 0 0 0 3-.5 10 10 0 0 0 1.4-.4 2 2 0 0 1 1.4-.3l-.2.5h1.2l1.4.4 1-3zm-14-8c-1-.4-2.3-1-3.5-1.2a7.2 7.2 0 0 0-1-1.6c0-.2 0-.3-.2-.4v-.3l3.4-1h.5a2 2 0 0 0-.2 1.8l1.6 3-.5-.2"/><path class="cls-3" d="M372.6 407.7a21.6 21.6 0 1 1 21.6-21.6 21.6 21.6 0 0 1-21.6 21.7m0-41.4a19.8 19.8 0 1 0 19.8 19.8 20 20 0 0 0-19.8-19.7"/></g><path class="cls-5" d="M381.7 237.4c-7.2 17 5.7 40 5.7 40L366 330l-41.4-52.6s15.7-40 12.8-40"/><path class="cls-3" d="M387.4 277.4L366 330l-41.4-52.6s3.8-9.8 7.3-19.6c5 5 18.7 13 50 6.8a71.7 71.7 0 0 0 5.4 12.8z"/><path class="cls-7" d="M339 236l-6 19s32.2 13.2 46.8.4l-1-14z"/><path class="cls-5" d="M317.4 170.3s4.3 57 25.7 72.8 51.5 4.4 60-14c4.8-10.3-4-36.8-12.6-58.7-7.2-18-14.4-32.8-14.4-32.8s-51.4-10-58.6 32.8z"/><path class="cls-7" d="M319.3 185.6s4.6-7.4 4.6-14.5c0 0 17 0 18.4-18.5 0 0 21 20.3 47 16.6l-7-18-44.3-8.5-18.5 19-2.8 12.4z"/><path class="cls-5" d="M387.4 170.3s7-5.7 8.5 0 5.6 18 0 19.7-8.6-19.7-8.6-19.7z"/><path class="cls-7" d="M386.7 203.7s-19.7 4.8-24-12.2z"/><ellipse class="cls-10" cx="338.6" cy="182.7" rx="2.9" ry="5" transform="rotate(-10.55 338.686 182.723)"/><ellipse class="cls-10" cx="371.9" cy="173.7" rx="2.9" ry="5" transform="rotate(-10.55 371.96 173.724)"/><path class="cls-11" d="M354.5 179c1.5 1.3 35.8 20.6 34.3 20.2-.3 0-1.6.6-3.4 1.6a19.3 19.3 0 0 1-28-11.6z"/><path class="cls-12" d="M337.4 213.2c-.3-1.4 17 10 45.7 4.2 0 0 7.2 10 0 14.3s-37 14.3-45.6-18.5z"/><path class="cls-10" d="M339.7 166a20.3 20.3 0 0 1-2 1.7l-2 1.6-3.7 3a12.6 12.6 0 0 0-2.8 3.4 6 6 0 0 0-.6 2 9.4 9.4 0 0 0 .2 2.5 5.3 5.3 0 0 1-1.6-2.2 5.7 5.7 0 0 1-.2-3 9.4 9.4 0 0 1 3-5 16.5 16.5 0 0 1 4.6-2.8 16.8 16.8 0 0 1 5-1.2zM383.4 167.2a41.4 41.4 0 0 0-5.4-3 25.6 25.6 0 0 0-5.5-2 17.8 17.8 0 0 0-5.7-.2 32.5 32.5 0 0 0-6 1.5 12.3 12.3 0 0 1 5.5-3.8 13 13 0 0 1 6.8-.4 15.6 15.6 0 0 1 6.2 2.8 13.3 13.3 0 0 1 4.3 5.2z"/><path class="cls-7" d="M337.4 213.2s21.4 10 45.7 4.2c0 0 2.4 3.5 2.7 5.3 0 0-44 6.2-48.3-9.5z"/><path class="cls-13" d="M342.3 223a14.6 14.6 0 0 0 2.8 1.7 28 28 0 0 0 3 1.2 38.3 38.3 0 0 0 6.3 1.4 54.3 54.3 0 0 0 6.5.7c1 .2 2 .2 3.2.2h3.3l-3.3.3h-3.3a47.4 47.4 0 0 1-6.5-.6 35 35 0 0 1-6.3-1.8 19 19 0 0 1-5.7-3z"/><path class="cls-14" d="M340 143.4s-8.3-15-34.3-9.8a41.6 41.6 0 0 0-8.6 2.7 53 53 0 0 1-17 4.3s5.3 7.3 16.2 4.5c0 0-13.6 7.8-8 30.5 0 0 0-10 5.3-10 0 0 11 13.6-1.8 30a57 57 0 0 0 17.2-13s-8.2 7 2.7 26.2c0 0-5-22.3 7.2-21 0 0 28.2-37 21-44.3z"/><path class="cls-14" d="M332 137s19-25 46-6c0 0 10 11 15 6 0 0-1.3 7-13.2 5.5 0 0 14.2.5 11.2 16.5 0 0-13 1.8-50.6-9.6A99 99 0 0 1 332 137z"/><path class="cls-7" d="M393 172s-1.8 3.5 1.6 10.4 0-10.4-1.7-10.4z"/><path class="cls-14" d="M333 140s-3-18 5-23z"/><path class="cls-3" d="M387.4 277.4L366 330l-41.4-52.6s3.8-9.8 7.3-19.6c5 5 18.7 13 50 6.8a71.7 71.7 0 0 0 5.4 12.8z"/><path class="cls-5" d="M321.7 186s-14.2-4.3-10 14.3c0 0 5 9.3 12.5 8.2s-2.5-22.5-2.5-22.5z"/><path class="cls-15" d="M456.8 270.5L461 301l13.2-2.4-4-33s-9.6 2-13.4 5z"/><path class="cls-7" d="M319 190.3s-5.8-1.4-4.4 7.2a3 3 0 0 0 4.3 1.4s2.7 1.3 0 2.8c0 0 8.4 7 0-11.5z"/></g></svg>