<svg id="Layer_1" xmlns="http://www.w3.org/2000/svg" xmlns:xlink="http://www.w3.org/1999/xlink" viewBox="0 0 339 372.9"><style>.st1{fill:#2b2f47}.st3{fill:#edae7a}.st5{opacity:9.000000e-02;fill:#000102;enable-background:new}.st7{fill:#1e0000}.st11{fill:#775d46}</style><g id="Layer_2_1_"><path d="M110.7 78.5S108 89 101 89c0 0 12.5 3.6 13.7-3.7S107 93 112 105c0 0 4.5-13.5 7.7-13.2 0 0-6.7 19.2 6.3 35.2 0 0 6-5 7-10 0 0 1 10 7 16l7-11s-18.7-51-36.3-43.5zm90.1-4.1s5.4 9.2 11 7.3c0 0-8.7 6.8-12 .2s8.5 5 8.4 17.8c0 0-7.8-11.5-10.3-10.4 0 0 11.4 16.4 6.4 35 0 0-6.3-3.2-8.7-7.6 0 0 2.5 9.7-.3 17l-9-8.6s-2-53.2 14.4-50.8l.1.1z" fill="#604634"/><path class="st1" d="M259.8 155.5s11-10.4 77.2-7.5c0 0-5.3 27.6-73 37.6l-4.2-30.1z"/><path d="M125 162l-46.8 18-20 24.4L94 228.8l14.4-3 24.4 113H232l-4.3-88.4L232 233v-30l30.2-13-5.7-40.3-62.3 12.8-25 56.7L125 162z" fill="#ed6964"/><path class="st1" d="M60.5 210.5c-1.4 3-57.5 108-57.5 108s62.2-27 83-93.3l-25.5-14.7z"/><path class="st1" d="M3 318.4s36-27.3 83.4 13c0 0 10 13-26 11.4S3 318.4 3 318.4z"/><path class="st3" d="M86.4 331.3h36l11 34.6-41.3 7-5.6-41.7-.1.1z"/><path class="st1" d="M330 158s-44-23.5-60.2-83c0 0-1.4-45.3 67.2 73l-7 10z"/><path d="M60.5 210.5l-6 11.4 27.3 14.4 4.6-11.5-26-14.5.1.2z" opacity=".33" fill="#000102"/><path class="st5" d="M108.4 226l11.5-3 12.8 120.8-24.4-118 .1.2z"/><path class="st3" d="M275.3 95.2s-25.8-3-26.5-4.3l-11.6-19 10-17.6 10 2.5-2.2-14.6s2.4-9.8 4.4-9.3 9.8 10.8 9.8 10.8l.3 11.6 13.5 16-7.7 23.9zM124 336.4c1.2 3.5 24.3 9.3 24.3 9.3l-5.8 6.5L121 350l3-13.6z"/><defs><path id="SVGID_1_" d="M119.3 215h112.2v112H119.3z"/></defs><clipPath id="SVGID_2_"><use xlink:href="#SVGID_1_" overflow="visible"/></clipPath><g clip-path="url(#SVGID_2_)"><path class="st1" d="M145.4 277l4-.5c.2-.2.5-.1.7.1.1.1.1.3.1.4l.3 1.6c.1.3 0 .5-.3.7h-.2l-11.3 2c-.2.1-.5 0-.7-.2-.1-.1-.1-.3 0-.4l-.5-3.4c-.2-1 0-2 .6-2.8.6-.9 1.6-1.5 2.7-1.6 1-.2 2.1 0 3 .6.9.6 1.5 1.5 1.6 2.5v1zm-2.8.6l-.2-1c0-.3-.2-.6-.5-.7-.2-.2-.5-.2-.8-.2-.3.1-.6.2-.7.5-.1.2-.2.4-.2.6l.2 1 2.2-.2zm4.4-9.2l.4-3.2c-.1-.3.1-.5.3-.6h.4l1.7.2c.3-.1.5.1.6.3v.4l-.7 5.5c0 .3-.2.5-.5.5h-.2l-11.4-1.3c-.3.1-.5-.1-.6-.3v-.4l.2-1.7c0-.3.2-.5.5-.5h.2l9.1 1.1zm3-8.9l1.3 1.5c.3.3.3.7 0 1l-1 1.6c-.1.3-.3.3-.5.2h-.2l-7.8-10c-.2-.2-.2-.6 0-.8l.5-1c.2-.2.4-.3.7-.3l12.4 1.7h.2c.3.2.3.4 0 .7l-.8 1.7c-.1.3-.5.5-.8.4h-2l-2 3.3zm-3.3-4.3l1.5 2 1-1.7-2.5-.3zm8.5-3.9l.6-1.2.2-.2c.2-.1.4-.1.6 0 .4 0 .7-.1 1-.4.2-.2.3-.4.3-.7 0-.2-.1-.5-.3-.6-.3-.3-.6-.4-1-.3-.3.1-.7.2-1 .3-2.2.7-3.9.3-5-1-.7-.8-1-1.9-.8-3 .4-1.9 2.1-3.2 4-3.2.4 0 .7.1 1 .3.2.2.2.5 0 .7l-.8 1.6c0 .1-.1.2-.2.3h-.4c-.2 0-.4.1-.5.3-.1.1-.2.3-.2.5s.1.4.2.5c.2.2.5.3.8.3.3 0 .7-.1 1-.2h.2c.8-.2 1.6-.3 2.4-.2 1 .1 1.9.6 2.5 1.4.7.9.9 1.9.8 3-.1 1-.6 1.8-1.4 2.4-.9.8-2.1 1.1-3.3.8-.3-.1-.6-.2-.8-.4-.2-.2-.2-.5 0-.7m7.5-13.2l3.6 8.4c.2.2.1.5-.1.7-.1 0-.1.1-.2.1l-1.6.7c-.2.2-.5.1-.7-.1 0-.1-.1-.1-.1-.2l-3.7-8.4-2 .8c-.2.1-.5 0-.7-.2v-.1l-.7-1.5c-.2-.2-.1-.5.1-.7.1 0 .1-.1.2-.1l6.4-2.8c.2-.2.5-.2.7 0 0 0 .1.1.1.2l.7 1.6c.2.2.1.5-.1.7-.1.1-.3.1-.4.1l-1.5.8zm4.8-4.4l1.6-.3c.2-.2.5-.1.7.1.1.1.1.3.1.4l2 11.2c.1.3 0 .5-.3.7h-.1l-1.6.5c-.2.2-.5.1-.7-.1-.1-.1-.1-.3-.1-.4l-2.2-11.2c-.2-.2-.1-.5.1-.7.1-.1.3-.1.4-.1m16 1.3l-1.2 1.3c-.1.1-.2.2-.4.2-.1 0-.2-.1-.3-.2-.5-.4-1.1-.6-1.7-.7-1.9-.2-3.6 1.3-3.8 3.2v.2c-.1.9.1 1.9.7 2.6.6.7 1.5 1.1 2.4 1.2.6 0 1.2-.1 1.8-.4.2-.2.5-.1.7.1 0 .1.1.1.1.2l1 1.5c.1.2.1.3 0 .5 0 .2-.1.3-.2.4-.4.2-.8.4-1.3.5-.7.1-1.5.1-2.2 0-3.6.3-6.7-2.4-7-6-.3-3.6 2.4-6.7 6-7 .7-.1 1.4 0 2 .2 1.1.1 2.1.4 3 1 .5.3.7.6.7.8 0 .2-.1.3-.3.4M190 247l1.3.2h.3c.1.2.2.4.2.6.1.3.3.6.6.8.2.2.4.2.7.2.3 0 .5-.1.7-.3.2-.3.2-.7 0-1-.1-.3-.2-.7-.4-1-1.1-2-1.2-3.7-.2-5 .6-.9 1.5-1.5 2.6-1.6 2-.2 3.8 1.1 4.3 3 .1.3 0 .7-.2 1-.1.2-.4.3-.6.3l-1.8-.4c-.1 0-.2-.1-.3-.2v-.4c-.1-.2-.2-.4-.4-.5-.2-.2-.4-.3-.7-.2-.2.1-.4.2-.5.4-.1.3-.1.5 0 .8.1.3.3.5.4.8v.3c.5.7.8 1.5 1 2.4.1 1-.3 2-1 2.7-.6.9-1.5 1.5-2.5 1.7-1 .2-2-.1-2.8-.7-1-.7-1.5-1.8-1.5-3-.1-.3-.1-.7 0-1 .2-.3.5-.4.8-.2m18.2 4.6c.9 1.4 1.2 3.2.8 4.8-.7 3.5-4.1 5.8-7.7 5.1-.1 0-.2 0-.3-.1-3.4-.8-5.5-4.3-4.7-7.7.7-3.5 4.2-5.8 7.7-5h.1c1.7.4 3.1 1.5 4 3m-2.4 1.4c-.5-.7-1.2-1.3-2-1.5-1.9-.5-3.9.7-4.4 2.6v.1c-.3 1.8.8 3.6 2.6 4 .9.2 1.8.1 2.6-.4s1.5-1.3 1.7-2.2c.2-.9.1-1.8-.4-2.6m7.6 16.9L205 271c-1.1.2-2.2-.2-3-1-1.6-1.6-1.8-4.1-.5-6 .5-.8 1.4-1.3 2.3-1.4l8.2-1.3c.2-.2.5-.1.7.1.1.1.1.3.1.4l.2 1.6c.1.3 0 .5-.3.7h-.2l-8 1.4c-.4.1-.7.3-.8.7-.1.3-.1.7 0 1 0 .4.1.7.4 1 .3.2.7.2 1 0l8-1.2c.3-.1.5.1.6.4v.1l.3 1.7c.1.2 0 .5-.2.7-.1.1-.3.1-.4 0m-7.8 6.1l-4-.7c-.3.1-.5-.1-.6-.3v-.4l.3-1.7c-.1-.3.1-.5.3-.6h.4l11.3 2c.3 0 .5.2.5.5v.2l-.6 3.4c-.1 1-.7 1.9-1.5 2.5-.9.6-2 .7-3 .5-1.1-.2-2.1-.8-2.7-1.7-.6-.8-.8-1.8-.6-2.7l.2-1zm3 .5l-.3 1c-.1.3.1.6.3.8.2.2.4.3.6.3.3.1.6 0 .8-.2.2-.1.3-.3.4-.5v-1.2l-1.8-.2zm-62.8 15.1l1.2.6c.1 0 .2.1.3.2.1.2.1.4 0 .6 0 .4.1.7.4 1 .2.2.4.3.7.3.2 0 .4-.1.6-.2.3-.2.5-.6.4-1 0-.3-.1-.7-.2-1-.7-2.1-.3-3.7 1-4.8.8-.7 1.8-1.1 2.8-1 1 .1 1.9.7 2.5 1.5.6.8.9 1.8.8 2.8 0 .4-.1.7-.3 1-.2.2-.5.2-.7 0l-1.6-1h-.2c-.1-.2-.1-.3 0-.5 0-.2-.1-.4-.3-.5-.1-.2-.4-.3-.6-.3-.2 0-.4.1-.6.2-.2.2-.3.5-.2.8 0 .3.1.7.2 1v.2c.2.8.3 1.6.3 2.4-.1 1-.6 1.8-1.4 2.4-.8.7-1.9 1.1-3 1-1-.1-1.9-.6-2.5-1.4-.8-.9-1.1-2.1-.8-3.3 0-.4.2-.7.4-1 .2-.2.6-.2.8 0m19.5 4.6l-4.4 7.2c-.6 1.1-1.8 1.7-3 1.7-2.2.1-4.2-1.3-4.8-3.4-.2-.9-.1-1.9.4-2.7l4.4-7.3c-.1-.3.1-.5.4-.6s.5.1.6.4l1.3 1c.3.1.4.4.3.6 0 .1-.1.1-.1.2l-4.2 6.8c-.2.3-.2.7 0 1 .1.4.3.8.6 1 .3.1.5.1.8 0 .3 0 .6-.1.8-.4l4.2-7c0-.3.2-.5.5-.5s.5.2.5.5l1.3.8c.3.1.4.3.4.6 0 .1 0 .2-.1.2m6.8 8.3l1.8 5v.3c0 .1-.1.1-.4 0l-2-.2c-.3 0-.6-.3-.7-.6l-1.7-4.7h-.4l-.6 4c.1.3-.1.5-.3.6h-.4l-1.7-.2c-.3 0-.5-.2-.5-.5v-.2l2-11c-.2-.2-.1-.5.1-.7.2-.1.4-.1.6 0l3.6.6c1 .1 1.9.7 2.5 1.5.6.9.8 2 .6 3-.2 1.3-1.1 2.5-2.4 3m-3-2.8l1.3.2c.5.1 1.1-.2 1.2-.8v-.2c.1-.3.1-.5 0-.8-.2-.3-.6-.5-1-.4l-1-.2-.5 2.2zm11.5 2.9l.7 4.3c.1.3-.1.5-.4.6h-.1l-1.7.2c-.3.1-.5-.1-.6-.4v-.1l-2-11.2c-.1-.3.1-.5.4-.6h.2l6-1c.3-.1.5 0 .7.3v.2l.3 1.5c.1.3 0 .5-.3.7h-.2l-3.7.7.3 1.7 3.8-.6c.2-.1.5 0 .7.2.1.1.1.3 0 .4l.3 1.7c.1.3 0 .5-.3.7h-.2l-3.9.7zm9.2-6.1l3.3-1.8c.1-.3.3-.5.6-.4s.5.3.4.6l.7 1.4c.2.2.2.5 0 .7 0 0-.1.1-.2.1l-3.3 2 1 1.6 3.3-1.8c.2-.2.5-.2.7 0 0 0 .1.1.1.2l.8 1.5c.2.2.3.5.1.7l-.1.1-5.4 3c-.2.2-.5.2-.7 0 0 0-.1-.1-.1-.2l-5.6-10c-.3-.1-.5-.3-.4-.6s.3-.5.6-.4l5.3-3c.2-.2.5-.1.7.1.1.1.1.2.1.3l1 1.5c.2.2.1.5-.1.7-.1.1-.2.1-.3.1l-3 1.8.5 1.8zm12.4-7.2l5.2 1h.3v.6l-1.3 1.4c-.2.3-.6.5-1 .3l-4.8-1-.2.4 3.2 2.8c.3 0 .5.2.5.5s-.2.5-.5.5l-1 1c.1.3-.1.5-.4.6s-.5-.1-.6-.4l-8.7-7.3c-.3 0-.5-.2-.5-.5s.2-.5.5-.5l2.2-2.6c.6-.8 1.6-1.3 2.6-1.4 1.1-.1 2.2.3 3 1 1.1.9 1.6 2.3 1.4 3.7m-4 1l.8-1c.4-.4.3-1-.1-1.4l-.1-.1c-.2-.2-.4-.2-.7-.2-.3 0-.5.2-.7.4l-.7 1 1.5 1.3zM189 280.2l-1-1v.5c-.4-.2-.8-.6-1-1-.3-.4-.6-.8-1-1.2-.5-.8-1.1-1.5-1.8-2.2-.7-.6-1.6-1-2.6-1h-1l-.7-.2c-.3 0-.6 0-1-.2l-.5-.2-1.2-.5-.4-2-.8-2.3c.6-.7 1-1.6 1.3-2.5.2-.8-.1-1.6-.7-2.2-.1-.1-.1-.2-.2-.3-.4-.3-.7-.6-1-1l-.3-.5c-.5-.5-1-1.1-1.6-1.5-.3-.2-.7-.4-1-.5-.4-.2-.8-.3-1.2-.3H170.4c-.2.2-.4.2-.7.2h-.4v-.2c.3-.8.1-1.6-.5-2.2-.3-.2-.8-.4-1.2-.3-.3.1-.6.2-.8.4l-.6.3c-.2.1-.2.4 0 .6v.7l.4 1.3s.5.6 1 .6c-.2.3-.4.5-.7.7-.1.2-.3.5-.4.7l-1.2 1.5c-.9.5-1.7 1.2-2.4 2-.3.2-.7.4-1 .5l-.3.3h-.2c-.1.2-.3.5-.3.8-.1.3-.2.7-.2 1 0 0 0 .2.2 0 .1.3.3.4.6.4h.2v-.2-.3-.4h.2v.3h.3v-.3c0-1 1.4-1.4 2.2-2 .5-.2.9-.6 1.2-1 0-.3.4-.5.7-.7.4-.5.9-.8 1.5-1l1 .6c.4.2.8.4 1.2.5.3 0 .6.2.8.3-.5.3-1 .6-1.4 1-.6.3-1.2.7-1.7 1.2-.7.8 0 1.4.4 2-.4-.1-.9-.2-1.3-.3-.5-.1-1-.2-1.5-.2h-.3c-.7 0-1.3.4-1.5 1 .5.6.3 1.5-.3 2-.2.1-.3.2-.5.2.4.6.3 1.5-.3 2-.2.1-.4.2-.7.2-.2.6.1 1.2.6 1.6.1.1.1.2.2.3.4.4.8.7 1.3 1 .5.3 1 .5 1.6.7.5.3 1 .5 1.5.6.4.1.8.1 1.2 0 1.3.6 2.6 1.1 4 1.5l3.5 1.4.5.2 1 .3h.4l1 .8c.7.6 1.6 1 2.5 1 1-.1 2-.3 3-.5.5-.1.9-.2 1.4-.4.4-.3.9-.4 1.4-.3l-.2.5h1.2l1.4.4 1-3-1.4-.2zm-14-8c-1-.4-2.3-1-3.5-1.2-.3-.6-.6-1.1-1-1.6 0-.2 0-.3-.2-.4v-.3l3.4-1h.5c-.4.5-.4 1.2-.2 1.8l1.6 3-.6-.3"/><path class="st1" d="M175.6 292.7c-11.9 0-21.6-9.7-21.6-21.6s9.7-21.6 21.6-21.6 21.6 9.7 21.6 21.6c.1 11.9-9.6 21.6-21.5 21.7h-.1m0-41.4c-10.9 0-19.8 8.9-19.8 19.8s8.9 19.8 19.8 19.8 19.8-8.9 19.8-19.8c-.2-10.9-8.9-19.6-19.8-19.8"/></g><path class="st3" d="M184.7 122.4c-7.2 17 5.7 40 5.7 40L169 215l-41.4-52.6s15.7-40 12.8-40"/><path class="st1" d="M190.4 162.4L169 215l-41.4-52.6s3.8-9.8 7.3-19.6c5 5 18.7 13 50 6.8 1.4 4.4 3.2 8.7 5.4 12.8h.1z"/><path class="st5" d="M142 121l-6 19s32.2 13.2 46.8.4l-1-14L142 121z"/><path class="st3" d="M120.4 55.3s4.3 57 25.7 72.8 51.5 4.4 60-14c4.8-10.3-4-36.8-12.6-58.7-7.2-18-14.4-32.8-14.4-32.8s-51.4-10-58.6 32.8l-.1-.1z"/><path class="st5" d="M122.3 70.6s4.6-7.4 4.6-14.5c0 0 17 0 18.4-18.5 0 0 21 20.3 47 16.6l-7-18-44.3-8.5-18.5 19-2.8 12.4 2.6 11.5z"/><path class="st3" d="M190.4 55.3s7-5.7 8.5 0 5.6 18 0 19.7-8.6-19.7-8.6-19.7h.1z"/><path class="st5" d="M189.7 88.7s-19.7 4.8-24-12.2l24 12.2z"/><ellipse transform="rotate(-10.549 141.594 67.71)" class="st7" cx="141.6" cy="67.7" rx="2.9" ry="5"/><ellipse transform="rotate(-10.549 174.892 58.704)" class="st7" cx="174.9" cy="58.7" rx="2.9" ry="5"/><path d="M157.5 64c1.5 1.3 35.8 20.6 34.3 20.2-.3 0-1.6.6-3.4 1.6-9.3 5.2-21.1 1.9-26.3-7.4-.7-1.3-1.3-2.7-1.7-4.2L157.5 64z" fill="#d88344"/><path d="M140.4 98.2c-.3-1.4 17 10 45.7 4.2 0 0 7.2 10 0 14.3s-37 14.3-45.6-18.5h-.1z" fill="#fff"/><path class="st7" d="M142.7 51c-.6.6-1.3 1.2-2 1.7l-2 1.6-3.7 3c-1.1 1-2.1 2.1-2.8 3.4-.3.6-.5 1.3-.6 2 0 .8 0 1.7.2 2.5-.7-.6-1.3-1.3-1.6-2.2-.3-1-.4-2-.2-3 .4-1.9 1.5-3.7 3-5 1.4-1.2 2.9-2.1 4.6-2.8 1.6-.7 3.3-1.1 5-1.2h.1zm43.7 1.2c-1.7-1.1-3.5-2.1-5.4-3-1.8-.9-3.6-1.5-5.5-2-1.9-.4-3.8-.4-5.7-.2-2 .3-4.1.8-6 1.5 1.4-1.8 3.4-3.1 5.5-3.8 2.2-.7 4.5-.9 6.8-.4 2.2.5 4.4 1.4 6.2 2.8 1.9 1.3 3.3 3.1 4.3 5.2l-.2-.1z"/><path class="st5" d="M140.4 98.2s21.4 10 45.7 4.2c0 0 2.4 3.5 2.7 5.3 0 0-44 6.2-48.3-9.5h-.1z"/><path d="M145.3 108c.9.7 1.8 1.2 2.8 1.7 1 .5 2 .9 3 1.2 2.1.6 4.2 1.1 6.3 1.4 2.2.4 4.3.6 6.5.7 1 .2 2 .2 3.2.2h3.3l-3.3.3h-3.3c-2.2-.1-4.3-.3-6.5-.6-2.2-.4-4.3-1-6.3-1.8-2.1-.7-4-1.7-5.7-3.1z" fill="#7f7f7f"/><path class="st11" d="M143 28.4s-8.3-15-34.3-9.8c-3 .6-5.8 1.5-8.6 2.7-5.4 2.4-11.1 3.8-17 4.3 0 0 5.3 7.3 16.2 4.5 0 0-13.6 7.8-8 30.5 0 0 0-10 5.3-10 0 0 11 13.6-1.8 30 6.5-3.2 12.3-7.6 17.2-13 0 0-8.2 7 2.7 26.2 0 0-5-22.3 7.2-21 0 0 28.2-37 21.1-44.4z"/><path class="st11" d="M135 22s19-25 46-6c0 0 10 11 15 6 0 0-1.3 7-13.2 5.5 0 0 14.2.5 11.2 16.5 0 0-13 1.8-50.6-9.6-3.1-3.9-5.9-8.1-8.4-12.4z"/><path class="st5" d="M196 57s-1.8 3.5 1.6 10.4 0-10.4-1.7-10.4h.1z"/><path class="st11" d="M136 25s-3-18 5-23l-5 23z"/><path class="st1" d="M190.4 162.4L169 215l-41.4-52.6s3.8-9.8 7.3-19.6c5 5 18.7 13 50 6.8 1.4 4.4 3.2 8.7 5.4 12.8h.1z"/><path class="st3" d="M124.7 71s-14.2-4.3-10 14.3c0 0 5 9.3 12.5 8.2S124.7 71 124.7 71z"/><path d="M259.8 155.5L264 186l13.2-2.4-4-33s-9.6 2-13.4 5v-.1z" opacity=".4" fill="#000102"/><path class="st5" d="M122 75.3s-5.8-1.4-4.4 7.2c.6 1.5 2.4 2.2 3.9 1.6.1-.1.2-.1.4-.2 0 0 2.7 1.3 0 2.8 0 0 8.4 7 0-11.5l.1.1z"/></g></svg>