<svg id="Capa_1" data-name="Capa 1" xmlns="http://www.w3.org/2000/svg" width="98.83" height="80.42" viewBox="0 0 98.83 80.42"><title>2Artboard 1</title><path d="M96.73,48C91.48,66.79,78.54,80.42,66,80.42a17.27,17.27,0,0,1-3-.26,2,2,0,0,1-1.58-2.51L64,68.38a2,2,0,0,1,2-1.46h.21c4.66,0,13.19-7,17.54-22.54.17-.62.33-1.25.49-1.91a22.7,22.7,0,0,1-16,1.51A22.4,22.4,0,1,1,80.3.83C88.14,3,94,9.54,96.9,19.17,99.49,27.86,99.42,38.38,96.73,48Z" style="fill:#f8bebc"/><path d="M14.11,80.42a17.26,17.26,0,0,1-3-.26,2,2,0,0,1-1.58-2.51l2.59-9.27a2,2,0,0,1,2-1.46h.2c4.66,0,13.19-7,17.54-22.54.17-.62.34-1.25.49-1.91a22.7,22.7,0,0,1-16,1.51A22.4,22.4,0,1,1,28.46.83C36.29,3,42.19,9.54,45.05,19.17c2.58,8.69,2.52,19.21-.17,28.85C39.63,66.79,26.69,80.42,14.11,80.42Z" style="fill:#f8bebc"/></svg>