<svg id="Capa_1" data-name="Capa 1" xmlns="http://www.w3.org/2000/svg" width="98.83" height="80.42" viewBox="0 0 98.83 80.42"><title>2Artboard 1</title><path d="M2.1,32.4C7.35,13.63,20.29,0,32.87,0a17.27,17.27,0,0,1,3,.26,2,2,0,0,1,1.58,2.51L34.86,12a2,2,0,0,1-2,1.46h-.21c-4.66,0-13.19,7-17.54,22.54-.17.62-.33,1.25-.49,1.91a22.7,22.7,0,0,1,16-1.51A22.4,22.4,0,1,1,18.53,79.59c-7.84-2.19-13.74-8.71-16.6-18.34C-.66,52.56-.59,42,2.1,32.4Z" style="fill:#f8bebc"/><path d="M84.72,0a17.26,17.26,0,0,1,3,.26A2,2,0,0,1,89.3,2.77L86.71,12a2,2,0,0,1-2,1.46h-.2c-4.66,0-13.19,7-17.54,22.54-.17.62-.34,1.25-.49,1.91a22.7,22.7,0,0,1,16-1.51A22.4,22.4,0,1,1,70.37,79.59c-7.84-2.19-13.73-8.71-16.6-18.34-2.58-8.69-2.52-19.21.17-28.85C59.2,13.63,72.14,0,84.72,0Z" style="fill:#f8bebc"/></svg>