<svg width="59" height="50" viewBox="0 0 59 50" xmlns="http://www.w3.org/2000/svg"><g fill-rule="nonzero" fill="#f26f69"><path d="M9 12.8c-2.3 0-4-1.8-4-4 0-2 1.7-4 4-4 2 0 3.8 2 3.8 4 0 2.2-1.8 4-4 4zm0-5.3C8 7.5 7.4 8 7.4 9 7.5 9.5 8 10 9 10c.6 0 1.2-.6 1.2-1.3 0-1-.6-1.5-1.3-1.5z"/><path d="M9.2 26.3c-.4 0-.8-.2-1-.6C7 24.5 0 13.7 0 9.2 0 4.2 4 0 9.2 0c5 0 9.2 4 9.2 9.2 0 4.6-7.3 15.3-8 16.5-.4.4-.8.6-1.2.6zm0-23.7c-3.6 0-6.6 3-6.6 6.6 0 2.5 3.7 9 6.6 13.4 3-4.4 6.6-11 6.6-13.4 0-3.6-3-6.6-6.6-6.6zM46.4 31.6c-3.7 0-6.6-3-6.6-6.6 0-3.6 3-6.6 6.6-6.6 3.6 0 6.5 3 6.5 6.6 0 3.6-3 6.6-6.6 6.6zm0-10.5c-2.2 0-4 1.8-4 4s1.8 4 4 4c2 0 4-1.8 4-4s-2-4-4-4z"/><path d="M46.4 50c-.5 0-1-.2-1.2-.6-1-2-10.7-18.4-10.7-24.4 0-6.5 5.3-11.8 12-11.8C52.8 13.2 58 18.5 58 25c0 6-9.6 22.5-10.7 24.4-.2.4-.7.6-1 .6zm0-34.2c-5 0-9.2 4-9.2 9.2 0 4 5.8 15.2 9.2 21 3.3-5.8 9.2-17 9.2-21 0-5-4.2-9.2-9.2-9.2zM41 50c-2 0-3.7-.2-5.4-.5-.7 0-1-.8-1-1.5.2-.8.8-1.2 1.6-1 1.4.2 3 .4 5 .4.6 0 1.2.6 1.2 1.3 0 .7-.6 1.3-1.3 1.3zm-10-2.3c-.2 0-.4 0-.7-.2-1.6-1-3-2.5-4-4.3-.3-.6 0-1.4.6-1.7.5-.4 1.3-.2 1.7.4.7 1.3 1.8 2.4 3 3.2.7.4 1 1.2.5 2-.3.3-.7.5-1 .5zm-5.4-8.3c-.5.3-1.2.2-1.7-.2-1.5-1.3-2.7-3-3.7-4-.4-.6-.3-1.5.2-2 .6-.4 1.4-.3 2 .3.8 1 2 2.6 3.3 3.8.5.5.5 1.4 0 2h-.2zm-6-8.2c-.4.6-1 .8-1.7.4l-4.7-2.2c-.7-.2-1-1-.7-1.7.2-.7 1-1 1.7-.7 1.4.5 3 1.2 5 2.3.5.4.7 1.2.4 1.8v.2z"/></g></svg>