<svg data-name="Layer 1" xmlns="http://www.w3.org/2000/svg" xmlns:xlink="http://www.w3.org/1999/xlink" width="1440" height="693" viewBox="0 0 1440 693"><defs><linearGradient id="a" x1="538.2" y1="444.2" x2="538.2" y2="445" gradientTransform="matrix(1940.12 0 0 693.16 -1043416 -307811.7)" gradientUnits="userSpaceOnUse"><stop offset="0" stop-color="#36afc5" stop-opacity=".1"/><stop offset="1" stop-color="#36afc5"/></linearGradient><linearGradient id="b" x1="538.2" y1="445.6" x2="538.3" y2="444.8" gradientTransform="matrix(1831.65 128.08 45.76 -654.4 -1005421.94 222785.48)" xlink:href="#a"/></defs><g data-name="vd soupsurfer home active-map v0.2"><path d="M-75.5 277l15.3-257.2S100.6-54 678 89.4s1080-30.6 1080-30.6l14 358.5-92.4.6-15.3 257s-160.8 73.7-738-69.6S-154 636-154 636l-14-358.5z" style="isolation:isolate" opacity=".5" fill="url(#a)"/><path data-name="Mask" d="M-89.4 355.8L-92 599.6s147 80.2 701.5-17S1627.3 683 1627.3 683l37-337.7-87.5-6.6 2.6-244s-147-80-701.5 17-1018-100-1018-100L-176.6 349z" fill="url(#b)"/></g></svg>