<svg xmlns="http://www.w3.org/2000/svg" viewBox="0 0 716.2 461"><defs><style>.a{fill:#edae7a}.d,.e,.y{fill:#1e0000}.d{opacity:.04}.e{opacity:.1}.q{fill:#ed6964}.r{fill:#000102;opacity:.09}.s{fill:#dbdbda}.v{fill:#f4f4f4}.x{opacity:.35}.ad{fill:#775d46}</style><clipPath id="a"><path class="a" d="M326.55 265l-.18.08c-1.5 4-8.93 19-37.7 26.89v.12l-38 15v21l-3 12 3 60-69 5-17-82-20.3 10.63C132 361.91 109 378 97.58 384.54c9.62-3.72 28.49-6.62 51.12 12.58 0 0 7 9-18 8a61.78 61.78 0 0 1-40-17c.74-1.4 39-73 40-75l13-22 36-10 26 13 18-13 58-13v.15c7-2.3 16.85-5.18 34-5.15-2.75-10.47-5-36 6-66 0 0 22.71-25.5 4.85 67.88z"/></clipPath></defs><path d="M561.47 433.93s-208.13-3.93-208.13-16.6-3-170-3-170l-7-10.44-10.5-177.52c0-12.13 20.32-46.45 32.45-46.45h195.08c12.13 0 31.1 13 31.1 25.08l.09 210.37-1.47 13.16 1.38 145.8c0 12.13-30 26.6-30 26.6z" fill="#36afc5"/><path d="M591.78 107.07L562.56 117l-141.32 3.61s-49.24 2.69-49.24 47 28.24 54.51 62.39 58.58c23.78 2.83 85.32 2.39 124 1.84 20.49-.29 32.24-9.89 32.24-9.89" opacity=".2" stroke-miterlimit="10" stroke="#36afc5" stroke-linecap="square" stroke-width="3" fill="#fff"/><ellipse class="d" cx="445.58" cy="173.78" rx="51.45" ry="40.48"/><ellipse class="e" cx="446.2" cy="176.46" rx="43.83" ry="36.8"/><text transform="translate(354.21 88.51)" font-family="Nanami-Rounded-Blk,Nanami Rounded" font-size="23" fill="#fff" opacity=".9"><tspan letter-spacing="-.01em">B</tspan><tspan x="12.15" y="0" letter-spacing="-.04em">O</tspan><tspan x="30.05" y="0">TTLES &amp; </tspan><tspan x="117.37" y="0" letter-spacing="-.01em">C</tspan><tspan x="132.45" y="0">ANS</tspan></text><path d="M455.85 306.27l18.13 3a5.41 5.41 0 0 0 5.94-3.45l6.41-17.2a1.66 1.66 0 0 0-2.39-2l-5.43 3.15-7.36-12.71a10.31 10.31 0 0 0-8.94-5.12l-15.66.05a10.46 10.46 0 0 0-1.93.21l16.09 27.85-5.43 3.15a1.65 1.65 0 0 0 .58 3.07zm-18.19-29.12l-10.61 18.45a2.91 2.91 0 0 0 1.12 4l12.9 7.14a2.92 2.92 0 0 0 3.91-1.09l5.89-10.23-11.68-20.29a10 10 0 0 0-1.53 2zm-30.29 62.18l7.87 13.55a9.87 9.87 0 0 0 1.16 1.58l16.08-27.88 5.44 3.12a1.64 1.64 0 0 0 2.36-2l-6.5-17.17a5.41 5.41 0 0 0-6-3.42l-18.1 3a1.65 1.65 0 0 0-.55 3.07l5.44 3.12-7.22 12.7a10.28 10.28 0 0 0 0 10.34zM445.46 358a2.94 2.94 0 0 0 2.91-3l-.27-14.74a2.92 2.92 0 0 0-2.93-2.87h-11.8l-11.71 20.31a10.09 10.09 0 0 0 2.51.31zm56.34-20.5h-32.19v-6.28a1.66 1.66 0 0 0-1.12-1.52 1.64 1.64 0 0 0-1.81.52l-11.64 14.19a5.41 5.41 0 0 0 0 6.87l11.71 14.16a1.65 1.65 0 0 0 2.93-1.06v-6.28l14.64-.05a10.3 10.3 0 0 0 8.9-5.17l7.78-13.59a10.76 10.76 0 0 0 .83-1.79zm.18-6.17h-23.43l-5.93-10.21a2.93 2.93 0 0 1 1-4l12.63-7.6a2.92 2.92 0 0 1 4 1L501 329a10.31 10.31 0 0 1 1 2.34z" opacity=".2" fill="#fff"/><path d="M548 187.27h-40.25a2 2 0 0 1-2-2v-29a2 2 0 0 1 2-2l40.29-1a2 2 0 0 1 2 2v30a2 2 0 0 1-2.04 2z" stroke="#5d94a3" stroke-miterlimit="10" fill="#fff"/><text transform="translate(521.16 183.6)" font-size="10" fill="#4f4f4f" font-family="Nanami-Rounded-Blk,Nanami Rounded">€0,15</text><circle class="e" cx="514.55" cy="209.22" r="8.58"/><circle cx="513.47" cy="207.71" r="8.07" fill="#b8e986" stroke="#a4e085" stroke-miterlimit="10"/><path class="e" d="M529.13 203.96h22.33v2.62h-22.33z"/><path opacity=".3" fill="#1e0000" d="M529.13 205.27h22.33v1.31h-22.33z"/><path class="e" d="M570 17.44l-2.41 44-9 179.19a1.88 1.88 0 0 0 .24 1l5.38 9.75a2 2 0 0 1 .24 1L560 432a1.89 1.89 0 0 0 2.63 1.8s27.87-18 28.93-23.65C590.16 268.42 595 61 590.47 34l-17.2-17.74a1.88 1.88 0 0 0-3.27 1.18z"/><path class="d" d="M343.33 236.88l215.57 5.08 5.62 11.33-214.19-5.96-7-10.45z"/><circle cx="445.58" cy="180.42" r="30.95" fill="#2b2f47"/><path class="q" d="M460.37 207.49l-8.86 6.71c-7.2 2.84-19.86-3.86-20.92-12.64l-3.59-4.75c-1-8.11 7.1-15.55 14.08-16.24l5.31-.53 3.18-.32 1.54-.16 4.32-.43c5.84-.58 11.17 3.79 12.69 10.4l.16.7a15.82 15.82 0 0 1-3.78 14.47c-.22.23-1.27.21-1.66.54s-.14 1-.56 1.17a.94.94 0 0 1-1.24-.33c-.35-.59-.04 1.15-.67 1.41z"/><path class="r" d="M468.67 195.19l-10.35 6.47-16.16 12.65s5.57 2.37 12.13-1.56c13.86-8.31 14.86-10.81 14.38-17.56z"/><circle class="s" cx="442.16" cy="198.51" r="16.46"/><circle class="r" cx="442.26" cy="198.51" r="14.95"/><path d="M433.13 203.78c-.35-10.46 1.14-18.17 7.13-18.57 7.46-.5 8.07 7.6 8.42 18s-15.21 11.02-15.55.57z" stroke="#fff" fill="none" opacity=".1" stroke-miterlimit="10"/><path d="M445.54 190.08c.44 2.35-1.47 4.68-4.28 5.2s-5.43-1-5.87-3.31 1.35-5.73 4.2-5.85c4.93-.2 5.52 1.61 5.95 3.96z" opacity=".8" fill="#2b2f47"/><path class="r" d="M442.66 195.67l-2.25-.09a6.1 6.1 0 0 0-2.41.42 1.06 1.06 0 0 0-.66.76 59.52 59.52 0 0 0-1.55 11.43c0 5.15 5.8 1.39 10.42.67 4.07-.64-1.34-10.31-2.7-12.64a1.07 1.07 0 0 0-.85-.55zm-3 1.77l1.62-.13a1.06 1.06 0 0 1 1.11.77l.17.62a1.06 1.06 0 0 1-.85 1.34l-1.86.29a1.07 1.07 0 0 1-1.23-1.13l.07-.79a1.06 1.06 0 0 1 .99-.97zm-1.8 9.81l.26-3.45a1.05 1.05 0 0 1 .87-1l4.08-.74a1.06 1.06 0 0 1 1.13.55l1.39 2.63a1.06 1.06 0 0 1-.57 1.49 44.34 44.34 0 0 1-5.88 1.61 1.06 1.06 0 0 1-1.26-1.09z"/><path class="s" d="M442.74 195.52l-2.22-.28a6 6 0 0 0-2.42.19 1 1 0 0 0-.72.7 59.89 59.89 0 0 0-2.5 11.26c-.43 5.13 5.67 1.86 10.34 1.53 4.1-.29-.48-10.39-1.65-12.81a1 1 0 0 0-.83-.59zm-3.11 1.48h1.62a1.07 1.07 0 0 1 1.05.86l.12.63a1.07 1.07 0 0 1-1 1.27l-1.88.14a1.07 1.07 0 0 1-1.13-1.24l.13-.77a1.07 1.07 0 0 1 1.09-.89zm-2.63 9.65l.55-3.41a1 1 0 0 1 .95-.89l4.13-.4a1 1 0 0 1 1.08.64l1.16 2.74a1.07 1.07 0 0 1-.69 1.44 47.62 47.62 0 0 1-6 1.11 1.07 1.07 0 0 1-1.18-1.23z"/><path class="q" d="M375 120.13l7 5.87a3.51 3.51 0 0 1 .44 5l-3.88 4.64-12.46-10.44 3.88-4.63a3.52 3.52 0 0 1 5-.44z"/><path class="q" d="M378.11 135.08l-11.38-9.54a1.74 1.74 0 1 0-2.23 2.66l11.39 9.54a1.73 1.73 0 1 0 2.22-2.66z"/><path class="v" d="M357.5 168.76a12.25 12.25 0 0 0 3.37-2.79l8.44-10.08a12.12 12.12 0 0 0 2.74-6.25l1.12-8.74a4.54 4.54 0 0 1 1-2.34l1.11-1.33-10.2-8.55L364 130a4.54 4.54 0 0 1-2.13 1.42l-8.41 2.64a12.11 12.11 0 0 0-5.67 3.79l-8.44 10.08a12.23 12.23 0 0 0-2.17 3.81l-.61 1.79a12.12 12.12 0 0 1-4.36 5.86 60.91 60.91 0 0 0-11.06 10.28l-1 1.22a9.72 9.72 0 0 0 1.22 13.7l6.62 5.55a9.74 9.74 0 0 0 13.71-1.21l1-1.22a60.66 60.66 0 0 0 8.15-12.71 12.13 12.13 0 0 1 5-5.32z"/><path class="q" d="M336.753 150.66l12.156-14.512 21.733 18.204-12.155 14.511z"/><path class="a" d="M326.55 265l-.18.08c-1.5 4-8.93 19-37.7 26.89v.12l-38 15v21l-3 12 3 60-69 5-17-82-20.3 10.63C132 361.91 109 378 97.58 384.54c9.62-3.72 28.49-6.62 51.12 12.58 0 0 7 9-18 8a61.78 61.78 0 0 1-40-17c.74-1.4 39-73 40-75l13-22 36-10 26 13 18-13 58-13v.15c7-2.3 16.85-5.18 34-5.15-2.75-10.47-5-36 6-66 0 0 22.71-25.5 4.85 67.88z"/><g clip-path="url(#a)"><g class="x"><path class="a" d="M199.7 240.31l-3 236.81M193.7 236.12l-3 236.81M185.7 236.12l-3 236.81M180.7 236.12l-3 236.81M175.7 236.12l-3 236.81M168.7 236.12l-3 236.81"/></g><g class="x"><path class="a" d="M251.7 188.12l-3 238.77M246.7 188.12l-3 238.77M241.7 188.12l-3 238.77M234.7 188.12l-3 238.77M227.7 188.12l-3 238.77M220.7 188.12l-3 238.77M213.7 188.12l-3 238.77M206.7 188.12l-3 238.77M361.97 258.87l-111.62 40.34M359.79 253.28L250.2 292.82M364.15 264.46l-113.99 41.26M366.33 270.05l-103.35 37.11M368.51 275.63l-103.35 37.12M370.7 281.22l-103.36 37.12M349.25 226.26l-103.36 37.11M347.07 220.67l-103.36 37.12M351.43 231.85l-103.36 37.11M353.61 237.44l-103.35 37.11M349.25 201.26l-103.36 37.11M347.07 195.67l-103.36 37.12M351.43 206.85l-103.36 37.11M353.61 212.44l-103.35 37.11M355.79 243.03l-105.53 37.96M357.97 248.62l-107.56 38.75M167.93 300.46l-88.12 99.03M168.22 290.86L76.66 393.95M167.72 309.98l-84.98 95.34M167.35 319.67L94.71 400.5M131.58 368.41L92.71 409.5M137.58 369.41L98.71 410.5M144.58 370.41l-38.87 41.09M150.58 372.41l-38.87 41.09M156.58 374.41l-38.87 41.09M163.58 375.41l-38.87 41.09M132.28 288.37L58.9 370.06M136.85 292.25l-73.38 81.7M148.51 287.8l-80.47 90.04M161.69 281.56L71.1 383.5M165.62 286.2L74.26 389.05"/></g></g><path class="a" d="M320.75 220.74V184.8l34.58-11.06 7.11 41.25-41.69 5.75z"/><path class="a" d="M325.85 183.17c3.53-1.25 9.28-24.25 9.28-24.25l6.47 5.75-2.16 21.56zM231.3 243.6c-7.13 17.12 5.71 40 5.71 40l-21.36 52.63-41.43-52.63s15.7-40 12.85-40"/><path class="r" d="M188.65 242.18l-6 19s32.18 13.16 46.84.43l-1-14.16z"/><path class="a" d="M167.09 176.53s4.28 57.08 25.68 72.77 51.38 4.29 59.94-14.27c4.69-10.17-3.92-36.66-12.65-58.51-7.19-18-14.46-32.81-14.46-32.81s-51.38-9.99-58.51 32.82z"/><path class="a" d="M237 176.53s7.14-5.71 8.56 0 5.71 17.84 0 19.62-8.56-19.62-8.56-19.62z"/><path class="r" d="M236.35 209.92s-19.67 4.75-24.12-12.2z"/><ellipse class="y" cx="188.27" cy="188.85" rx="2.85" ry="4.99" transform="rotate(-10.55 188.303 188.883)"/><ellipse class="y" cx="221.54" cy="179.9" rx="2.85" ry="4.99" transform="rotate(-10.55 221.571 179.938)"/><path d="M204.19 185.09c1.43 1.43 35.74 20.69 34.28 20.33-.37-.08-1.63.56-3.44 1.57a19.3 19.3 0 0 1-27.89-11.57z" fill="#d88344"/><path d="M187.07 219.34c-.36-1.38 17.12 10 45.66 4.28 0 0 7.14 10 0 14.27s-37.1 14.27-45.66-18.55z" fill="#fff"/><path class="y" d="M189.39 172.15a21.17 21.17 0 0 1-2 1.74c-.68.51-1.31 1.08-2 1.56-1.32 1-2.58 2-3.74 3a12.68 12.68 0 0 0-2.78 3.37 6 6 0 0 0-.59 2.06 9 9 0 0 0 .17 2.48 5.21 5.21 0 0 1-1.63-2.25 5.7 5.7 0 0 1-.2-3 9.38 9.38 0 0 1 3-4.88 16.68 16.68 0 0 1 4.58-2.85 17.13 17.13 0 0 1 5.19-1.23zM233.1 173.39a41.43 41.43 0 0 0-5.44-3.06 25.26 25.26 0 0 0-5.52-1.9 17.56 17.56 0 0 0-5.7-.22 32.69 32.69 0 0 0-6 1.45 12.42 12.42 0 0 1 5.46-3.75 13.17 13.17 0 0 1 6.85-.42 15.55 15.55 0 0 1 6.15 2.84 13.31 13.31 0 0 1 4.2 5.06z"/><path class="r" d="M187.07 219.34s21.4 10 45.66 4.28c0 0 2.36 3.49 2.61 5.31 0 0-43.99 6.07-48.27-9.59z"/><path d="M191.91 229.25a14.51 14.51 0 0 0 2.8 1.63 27.88 27.88 0 0 0 3 1.21 38.49 38.49 0 0 0 6.27 1.53 55.42 55.42 0 0 0 6.43.69c1.08.06 2.16.06 3.25.1h3.25l-3.25.27h-3.26a47.3 47.3 0 0 1-6.5-.59 34.6 34.6 0 0 1-6.32-1.66 18.74 18.74 0 0 1-5.67-3.18z" fill="#7f7f7f"/><path class="r" d="M242.56 178.18s-1.73 3.45 1.72 10.37 0-10.37-1.72-10.37z"/><path class="a" d="M171.37 192.22s-14.27-4.28-10 14.27c0 0 5 9.38 12.49 8.26s-2.49-22.53-2.49-22.53z"/><path class="r" d="M168.51 196.51s-5.7-1.43-4.28 7.13a3.13 3.13 0 0 0 4.28 1.43s2.86 1.42 0 2.85c0 0 8.57 7.14 0-11.41z"/><path fill="#3b5972" stroke="#fff" stroke-miterlimit="10" d="M176.03 278.21l-37.28 14.27-16.03 19.46 28.63 19.48 11.45-2.29 19.47 89.93h79.03l-3.43-70.46 3.43-13.75V310.8l24.05-10.31-4.58-32.07-49.6 10.21-19.82 45.16-35.32-45.58z"/><path class="q" d="M163.52 303.75h9.2a3.52 3.52 0 0 1 3.53 3.53v6H160v-6.05a3.52 3.52 0 0 1 3.53-3.53z"/><path class="q" d="M175.54 313.17h-14.85a1.74 1.74 0 1 0 0 3.47h14.85a1.74 1.74 0 0 0 0-3.47zm0 .91a.82.82 0 0 1 0 1.64h-14.85a.82.82 0 1 1 0-1.64h14.85"/><path class="v" d="M189.59 373.37a19.35 19.35 0 0 0 1.27-6.9v-21a19.39 19.39 0 0 0-3.07-10.47l-10.6-11.87a7.3 7.3 0 0 1-1.15-3.93v-2.8h-16.3v2.77a7.3 7.3 0 0 1-1.15 3.93L149 335a19.48 19.48 0 0 0-3.07 10.48v21a19.39 19.39 0 0 0 1.27 6.9l1.08 2.81a19.32 19.32 0 0 1 .67 11.67 97.5 97.5 0 0 0-3 24v2.54a15.57 15.57 0 0 0 15.56 15.6h13.81a15.57 15.57 0 0 0 15.57-15.57v-2.54a96.58 96.58 0 0 0-3-24 19.4 19.4 0 0 1 .66-11.67z"/><path class="q" d="M145.43 339.92h45.36v30.28h-45.36z"/><path class="a" d="M124.44 398.21h35.94l11.06 34.58-41.25 7.11-5.75-41.69z"/><path class="a" d="M162 403.31c1.25 3.53 24.25 9.28 24.25 9.28l-5.75 6.47-21.57-2.16z"/><path class="r" d="M235.33 164.9s-4-8.86-4.45-8.86c-21.72 0-5.14-20.28-5.14-20.28l6.77-10c-22.59 4-35 21-35 21v-13c-21.75 7.7-24.74 19-25 23.72-2.8 1.64-11.54 7.15-8.17 10.53 4 4 1.83 10.22 1.83 10.22l2 8s.17-16.22 5.17-15.22c3.41.68 6.81-6 8.63-10.41l37.75 3.4c6.91.66 11.98.92 15.61.9z"/><path class="ad" d="M170.64 155.35h-11s-7 6-6 11c0 0 4-4 8 0s-5 8-5 8h9l2 8s-.55-13.5 3-13c5.05.71 10-14 10-14"/><path class="y" d="M153.55 149c-.48.11 16.09 2.22 19 7a23.69 23.69 0 0 0-19-7z"/><path class="ad" d="M171 155.2s-3.91-16 28.66-26v13s14.33-17 40.39-21l-7.82 10s19.54-4 36.48 12c0 0-27.36 15-49.51 17z"/></svg>