<svg xmlns="http://www.w3.org/2000/svg" width="368" height="319" style="isolation:isolate">
  <defs>
    <clipPath id="a">
      <path d="M0 0h368v319H0z"/>
    </clipPath>
  </defs>
  <g clip-path="url(#a)">
    <path fill="#7ED321" d="M4 30C4 13.443 17.443 0 34 0c16.557 0 30 13.443 30 30 0 16.557-13.443 30-30 30C17.443 60 4 46.557 4 30z"/>
    <path fill="#FFF" d="M37.804 40.406l-5.656 5.656-14.14-14.14 5.656-5.656z"/>
    <path fill="#FFF" d="M54.068 24.143L32.151 46.059l-5.656-5.655 21.917-21.918z"/>
    <path stroke="#7ED321" stroke-linecap="round" stroke-width="3" d="M31.5 59.5v218" vector-effect="non-scaling-stroke"/>
    <text fill="#2b2f47" font-family="Open Sans" font-size="20" font-weight="700" transform="translate(85 37.759)">
      10 BAILIFF VISIT COMPANIES
    </text>
    <path fill="#7ED321" d="M4 126c0-16.557 13.443-30 30-30 16.557 0 30 13.443 30 30 0 16.557-13.443 30-30 30-16.557 0-30-13.443-30-30z"/>
    <text fill="#2b2f47" font-family="Open Sans" font-size="20" font-weight="700" transform="translate(85 133.759)">
      DEPOSIT FEE POLICY
    </text>
    <path fill="#7ED321" d="M62.7 283.8c0 16.7-13.3 30.2-29.7 30.2S3.4 300.5 3.4 283.8s13.2-30.2 29.6-30.2c16.4 0 29.7 13.5 29.7 30.2z"/>
    <path fill="#36AFC5" d="M47.158 272.397s4.5-7.8 4.5-11.6 24.8 0 12.3 23.7c0 0-6.7 1.6-11.6-1.1 0 0-8.3-8.5-5.2-11z"/>
    <path fill="#43CBDD" d="M46.958 275.097s6.9-4.9 7.4-11.4c0 0 3.3 7.3-5 11.3 0 0 9.3-3.1 10.1-11.3 0 0 2.5 8.6-6.6 13.6 0 0 9.1-4 10.8-9.4 0 0 2.2 7.3-9.4 11.3l11.5-5s-2.4 4.8-10 7.1l8-.6s-8.2 2-11.3 1.9l-5.5-7.5z"/>
    <g>
      <path fill="#36AFC5" d="M55.458 288.497s12.6-4.4 17.2 1.1-5.4 20.8-9.3 19.5c-3.9-1.3-9.3-9.6-9.3-9.6s-2.3-10.1 1.4-11z"/>
      <path fill="#43CBDD" d="M54 290.3s15.4-2.2 17.4 2.8c0 0-4.8-.2-8-.4 0 0 5.4 3.3 7.6 3.7 0 0-5.4 1.8-9.1-.4l7.4 4.4s-5.9.2-8.9-1.3 5 4.2 7.2 4.6c0 0-6.4 1.9-11.8-4.2-.1 0-5.7-5.1-1.8-9.2z"/>
      <path fill="#36AFC5" d="M6.9 301.446s-8.7 2.6-6.5 8.5c2.2 5.9 11.7 9.4 13.5 8.3 1.8-1.1 3-8.3 3-8.3l-10-8.5z"/>
      <path fill="#43CBDD" d="M17.6 302.4s-2.5 13.8-7.3 14c0 0 1.5-4 2.6-6.7 0 0-4.3 3.7-5.3 5.4 0 0 .1-5.1 2.9-7.6l-5.7 5.1s1.5-5.1 3.6-7.2c2.1-2.2-4.9 3.1-5.9 4.8 0 0 .2-6 6.8-8.8.1-.2 5.9-3.5 8.3 1z"/>
      <path fill="#36AFC5" d="M56.2 294.8c-.5 2.2-1.5 4.7-3.4 7.2-1 1.3-2.4 2.7-4 4-3.8 3-8.2 6.3-16.3 8.4-4.5 1.2-9.3 1.2-13.7-.2-.1 0-.2-.1-.4-.1-5.8-1.8-10.3-6.4-12.4-12.1-2.1-5.8-3.3-14.4 2.5-23.2 1.3-1.9 2.9-3.9 5-5.8 1-.9 2-1.8 3.2-2.7.4-.3.8-.6 1.1-.8 2.2-1.5 4.3-2.6 6.3-3.4 5.1-1.9 9.7-1.4 13.7.2 11.1 4.5 17.9 18.3 18.3 20.5.3 1.2.9 4.2.1 8z"/>
      <path fill="#F26F69" d="M38.3 308.1c-1.3.9-2.8 1.3-4.3 1.1h-.1c-1.8-.2-4.6-.9-6.8-2.9 0 0 9.4 1.3 10.8-6 0 0 1.4 1.7 1.9 3.6.2 1.4 0 3-1.5 4.2z"/>
      <path d="M16 301.6c0 1.8-1.4 3.2-3.1 3.2-1.7 0-3.1-1.4-3.1-3.2 0-1.8 1.4-3.2 3.1-3.2 1.7 0 3.1 1.4 3.1 3.2z"/>
      <path fill="#FFF" d="M15 300.7c0 .7-.6 1.3-1.3 1.3-.7 0-1.3-.6-1.3-1.3 0-.7.6-1.3 1.3-1.3.7 0 1.3.5 1.3 1.3z"/>
      <path d="M42 292.1c0 1.8-1.4 3.2-3.1 3.2-1.7 0-3.1-1.4-3.1-3.2 0-1.8 1.4-3.2 3.1-3.2 1.7.1 3.1 1.5 3.1 3.2z"/>
      <path fill="#FFF" d="M41.1 291.2c0 .7-.6 1.3-1.3 1.3-.7 0-1.3-.6-1.3-1.3 0-.7.6-1.3 1.3-1.3.7 0 1.3.6 1.3 1.3z"/>
      <path fill="#FFF" d="M52.8 302c-1 1.3-2.4 2.7-4 4-5.8-45.2-34.4-30.7-40.3-27.2 1.3-1.9 2.9-3.9 5-5.8 29.8-12.1 37.7 20.4 39.3 29z"/>
      <path fill="#FFF" d="M56.2 294.8c-1.9-10.3-9.5-33-38.4-25.3 2.2-1.5 4.3-2.6 6.3-3.4 3.6-.8 8.6-1.3 13.7.2 11.1 4.5 17.9 18.3 18.3 20.5.3 1.2.9 4.2.1 8zM38.3 308.1c-1.3.9-2.8 1.3-4.3 1.1.9-1.6 3.2-5 5.7-5.2.3 1.3.1 2.9-1.4 4.1z"/>
      <path fill="#36AFC5" d="M19.9 274.5s-.2-15.2 2.2-15.7c2.3-.5 1.7 4.9 1.7 4.9s-.4-9.8 2.3-9.7c2.6.1 1.9 4.6 1.9 4.6s-.1-9.5 7.2-10.4c7.3-.9 3 11.3 3 11.3s-5.2 3.5 2-1.1-3.1 8.4-3.1 8.4-18.3 12.7-17.2 7.7z"/>
    </g>
    <path fill="#7ED321" d="M22 210.5c0-5.243 4.257-9.5 9.5-9.5s9.5 4.257 9.5 9.5-4.257 9.5-9.5 9.5-9.5-4.257-9.5-9.5z"/>
    <g>
      <text fill="#2b2f47" font-family="Open Sans" font-size="20" font-weight="700" transform="translate(85 291.559)">
        A PLASTIC FREE OCEAN!
      </text>
    </g>
    <g>
      <path fill="#FFF" d="M37.814 136.416l-5.656 5.656-14.14-14.14 5.656-5.656z"/>
      <path fill="#FFF" d="M54.078 120.153l-21.917 21.916-5.656-5.655 21.917-21.917z"/>
    </g>
  </g>
</svg>
