<svg xmlns="http://www.w3.org/2000/svg" viewBox="0 0 276 402">
  <defs>
    <svg>
  </defs>
  <path d="M20.5 21.5v365" fill="none" stroke="#f26f69" stroke-width="3" stroke-linecap="round" stroke-dasharray="2 13"/>
  <circle fill="#f26f69" cx="20" cy="20" r="20"/>
  <g>
    <path fill="#fff" d="M27 13.9c-1.7 1.9-3.3 3.8-4.7 5.8s-2.8 4.1-4.1 6.2c-.1.2-.2.4-.3.7-.4.8-1 1.3-1.8 1.3-.3 0-.6 0-.8-.1s-.4-.3-.6-.5c-.1-.2-.3-.5-.4-.8s-.3-.8-.5-1.5v-.1c-.2-.7-.3-1.2-.3-1.4 0-.4.2-.7.6-1s.9-.5 1.3-.5c.1 0 .2 0 .3.1s.2.3.3.5c.1.2.1.4.2.7.2.6.4.9.6.9.1 0 .6-.7 1.5-2.1.9-1.4 1.6-2.5 2.2-3.4.9-1.3 1.5-2.2 2-2.8s.9-1 1.2-1.3c.3-.3.7-.5 1.2-.6s1.1-.3 1.9-.3l.2.2z"/>
  </g>
  <circle fill="#f26f69" cx="20" cy="100" r="20"/>
  <g>
    <path fill="#fff" d="M27 93.9c-1.7 1.9-3.3 3.8-4.7 5.8s-2.8 4.1-4.1 6.2c-.1.2-.2.4-.3.7-.4.8-1 1.3-1.8 1.3-.3 0-.6 0-.8-.1s-.4-.3-.6-.5c-.1-.2-.3-.5-.4-.8s-.3-.8-.5-1.5v-.1c-.2-.7-.3-1.2-.3-1.4 0-.4.2-.7.6-1s.9-.5 1.3-.5c.1 0 .2 0 .3.1s.2.3.3.5c.1.2.1.4.2.7.2.6.4.9.6.9.1 0 .6-.7 1.5-2.1.9-1.4 1.6-2.5 2.2-3.4.9-1.3 1.5-2.2 2-2.8s.9-1 1.2-1.3c.3-.3.7-.5 1.2-.6s1.1-.3 1.9-.3l.2.2z"/>
  </g>
  <circle fill="#d8d8d8" cx="20" cy="382" r="20"/>
  <circle fill="#d8d8d8" cx="21" cy="312" r="10"/>
  <circle fill="#d8d8d8" cx="20" cy="161" r="10"/>
  <circle fill="#36afc5" cx="20" cy="231" r="20"/>
  <g>
    <path fill="#fff" d="M22.5 229.6c1.6 1 2.5 2.2 2.5 3.8 0 1.3-.4 2.4-1.3 3.3-.9.9-2.1 1.4-3.5 1.4-1.3 0-2.5-.4-3.6-1.3-.2-.2-.3-.3-.3-.4 0-.1 0-.1.1-.2l.5-.9c.1-.1.2-.2.3-.2.1 0 .2 0 .3.1.8.7 1.7 1.1 2.7 1.1.9 0 1.6-.3 2.2-.9.6-.6.9-1.3.9-2.1 0-.7-.3-1.4-.8-1.9-.6-.7-1.5-1-2.5-1h-.8c-.3 0-.4-.1-.4-.4v-.7c0-.3.1-.4.4-.4h.7c.9 0 1.6-.3 2.1-.9.3-.4.5-.9.5-1.5 0-.5-.2-1-.5-1.3-.4-.4-1-.6-1.7-.6-.5 0-1 .1-1.5.4-.4.2-.8.5-1.1.8-.1.1-.1.1-.2.1s-.2-.1-.3-.2l-.4-.9c0-.1-.1-.2-.1-.2 0-.1.1-.3.3-.5 1-.8 2.1-1.2 3.3-1.2 1.2 0 2.2.4 3 1.1.7.7 1 1.5 1 2.5 0 .6-.2 1.2-.5 1.8-.3.5-.7.9-1.1 1.1l-.1.1c-.2 0-.2.1-.1.1z"/>
  </g>
  <g>
    <path fill="#2b2f47" d="M49 23.5l1-.4c.1 0 .2-.1.2-.1.1 0 .2.1.3.2.3.4.6.6 1 .6.2 0 .4-.1.6-.2.2-.2.3-.4.3-.7 0-.4-.2-.7-.5-.9-.1-.1-.4-.2-.8-.3-1.7-.6-2.6-1.7-2.6-3.1 0-.9.3-1.7.9-2.3.6-.6 1.3-.9 2.2-.9.9 0 1.6.3 2.2 1 .3.3.5.6.5.8 0 .1-.1.3-.3.4l-1.2.6c-.1 0-.2.1-.2.1-.1 0-.2-.1-.3-.2-.2-.2-.4-.3-.6-.3-.2 0-.4.1-.6.3-.1.2-.2.3-.2.5 0 .4.4.8 1.2 1.1l.2.1c1.7.6 2.5 1.7 2.5 3.2 0 .9-.3 1.7-.9 2.3-.6.6-1.3.9-2.1.9h-.1c-1.1 0-1.9-.4-2.5-1.3-.3-.4-.4-.7-.4-.8-.1-.3 0-.5.2-.6zm11.9-5.7v7.8c0 .3-.1.5-.5.5h-1.3c-.3 0-.5-.1-.5-.5v-7.8h-1.8c-.3 0-.5-.1-.5-.5V16c0-.3.1-.5.5-.5h5.9c.3 0 .5.1.5.5v1.3c0 .3-.1.5-.5.5h-1.8zm5.5 6.3l-.6 1.5c-.1.2-.3.4-.5.4h-1.6c-.2 0-.3-.1-.3-.3v-.2l3.9-9.7c.1-.2.3-.4.5-.4h.9c.3 0 .4.1.5.4l3.9 9.7v.2c0 .2-.1.3-.3.3h-1.5c-.3 0-.4-.1-.5-.4l-.8-1.5h-3.6zm1.8-4.6l-1 2.5h1.9l-.9-2.5zm9.6-1.7v7.8c0 .3-.1.5-.5.5H76c-.3 0-.5-.1-.5-.5v-7.8h-1.8c-.3 0-.5-.1-.5-.5V16c0-.3.1-.5.5-.5h5.9c.3 0 .5.1.5.5v1.3c0 .3-.1.5-.5.5h-1.8zm4.3-2.3h1.3c.3 0 .5.1.5.5v9.6c0 .3-.1.5-.5.5h-1.3c-.3 0-.5-.1-.5-.5V16c0-.3.2-.5.5-.5zm5.6 4.1h3.2c.3 0 .5.1.5.5v1.3c0 .3-.1.5-.5.5h-3.2v1.9h3.2c.3 0 .5.1.5.5v1.3c0 .3-.1.5-.5.5h-5c-.3 0-.5-.1-.5-.5V16c0-.3.1-.5.5-.5h5c.3 0 .5.1.5.5v1.3c0 .3-.1.5-.5.5h-3.2v1.8zm12.6 2.8h-1.9c-.3 0-.5-.1-.5-.5v-1.2c0-.3.1-.5.5-.5h3.7c.3 0 .5.1.5.5v2.4c0 .4 0 .7-.2 1-.3.4-.7.8-1.2 1.1-.8.5-1.7.8-2.8.8-1.5 0-2.8-.5-3.8-1.6-1-1-1.6-2.3-1.6-3.8s.5-2.7 1.6-3.8c1-1 2.3-1.6 3.8-1.6 1.2 0 2.3.3 3.1 1 .1.1.2.2.2.3 0 .1 0 .2-.1.3l-.8 1.1c-.1.1-.2.2-.3.2-.1 0-.2 0-.3-.1-.5-.3-1.1-.5-1.7-.5-.8 0-1.6.3-2.2.9-.6.6-.9 1.3-.9 2.2 0 .8.3 1.6.9 2.2.6.6 1.3.9 2.2.9.9 0 1.6-.3 2-.8v-.5zm6.2-2.8h3.2c.3 0 .5.1.5.5v1.3c0 .3-.1.5-.5.5h-3.2v1.9h3.2c.3 0 .5.1.5.5v1.3c0 .3-.1.5-.5.5h-5c-.3 0-.5-.1-.5-.5V16c0-.3.1-.5.5-.5h5c.3 0 .5.1.5.5v1.3c0 .3-.1.5-.5.5h-3.2v1.8zm7.6 4.1h2.9c.3 0 .5.1.5.5v1.3c0 .3-.1.5-.5.5h-4.7c-.3 0-.5-.1-.5-.5V16c0-.3.1-.5.5-.5h1.3c.3 0 .5.1.5.5v7.7zm4.9 1.8V16c0-.3.1-.5.5-.5h3c1.5 0 2.7.5 3.7 1.5s1.5 2.3 1.5 3.7-.5 2.7-1.5 3.7-2.3 1.5-3.7 1.5h-3c-.3.1-.5 0-.5-.4zm2.3-1.8h1.2c.9 0 1.6-.3 2.2-.8.6-.6.8-1.3.8-2.1 0-.9-.3-1.6-.8-2.2-.5-.5-1.2-.8-2.1-.8h-1.3v5.9zm14.6 0h2.9c.3 0 .5.1.5.5v1.3c0 .3-.1.5-.5.5h-4.7c-.3 0-.5-.1-.5-.5V16c0-.3.1-.5.5-.5h1.3c.3 0 .5.1.5.5v7.7zm7.6.4l-.6 1.5c-.1.2-.3.4-.5.4h-1.6c-.2 0-.3-.1-.3-.3v-.2l3.9-9.7c.1-.2.3-.4.5-.4h.9c.3 0 .4.1.5.4l3.9 9.7v.2c0 .2-.1.3-.3.3h-1.5c-.3 0-.4-.1-.5-.4l-.7-1.5h-3.7zm1.8-4.6l-1 2.5h1.9l-.9-2.5zm13.1 1.3l1.3-4.9c.1-.3.2-.4.5-.4h1.5c.3 0 .4.1.4.3v.2l-2.6 9.6c-.1.3-.2.4-.5.4h-1c-.3 0-.4-.1-.5-.4l-1.1-5.5-1.4 5.5c-.1.3-.2.4-.5.4h-1c-.3 0-.4-.1-.5-.4l-2.6-9.6v-.2c0-.2.1-.3.4-.3h1.5c.3 0 .4.1.5.4l1.3 4.9 1.3-4.9c.1-.3.2-.4.5-.4h1c.3 0 .4.1.5.4l1 4.9zm11.7 1.2v3.5c0 .3-.1.5-.5.5h-1.3c-.3 0-.5-.1-.5-.5V16c0-.3.1-.5.5-.5h2.8c.9 0 1.6.3 2.2.9.6.6.9 1.4.9 2.3 0 1-.3 1.8-1 2.4-.6.6-1.3.9-2.1.9h-1zm0-2.3h1c.3 0 .5-.1.7-.4.1-.2.2-.4.2-.6 0-.3-.1-.6-.3-.8-.1-.1-.3-.2-.5-.2h-1v2zm7.4 4.4l-.6 1.5c-.1.2-.3.4-.5.4h-1.6c-.2 0-.3-.1-.3-.3v-.2l3.9-9.7c.1-.2.3-.4.5-.4h.9c.3 0 .4.1.5.4l3.9 9.7v.2c0 .2-.1.3-.3.3h-1.5c-.3 0-.4-.1-.5-.4l-.7-1.5h-3.7zm1.8-4.6l-1 2.5h1.9l-.9-2.5zm6.3 4l1-.4c.1 0 .2-.1.2-.1.1 0 .2.1.3.2.3.4.6.6 1 .6.2 0 .4-.1.6-.2.2-.2.3-.4.3-.7 0-.4-.2-.7-.5-.9-.1-.1-.4-.2-.8-.3-1.7-.6-2.6-1.7-2.6-3.1 0-.9.3-1.7.9-2.3.6-.6 1.3-.9 2.2-.9.9 0 1.6.3 2.2 1 .3.3.5.6.5.8 0 .1-.1.3-.3.4l-1.2.6c-.1 0-.2.1-.2.1-.1 0-.2-.1-.3-.2-.2-.2-.4-.3-.6-.3-.2 0-.4.1-.6.3-.1.2-.2.3-.2.5 0 .4.4.8 1.2 1.1l.2.1c1.7.6 2.5 1.7 2.5 3.2 0 .9-.3 1.7-.9 2.3-.6.6-1.3.9-2.1.9h-.1c-1.1 0-1.9-.4-2.5-1.3-.3-.4-.4-.7-.4-.8-.1-.3 0-.5.2-.6zm7.7 0l1-.4c.1 0 .2-.1.2-.1.1 0 .2.1.3.2.3.4.6.6 1 .6.2 0 .4-.1.6-.2.2-.2.3-.4.3-.7 0-.4-.2-.7-.5-.9-.1-.1-.4-.2-.8-.3-1.7-.6-2.6-1.7-2.6-3.1 0-.9.3-1.7.9-2.3.6-.6 1.3-.9 2.2-.9.9 0 1.6.3 2.2 1 .3.3.5.6.5.8 0 .1-.1.3-.3.4l-1.2.6c-.1 0-.2.1-.2.1-.1 0-.2-.1-.3-.2-.2-.2-.4-.3-.6-.3-.2 0-.4.1-.6.3-.1.2-.2.3-.2.5 0 .4.4.8 1.2 1.1l.2.1c1.7.6 2.5 1.7 2.5 3.2 0 .9-.3 1.7-.9 2.3-.6.6-1.3.9-2.1.9h-.1c-1.1 0-1.9-.4-2.5-1.3-.3-.4-.4-.7-.4-.8-.1-.3 0-.5.2-.6zm9.7-3.9h3.2c.3 0 .5.1.5.5v1.3c0 .3-.1.5-.5.5H203v1.9h3.2c.3 0 .5.1.5.5v1.3c0 .3-.1.5-.5.5h-5c-.3 0-.5-.1-.5-.5V16c0-.3.1-.5.5-.5h5c.3 0 .5.1.5.5v1.3c0 .3-.1.5-.5.5H203v1.8zm5.3 5.9V16c0-.3.1-.5.5-.5h3c1.5 0 2.7.5 3.7 1.5s1.5 2.3 1.5 3.7-.5 2.7-1.5 3.7-2.3 1.5-3.7 1.5h-3c-.4.1-.5 0-.5-.4zm2.2-1.8h1.2c.9 0 1.6-.3 2.2-.8.6-.6.8-1.3.8-2.1 0-.9-.3-1.6-.8-2.2-.5-.5-1.2-.8-2.1-.8h-1.3v5.9z"/>
  </g>
  <g>
    <path fill="#2b2f47" d="M51.6 97.8h-1.1c-.3 0-.5-.1-.5-.5v-1.2c0-.3.1-.5.5-.5h2.9c.3 0 .5.1.5.5v9.4c0 .3-.1.5-.5.5H52c-.3 0-.5-.1-.5-.5v-7.7zm12.6 1.3v3.4c0 1-.4 1.8-1.1 2.5-.7.7-1.5 1.1-2.5 1.1s-1.8-.4-2.5-1.1c-.7-.7-1.1-1.5-1.1-2.5v-3.4c0-1 .4-1.8 1.1-2.5.7-.7 1.5-1.1 2.5-1.1s1.8.4 2.5 1.1c.8.7 1.1 1.6 1.1 2.5zm-4.9 0v3.4c0 .4.1.7.4.9.3.3.6.4.9.4.4 0 .7-.1.9-.4.3-.3.4-.6.4-.9v-3.4c0-.4-.1-.7-.4-.9-.3-.3-.6-.4-.9-.4-.4 0-.7.1-.9.4s-.4.6-.4.9zm16.2 1.1c.7.7 1.1 1.6 1.1 2.5 0 .9-.3 1.7-.9 2.3-.6.7-1.4 1-2.3 1h-2.9c-.3 0-.5-.1-.5-.5V96c0-.3.1-.5.5-.5h2.7c.5 0 1 .2 1.6.5.9.6 1.3 1.4 1.3 2.4-.1.7-.3 1.3-.6 1.8zm-3.2-.7h.7c.2 0 .4-.1.5-.3.2-.2.2-.4.2-.6s-.1-.4-.2-.6c-.2-.2-.4-.2-.6-.2h-.7v1.7zm0 4.2h1c.3 0 .5-.1.7-.3.2-.2.3-.5.3-.8 0-.3-.1-.6-.3-.8-.2-.2-.4-.3-.7-.3h-1v2.2zm8.2.4l-.6 1.5c-.1.2-.3.4-.5.4h-1.6c-.2 0-.3-.1-.3-.3v-.2l3.9-9.7c.1-.2.3-.4.5-.4h.9c.3 0 .4.1.5.4l3.9 9.7v.2c0 .2-.1.3-.3.3h-1.5c-.3 0-.4-.1-.5-.4l-.7-1.5h-3.7zm1.8-4.6l-1 2.5h1.9l-.9-2.5zm6.6-4h1.3c.3 0 .5.1.5.5v9.6c0 .3-.1.5-.5.5h-1.3c-.3 0-.5-.1-.5-.5V96c0-.3.2-.5.5-.5zm5.6 8.2h2.9c.3 0 .5.1.5.5v1.3c0 .3-.1.5-.5.5h-4.7c-.3 0-.5-.1-.5-.5V96c0-.3.1-.5.5-.5H94c.3 0 .5.1.5.5v7.7zm5.3-8.2h1.3c.3 0 .5.1.5.5v9.6c0 .3-.1.5-.5.5h-1.3c-.3 0-.5-.1-.5-.5V96c.1-.3.2-.5.5-.5zm5.6 6.4v3.7c0 .3-.1.5-.5.5h-1.3c-.3 0-.5-.1-.5-.5V96c0-.3.1-.5.5-.5h5c.3 0 .5.1.5.5v1.3c0 .3-.1.5-.5.5h-3.2v1.8h3.2c.3 0 .5.1.5.5v1.3c0 .3-.1.5-.5.5h-3.2zm7.5 0v3.7c0 .3-.1.5-.5.5h-1.3c-.3 0-.5-.1-.5-.5V96c0-.3.1-.5.5-.5h5c.3 0 .5.1.5.5v1.3c0 .3-.1.5-.5.5h-3.2v1.8h3.2c.3 0 .5.1.5.5v1.3c0 .3-.1.5-.5.5h-3.2zm13.4.1l2-6.1c.1-.3.2-.4.5-.4h1.6c.2 0 .4.1.4.3v.2l-3.4 9.7c-.1.3-.3.4-.5.4h-.9c-.3 0-.4-.1-.5-.4L122 96v-.2c0-.2.1-.3.4-.3h1.6c.3 0 .4.1.5.4l1.8 6.1zm6.2-6.5h1.3c.3 0 .5.1.5.5v9.6c0 .3-.1.5-.5.5h-1.3c-.3 0-.5-.1-.5-.5V96c.1-.3.2-.5.5-.5zm3.7 8l1-.4c.1 0 .2-.1.2-.1.1 0 .2.1.3.2.3.4.6.6 1 .6.2 0 .4-.1.6-.2.2-.2.3-.4.3-.7 0-.4-.2-.7-.5-.9-.1-.1-.4-.2-.8-.3-1.7-.6-2.6-1.7-2.6-3.1 0-.9.3-1.7.9-2.3.6-.6 1.3-.9 2.2-.9.9 0 1.6.3 2.2 1 .3.3.5.6.5.8 0 .1-.1.3-.3.4l-1.2.6c-.1 0-.2.1-.2.1-.1 0-.2-.1-.3-.2-.2-.2-.4-.3-.6-.3-.2 0-.4.1-.6.3-.1.2-.2.3-.2.5 0 .4.4.8 1.2 1.1l.2.1c1.7.6 2.5 1.7 2.5 3.2 0 .9-.3 1.7-.9 2.3-.6.6-1.3.9-2.1.9h-.1c-1.1 0-1.9-.4-2.5-1.3-.3-.4-.4-.7-.4-.8-.1-.3 0-.5.2-.6zm7.8-8h1.3c.3 0 .5.1.5.5v9.6c0 .3-.1.5-.5.5H144c-.3 0-.5-.1-.5-.5V96c.1-.3.2-.5.5-.5zm7.8 2.3v7.8c0 .3-.1.5-.5.5H150c-.3 0-.5-.1-.5-.5v-7.8h-1.8c-.3 0-.5-.1-.5-.5V96c0-.3.1-.5.5-.5h5.9c.3 0 .5.1.5.5v1.3c0 .3-.1.5-.5.5h-1.8zm16.6-.8l-.8 1.1c-.1.1-.2.2-.3.2-.1 0-.2 0-.3-.1-.5-.3-1.1-.5-1.7-.5-.6 0-1.1.2-1.6.5s-.8.6-1.1 1.1c-.3.5-.4 1-.4 1.5 0 .8.3 1.6.9 2.1.6.6 1.3.9 2.2.9.6 0 1.2-.2 1.7-.5.1-.1.3-.1.3-.1.1 0 .2.1.3.2l.8 1.1c.1.1.1.2.1.3 0 .1-.1.3-.3.4-.9.6-1.9.9-3 .9-1.5 0-2.7-.5-3.8-1.6-1-1-1.6-2.3-1.6-3.8s.5-2.7 1.6-3.8c1-1 2.3-1.6 3.8-1.6 1.3 0 2.3.3 3.2 1 .1.1.1.2.1.3 0 .2 0 .3-.1.4zm7.1-1.6c1.4 0 2.7.5 3.7 1.6 1 1 1.6 2.3 1.6 3.8s-.5 2.7-1.6 3.8c-1 1-2.3 1.6-3.8 1.6s-2.7-.5-3.8-1.6c-1-1-1.6-2.3-1.6-3.8s.5-2.7 1.6-3.8c1.1-1.1 2.3-1.6 3.9-1.6zm-.1 2.3c-.8 0-1.6.3-2.2.9-.6.6-.9 1.3-.9 2.2 0 .8.3 1.6.9 2.2.6.6 1.3.9 2.2.9s1.6-.3 2.2-.9.9-1.3.9-2.2c0-.9-.3-1.6-.9-2.2-.6-.6-1.3-.9-2.2-.9zm12.4 4.6l2.3-6.4c.1-.2.3-.4.5-.4h2c.3 0 .5.1.5.5v9.6c0 .3-.1.5-.5.5h-1.3c-.3 0-.5-.1-.5-.5v-6.3l-2.1 6.4c-.1.3-.3.4-.5.4h-.9c-.3 0-.4-.1-.5-.4l-2-5.6v5.5c0 .3-.1.5-.5.5H183c-.3 0-.5-.1-.5-.5V96c0-.3.1-.5.5-.5h2c.3 0 .4.1.5.4l2.3 6.4zm9.4-.3v3.5c0 .3-.1.5-.5.5h-1.3c-.3 0-.5-.1-.5-.5V96c0-.3.1-.5.5-.5h2.8c.9 0 1.6.3 2.2.9.6.6.9 1.4.9 2.3 0 1-.3 1.8-1 2.4-.6.6-1.3.9-2.1.9h-1zm0-2.3h1c.3 0 .5-.1.7-.4.1-.2.2-.4.2-.6 0-.3-.1-.6-.3-.8-.1-.1-.3-.2-.5-.2h-1v2zm7.3 4.4l-.6 1.5c-.1.2-.3.4-.5.4h-1.6c-.2 0-.3-.1-.3-.3v-.2l3.9-9.7c.1-.2.3-.4.5-.4h.9c.3 0 .4.1.5.4l3.9 9.7v.2c0 .2-.1.3-.3.3h-1.5c-.3 0-.4-.1-.5-.4l-.7-1.5h-3.7zm1.8-4.6l-1 2.5h1.9l-.9-2.5zm8.4.4v5.6c0 .3-.1.5-.5.5H213c-.3 0-.5-.1-.5-.5V96c0-.3.1-.5.5-.5h1.2c.3 0 .5.1.6.3l4 5.7V96c0-.3.1-.5.5-.5h1.2c.3 0 .5.1.5.5v9.5c0 .3-.1.5-.5.5h-1.2c-.3 0-.5-.1-.6-.3l-4-5.8zm8.4-4.4h1.3c.3 0 .5.1.5.5v9.6c0 .3-.1.5-.5.5h-1.3c-.3 0-.5-.1-.5-.5V96c0-.3.1-.5.5-.5zm5.6 4.1h3.2c.3 0 .5.1.5.5v1.3c0 .3-.1.5-.5.5h-3.2v1.9h3.2c.3 0 .5.1.5.5v1.3c0 .3-.1.5-.5.5h-5c-.3 0-.5-.1-.5-.5V96c0-.3.1-.5.5-.5h5c.3 0 .5.1.5.5v1.3c0 .3-.1.5-.5.5h-3.2v1.8zm5.6 3.9l1-.4c.1 0 .2-.1.2-.1.1 0 .2.1.3.2.3.4.6.6 1 .6.2 0 .4-.1.6-.2.2-.2.3-.4.3-.7 0-.4-.2-.7-.5-.9-.1-.1-.4-.2-.8-.3-1.7-.6-2.6-1.7-2.6-3.1 0-.9.3-1.7.9-2.3.6-.6 1.3-.9 2.2-.9.9 0 1.6.3 2.2 1 .3.3.5.6.5.8 0 .1-.1.3-.3.4l-1.2.6c-.1 0-.2.1-.2.1-.1 0-.2-.1-.3-.2-.2-.2-.4-.3-.6-.3-.2 0-.4.1-.6.3-.1.2-.2.3-.2.5 0 .4.4.8 1.2 1.1l.2.1c1.7.6 2.5 1.7 2.5 3.2 0 .9-.3 1.7-.9 2.3-.6.6-1.3.9-2.1.9h-.1c-1.1 0-1.9-.4-2.5-1.3-.3-.4-.4-.7-.4-.8-.1-.3 0-.5.2-.6z"/>
  </g>
  <g>
    <path fill="#2b2f47" d="M51.3 386.1l-.6 1.5c-.1.2-.3.4-.5.4h-1.6c-.2 0-.3-.1-.3-.3v-.2l3.9-9.7c.1-.2.3-.4.5-.4h.9c.3 0 .4.1.5.4l3.9 9.7v.2c0 .2-.1.3-.3.3h-1.5c-.3 0-.4-.1-.5-.4l-.7-1.5h-3.7zm1.9-4.6l-1 2.5h1.9l-.9-2.5zm12.6 2.5v3.5c0 .3-.1.5-.5.5H64c-.3 0-.5-.1-.5-.5V378c0-.3.1-.5.5-.5h2.8c.9 0 1.6.3 2.2.9.6.6.9 1.4.9 2.3 0 1-.3 1.8-1 2.4-.6.6-1.3.9-2.1.9h-1zm0-2.3h1c.3 0 .5-.1.7-.4.1-.2.2-.4.2-.6 0-.3-.1-.6-.3-.8-.1-.1-.3-.2-.5-.2h-1v2zm8 4h2.9c.3 0 .5.1.5.5v1.3c0 .3-.1.5-.5.5H72c-.3 0-.5-.1-.5-.5V378c0-.3.1-.5.5-.5h1.3c.3 0 .5.1.5.5v7.7zm7.6.4l-.6 1.5c-.1.2-.3.4-.5.4h-1.6c-.2 0-.3-.1-.3-.3v-.2l3.9-9.7c.1-.2.3-.4.5-.4h.9c.3 0 .4.1.5.4l3.9 9.7v.2c0 .2-.1.3-.3.3h-1.5c-.3 0-.4-.1-.5-.4l-.7-1.5h-3.7zm1.8-4.6l-1 2.5h1.9l-.9-2.5zm6.3 4l1-.4c.1 0 .2-.1.2-.1.1 0 .2.1.3.2.3.4.6.6 1 .6.2 0 .4-.1.6-.2.2-.2.3-.4.3-.7 0-.4-.2-.7-.5-.9-.1-.1-.4-.2-.8-.3-1.7-.6-2.6-1.7-2.6-3.1 0-.9.3-1.7.9-2.3.6-.6 1.3-.9 2.2-.9.9 0 1.6.3 2.2 1 .3.3.5.6.5.8 0 .1-.1.3-.3.4l-1.2.6c-.1 0-.2.1-.2.1-.1 0-.2-.1-.3-.2-.2-.2-.4-.3-.6-.3-.2 0-.4.1-.6.3-.1.2-.2.3-.2.5 0 .4.4.8 1.2 1.1l.2.1c1.7.6 2.5 1.7 2.5 3.2 0 .9-.3 1.7-.9 2.3-.6.6-1.3.9-2.1.9h-.1c-1.1 0-1.9-.4-2.5-1.3-.3-.4-.4-.7-.4-.8-.1-.3 0-.5.2-.6zm11.8-5.7v7.8c0 .3-.1.5-.5.5h-1.3c-.3 0-.5-.1-.5-.5v-7.8h-1.8c-.3 0-.5-.1-.5-.5V378c0-.3.1-.5.5-.5h5.9c.3 0 .5.1.5.5v1.3c0 .3-.1.5-.5.5h-1.8zm4.3-2.3h1.3c.3 0 .5.1.5.5v9.6c0 .3-.1.5-.5.5h-1.3c-.3 0-.5-.1-.5-.5V378c.1-.3.2-.5.5-.5zm11.9 1.5l-.8 1.1c-.1.1-.2.2-.3.2-.1 0-.2 0-.3-.1-.5-.3-1.1-.5-1.7-.5-.6 0-1.1.2-1.6.5s-.8.6-1.1 1.1c-.3.5-.4 1-.4 1.5 0 .8.3 1.6.9 2.1.6.6 1.3.9 2.2.9.6 0 1.2-.2 1.7-.5.1-.1.3-.1.3-.1.1 0 .2.1.3.2l.8 1.1c.1.1.1.2.1.3 0 .1-.1.3-.3.4-.9.6-1.9.9-3 .9-1.5 0-2.7-.5-3.8-1.6-1-1-1.6-2.3-1.6-3.8s.5-2.7 1.6-3.8c1-1 2.3-1.6 3.8-1.6 1.3 0 2.3.3 3.2 1 .1.1.1.2.1.3 0 .2 0 .3-.1.4zm8.1 4.9v3.7c0 .3-.1.5-.5.5h-1.3c-.3 0-.5-.1-.5-.5V378c0-.3.1-.5.5-.5h5c.3 0 .5.1.5.5v1.3c0 .3-.1.5-.5.5h-3.2v1.8h3.2c.3 0 .5.1.5.5v1.3c0 .3-.1.5-.5.5h-3.2zm10.2-.2l2.3 3.9c0 .1.1.1.1.2 0 .2-.1.2-.3.2h-1.7c-.3 0-.5-.1-.6-.3l-2.2-3.7h-.3v3.6c0 .3-.1.5-.5.5h-1.4c-.3 0-.5-.1-.5-.5V378c0-.3.1-.5.5-.5h3c.9 0 1.7.3 2.3.9.6.6.9 1.4.9 2.4.1 1.3-.5 2.2-1.6 2.9zm-2.7-1.9h1.2c.3 0 .6-.1.8-.4.1-.2.2-.4.2-.7 0-.3-.1-.6-.3-.8-.2-.2-.4-.3-.7-.3h-1.2v2.2zm8.4-.2h3.2c.3 0 .5.1.5.5v1.3c0 .3-.1.5-.5.5h-3.2v1.9h3.2c.3 0 .5.1.5.5v1.3c0 .3-.1.5-.5.5h-5c-.3 0-.5-.1-.5-.5V378c0-.3.1-.5.5-.5h5c.3 0 .5.1.5.5v1.3c0 .3-.1.5-.5.5h-3.2v1.8zm7.5 0h3.2c.3 0 .5.1.5.5v1.3c0 .3-.1.5-.5.5H149v1.9h3.2c.3 0 .5.1.5.5v1.3c0 .3-.1.5-.5.5h-5c-.3 0-.5-.1-.5-.5V378c0-.3.1-.5.5-.5h5c.3 0 .5.1.5.5v1.3c0 .3-.1.5-.5.5H149v1.8zm14.9-4.2c1.4 0 2.7.5 3.7 1.6 1 1 1.6 2.3 1.6 3.8s-.5 2.7-1.6 3.8c-1 1-2.3 1.6-3.8 1.6s-2.7-.5-3.8-1.6c-1-1-1.6-2.3-1.6-3.8s.5-2.7 1.6-3.8c1.1-1.1 2.4-1.6 3.9-1.6zm0 2.3c-.8 0-1.6.3-2.2.9-.6.6-.9 1.3-.9 2.2 0 .8.3 1.6.9 2.2.6.6 1.3.9 2.2.9s1.6-.3 2.2-.9.9-1.3.9-2.2c0-.9-.3-1.6-.9-2.2-.6-.6-1.4-.9-2.2-.9zm15.6-.7l-.8 1.1c-.1.1-.2.2-.3.2-.1 0-.2 0-.3-.1-.5-.3-1.1-.5-1.7-.5-.6 0-1.1.2-1.6.5s-.8.6-1.1 1.1c-.3.5-.4 1-.4 1.5 0 .8.3 1.6.9 2.1.6.6 1.3.9 2.2.9.6 0 1.2-.2 1.7-.5.1-.1.3-.1.3-.1.1 0 .2.1.3.2l.8 1.1c.1.1.1.2.1.3 0 .1-.1.3-.3.4-.9.6-1.9.9-3 .9-1.5 0-2.7-.5-3.8-1.6-1-1-1.6-2.3-1.6-3.8s.5-2.7 1.6-3.8c1-1 2.3-1.6 3.8-1.6 1.3 0 2.3.3 3.2 1 .1.1.1.2.1.3 0 .2 0 .3-.1.4zm3.9 2.6h3.2c.3 0 .5.1.5.5v1.3c0 .3-.1.5-.5.5h-3.2v1.9h3.2c.3 0 .5.1.5.5v1.3c0 .3-.1.5-.5.5h-5c-.3 0-.5-.1-.5-.5V378c0-.3.1-.5.5-.5h5c.3 0 .5.1.5.5v1.3c0 .3-.1.5-.5.5h-3.2v1.8zm7.9 4.5l-.6 1.5c-.1.2-.3.4-.5.4h-1.6c-.2 0-.3-.1-.3-.3v-.2l3.9-9.7c.1-.2.3-.4.5-.4h.9c.3 0 .4.1.5.4l3.9 9.7v.2c0 .2-.1.3-.3.3h-1.5c-.3 0-.4-.1-.5-.4l-.7-1.5h-3.7zm1.9-4.6l-1 2.5h1.9l-.9-2.5zm8.3.4v5.6c0 .3-.1.5-.5.5h-1.2c-.3 0-.5-.1-.5-.5V378c0-.3.1-.5.5-.5h1.2c.3 0 .5.1.6.3l4 5.7V378c0-.3.1-.5.5-.5h1.2c.3 0 .5.1.5.5v9.5c0 .3-.1.5-.5.5h-1.2c-.3 0-.5-.1-.6-.3l-4-5.8z"/>
  </g>
  <g>
    <path fill="#36afc5" d="M51.6 228.8h-1.1c-.3 0-.5-.1-.5-.5v-1.2c0-.3.1-.5.5-.5h2.9c.3 0 .5.1.5.5v9.4c0 .3-.1.5-.5.5H52c-.3 0-.5-.1-.5-.5v-7.7zm12.6 1.3v3.4c0 1-.4 1.8-1.1 2.5-.7.7-1.5 1.1-2.5 1.1s-1.8-.4-2.5-1.1c-.7-.7-1.1-1.5-1.1-2.5v-3.4c0-1 .4-1.8 1.1-2.5.7-.7 1.5-1.1 2.5-1.1s1.8.4 2.5 1.1c.8.7 1.1 1.6 1.1 2.5zm-4.9 0v3.4c0 .4.1.7.4.9.3.3.6.4.9.4.4 0 .7-.1.9-.4.3-.3.4-.6.4-.9v-3.4c0-.4-.1-.7-.4-.9-.3-.3-.6-.4-.9-.4-.4 0-.7.1-.9.4s-.4.6-.4.9zm16.1 3.2l2.3-6.4c.1-.2.3-.4.5-.4h2c.3 0 .5.1.5.5v9.6c0 .3-.1.5-.5.5h-1.3c-.3 0-.5-.1-.5-.5v-6.3l-2.1 6.4c-.1.3-.3.4-.5.4h-.9c-.3 0-.4-.1-.5-.4l-2-5.6v5.5c0 .3-.1.5-.5.5h-1.4c-.3 0-.5-.1-.5-.5V227c0-.3.1-.5.5-.5h2c.3 0 .4.1.5.4l2.4 6.4zm12.4-6.9c1.4 0 2.7.5 3.7 1.6 1 1 1.6 2.3 1.6 3.8s-.5 2.7-1.6 3.8c-1 1-2.3 1.6-3.8 1.6s-2.7-.5-3.8-1.6c-1-1-1.6-2.3-1.6-3.8s.5-2.7 1.6-3.8c1.1-1.1 2.4-1.6 3.9-1.6zm0 2.3c-.8 0-1.6.3-2.2.9-.6.6-.9 1.3-.9 2.2 0 .8.3 1.6.9 2.2.6.6 1.3.9 2.2.9s1.6-.3 2.2-.9.9-1.3.9-2.2c0-.9-.3-1.6-.9-2.2-.6-.6-1.3-.9-2.2-.9zm12 4l2.3 3.9c0 .1.1.1.1.2 0 .2-.1.2-.3.2h-1.7c-.3 0-.5-.1-.6-.3l-2.2-3.7h-.3v3.6c0 .3-.1.5-.5.5h-1.4c-.3 0-.5-.1-.5-.5V227c0-.3.1-.5.5-.5h3c.9 0 1.7.3 2.3.9.6.6.9 1.4.9 2.4.1 1.3-.5 2.2-1.6 2.9zm-2.7-1.9h1.2c.3 0 .6-.1.8-.4.1-.2.2-.4.2-.7 0-.3-.1-.6-.3-.8-.2-.2-.4-.3-.7-.3h-1.2v2.2zm8.4-.2h3.2c.3 0 .5.1.5.5v1.3c0 .3-.1.5-.5.5h-3.2v1.9h3.2c.3 0 .5.1.5.5v1.3c0 .3-.1.5-.5.5h-5c-.3 0-.5-.1-.5-.5V227c0-.3.1-.5.5-.5h5c.3 0 .5.1.5.5v1.3c0 .3-.1.5-.5.5h-3.2v1.8zm15 .6c.7.7 1.1 1.6 1.1 2.5 0 .9-.3 1.7-.9 2.3-.6.7-1.4 1-2.3 1h-2.9c-.3 0-.5-.1-.5-.5V227c0-.3.1-.5.5-.5h2.7c.5 0 1 .2 1.6.5.9.6 1.3 1.4 1.3 2.4-.1.7-.3 1.3-.6 1.8zm-3.2-.7h.7c.2 0 .4-.1.5-.3.2-.2.2-.4.2-.6s-.1-.4-.2-.6c-.2-.2-.4-.2-.6-.2h-.7v1.7zm0 4.2h1c.3 0 .5-.1.7-.3.2-.2.3-.5.3-.8 0-.3-.1-.6-.3-.8-.2-.2-.4-.3-.7-.3h-1v2.2zm8.1.4l-.6 1.5c-.1.2-.3.4-.5.4h-1.6c-.2 0-.3-.1-.3-.3v-.2l3.9-9.7c.1-.2.3-.4.5-.4h.9c.3 0 .4.1.5.4l3.9 9.7v.2c0 .2-.1.3-.3.3h-1.5c-.3 0-.4-.1-.5-.4l-.7-1.5h-3.7zm1.8-4.6l-1 2.5h1.9l-.9-2.5zm6.7-4h1.3c.3 0 .5.1.5.5v9.6c0 .3-.1.5-.5.5h-1.3c-.3 0-.5-.1-.5-.5V227c0-.3.1-.5.5-.5zm5.6 8.2h2.9c.3 0 .5.1.5.5v1.3c0 .3-.1.5-.5.5h-4.7c-.3 0-.5-.1-.5-.5V227c0-.3.1-.5.5-.5h1.3c.3 0 .5.1.5.5v7.7zm5.3-8.2h1.3c.3 0 .5.1.5.5v9.6c0 .3-.1.5-.5.5h-1.3c-.3 0-.5-.1-.5-.5V227c0-.3.2-.5.5-.5zm5.6 6.4v3.7c0 .3-.1.5-.5.5h-1.3c-.3 0-.5-.1-.5-.5V227c0-.3.1-.5.5-.5h5c.3 0 .5.1.5.5v1.3c0 .3-.1.5-.5.5h-3.2v1.8h3.2c.3 0 .5.1.5.5v1.3c0 .3-.1.5-.5.5h-3.2zm7.4 0v3.7c0 .3-.1.5-.5.5H156c-.3 0-.5-.1-.5-.5V227c0-.3.1-.5.5-.5h5c.3 0 .5.1.5.5v1.3c0 .3-.1.5-.5.5h-3.2v1.8h3.2c.3 0 .5.1.5.5v1.3c0 .3-.1.5-.5.5h-3.2zm5.4-6.2h1c.3 0 .4.1.4.3v.2l-.6 2.1c-.1.2-.2.3-.3.3h-.1l-.6-.1c-.2 0-.4-.1-.4-.3v-.1l.2-1.9c0-.4.1-.6.4-.5zm2.9 7.8l1-.4c.1 0 .2-.1.2-.1.1 0 .2.1.3.2.3.4.6.6 1 .6.2 0 .4-.1.6-.2.2-.2.3-.4.3-.7 0-.4-.2-.7-.5-.9-.1-.1-.4-.2-.8-.3-1.7-.6-2.6-1.7-2.6-3.1 0-.9.3-1.7.9-2.3.6-.6 1.3-.9 2.2-.9.9 0 1.6.3 2.2 1 .3.3.5.6.5.8 0 .1-.1.3-.3.4l-1.2.6c-.1 0-.2.1-.2.1-.1 0-.2-.1-.3-.2-.2-.2-.4-.3-.6-.3-.2 0-.4.1-.6.3-.1.2-.2.3-.2.5 0 .4.4.8 1.2 1.1l.2.1c1.7.6 2.5 1.7 2.5 3.2 0 .9-.3 1.7-.9 2.3-.6.6-1.3.9-2.1.9h-.1c-1.1 0-1.9-.4-2.5-1.3-.3-.4-.4-.7-.4-.8-.1-.3 0-.5.2-.6zm15.7-1.5l2-6.1c.1-.3.2-.4.5-.4h1.6c.2 0 .4.1.4.3v.2l-3.4 9.7c-.1.3-.3.4-.5.4h-.9c-.3 0-.4-.1-.5-.4l-3.4-9.7v-.2c0-.2.1-.3.4-.3h1.6c.3 0 .4.1.5.4l1.7 6.1zm6.2-6.5h1.3c.3 0 .5.1.5.5v9.6c0 .3-.1.5-.5.5H188c-.3 0-.5-.1-.5-.5V227c0-.3.2-.5.5-.5zm3.7 8l1-.4c.1 0 .2-.1.2-.1.1 0 .2.1.3.2.3.4.6.6 1 .6.2 0 .4-.1.6-.2.2-.2.3-.4.3-.7 0-.4-.2-.7-.5-.9-.1-.1-.4-.2-.8-.3-1.7-.6-2.6-1.7-2.6-3.1 0-.9.3-1.7.9-2.3.6-.6 1.3-.9 2.2-.9.9 0 1.6.3 2.2 1 .3.3.5.6.5.8 0 .1-.1.3-.3.4l-1.2.6c-.1 0-.2.1-.2.1-.1 0-.2-.1-.3-.2-.2-.2-.4-.3-.6-.3-.2 0-.4.1-.6.3-.1.2-.2.3-.2.5 0 .4.4.8 1.2 1.1l.2.1c1.7.6 2.5 1.7 2.5 3.2 0 .9-.3 1.7-.9 2.3-.6.6-1.3.9-2.1.9h-.1c-1.1 0-1.9-.4-2.5-1.3-.3-.4-.4-.7-.4-.8-.1-.3 0-.5.2-.6zm7.8-8h1.3c.3 0 .5.1.5.5v9.6c0 .3-.1.5-.5.5h-1.3c-.3 0-.5-.1-.5-.5V227c0-.3.2-.5.5-.5zm7.8 2.3v7.8c0 .3-.1.5-.5.5h-1.3c-.3 0-.5-.1-.5-.5v-7.8h-1.8c-.3 0-.5-.1-.5-.5V227c0-.3.1-.5.5-.5h5.9c.3 0 .5.1.5.5v1.3c0 .3-.1.5-.5.5h-1.8zm4.2 5.7l1-.4c.1 0 .2-.1.2-.1.1 0 .2.1.3.2.3.4.6.6 1 .6.2 0 .4-.1.6-.2.2-.2.3-.4.3-.7 0-.4-.2-.7-.5-.9-.1-.1-.4-.2-.8-.3-1.7-.6-2.6-1.7-2.6-3.1 0-.9.3-1.7.9-2.3.6-.6 1.3-.9 2.2-.9.9 0 1.6.3 2.2 1 .3.3.5.6.5.8 0 .1-.1.3-.3.4l-1.2.6c-.1 0-.2.1-.2.1-.1 0-.2-.1-.3-.2-.2-.2-.4-.3-.6-.3-.2 0-.4.1-.6.3-.1.2-.2.3-.2.5 0 .4.4.8 1.2 1.1l.2.1c1.7.6 2.5 1.7 2.5 3.2 0 .9-.3 1.7-.9 2.3-.6.6-1.3.9-2.1.9h-.1c-1.1 0-1.9-.4-2.5-1.3-.3-.4-.4-.7-.4-.8-.1-.3 0-.5.2-.6z"/>
  </g>
  {% set procentage = (donatedProgress / 100 - 1) * 113 %}
  <path d="M54.5 251h113c2.5 0 4.5 2 4.5 4.5s-2 4.5-4.5 4.5h-113c-2.5 0-4.5-2-4.5-4.5s2-4.5 4.5-4.5z" opacity=".1871" fill="#36afc5"/>
  <path d="M54.5 251h{{ procentage }}c2.5 0 4.5 2 4.5 4.5s-2 4.5-4.5 4.5h-{{ procentage }}c-2.5 0-4.5-2-4.5-4.5s2-4.5 4.5-4.5z" fill="#36afc5"/>
  <g>
    <text x="178" y="259" fill="#36afc5" style="font-size: 12px;">{{ donatedProgress }}%</text>
  </g>
</svg>