<svg xmlns="http://www.w3.org/2000/svg" viewBox="0 0 430 608">
  <path d="M28.5 40v541.5" fill="none" stroke="#f26f69" stroke-width="3" stroke-linecap="round" stroke-dasharray="2 13"/>
  <circle fill="#f26f69" cx="30" cy="30" r="30"/>
  <g>
    <path fill="#fff" d="M45.4 18.8c-3.5 3.9-6.7 7.8-9.7 12-3 4.1-5.8 8.4-8.3 12.7-.2.3-.4.8-.7 1.3-.9 1.7-2.1 2.6-3.7 2.6-.7 0-1.2-.1-1.7-.3-.4-.2-.8-.5-1.2-1-.3-.4-.6-1-.9-1.7-.3-.7-.6-1.7-.9-3 0-.1-.1-.2-.1-.3-.4-1.5-.6-2.4-.6-2.8 0-.8.4-1.5 1.3-2.1s1.8-1 2.6-1c.3 0 .5.1.7.2.2.2.4.5.6 1.1.1.3.3.8.5 1.4.5 1.3.8 1.9 1.1 1.9.3 0 1.3-1.5 3.2-4.4 1.8-2.8 3.3-5.1 4.5-7 1.8-2.7 3.1-4.6 4.1-5.8.9-1.2 1.8-2.1 2.5-2.7.7-.5 1.5-1 2.5-1.3 1-.3 2.3-.5 3.9-.6l.3.8z"/>
  </g>
  <circle fill="#f26f69" cx="30" cy="112" r="30"/>
  <g>
    <path fill="#fff" d="M46.4 99.8c-3.5 3.9-6.7 7.8-9.7 12-3 4.1-5.8 8.4-8.3 12.7-.2.3-.4.8-.7 1.3-.9 1.7-2.1 2.6-3.7 2.6-.7 0-1.2-.1-1.7-.3-.4-.2-.8-.5-1.2-1-.3-.4-.6-1-.9-1.7-.3-.7-.6-1.7-.9-3 0-.1-.1-.2-.1-.3-.4-1.5-.6-2.4-.6-2.8 0-.8.4-1.5 1.3-2.1s1.8-1 2.6-1c.3 0 .5.1.7.2.2.2.4.5.6 1.1.1.3.3.8.5 1.4.5 1.3.8 1.9 1.1 1.9.3 0 1.3-1.5 3.2-4.4 1.8-2.8 3.3-5.1 4.5-7 1.8-2.7 3.1-4.6 4.1-5.8.9-1.2 1.8-2.1 2.5-2.7.7-.5 1.5-1 2.5-1.3 1-.3 2.3-.5 3.9-.6l.3.8z"/>
  </g>
  <circle fill="#d8d8d8" cx="30" cy="578" r="30"/>
  <circle fill="#d8d8d8" cx="29" cy="471" r="10"/>
  <circle fill="#d8d8d8" cx="29" cy="293" r="10"/>
  <circle fill="#36afc5" cx="30" cy="375" r="30"/>
  <g>
    <path fill="#fff" d="M36.4 372.8c3.4 2 5 4.6 5 7.8 0 2.7-.9 5-2.7 6.8-1.9 1.9-4.2 2.8-7.1 2.8-2.7 0-5.2-.9-7.4-2.7-.4-.3-.6-.6-.6-.9 0-.1.1-.3.2-.5l1-1.8c.2-.3.3-.4.6-.4.2 0 .3.1.6.3 1.6 1.5 3.5 2.3 5.6 2.3 1.8 0 3.3-.6 4.4-1.8 1.2-1.2 1.8-2.6 1.8-4.3 0-1.5-.5-2.8-1.6-3.9-1.3-1.3-3-2.1-5.2-2.1l-1.7-.1c-.6 0-.8-.3-.8-.8v-1.4c0-.6.3-.8.8-.8l1.4-.1c1.9-.1 3.3-.7 4.2-1.8.7-.8 1-1.8 1-3 0-1.1-.4-2-1.1-2.7-.9-.9-2-1.3-3.5-1.3-1 0-2.1.3-3.2.8-.9.5-1.6 1-2.2 1.5-.1.1-.3.2-.4.2-.2 0-.4-.1-.5-.4l-.9-1.8c-.1-.2-.1-.4-.1-.5 0-.3.2-.6.7-.9 2-1.7 4.3-2.5 6.8-2.5s4.5.8 6.1 2.3c1.4 1.4 2.1 3.2 2.1 5.2 0 1.3-.3 2.5-1 3.7-.6 1-1.4 1.8-2.3 2.3-.1.1-.1.1-.1.2-.1.1-.1.2.1.3z"/>
  </g>
  <g>
    <path fill="#2b2f47" d="M83.4 31.5l1.5-.6c.1-.1.3-.1.4-.1.2 0 .3.1.5.3.4.6.9.8 1.5.8.3 0 .6-.1.8-.3.2-.2.4-.6.4-1 0-.6-.2-1-.7-1.3-.2-.1-.6-.3-1.2-.5-2.4-.9-3.7-2.4-3.7-4.5 0-1.3.4-2.4 1.2-3.2.8-.8 1.9-1.2 3.1-1.2 1.3 0 2.3.5 3.2 1.4.4.5.7.9.7 1.2 0 .2-.1.4-.4.5l-1.8.8c-.1.1-.3.1-.3.1-.2 0-.3-.1-.4-.2-.3-.3-.6-.5-.9-.5-.3 0-.6.2-.8.5-.2.2-.2.5-.2.7 0 .6.6 1.1 1.7 1.5l.3.1c2.4.9 3.6 2.5 3.6 4.6 0 1.3-.4 2.4-1.3 3.3-.8.8-1.8 1.2-3 1.2h-.2c-1.5 0-2.7-.6-3.6-1.9-.4-.6-.6-1-.6-1.2-.2-.2-.1-.4.2-.5zm17-8.3v11.1c0 .4-.2.7-.7.7h-1.9c-.4 0-.7-.2-.7-.7v-11h-2.6c-.4 0-.7-.2-.7-.7v-1.9c0-.4.2-.7.7-.7h8.4c.4 0 .7.2.7.7v1.9c0 .4-.2.7-.7.7h-2.5zm7.8 9.1l-.9 2.2c-.1.3-.4.5-.8.5h-2.2c-.3 0-.5-.1-.5-.4 0-.1 0-.2.1-.3l5.5-13.8c.1-.4.4-.5.8-.5h1.3c.4 0 .6.2.8.5l5.5 13.8c0 .1.1.2.1.3 0 .2-.2.4-.5.4h-2.2c-.4 0-.6-.2-.8-.5l-1-2.2h-5.2zm2.6-6.6l-1.4 3.5h2.8l-1.4-3.5zm13.8-2.5v11.1c0 .4-.2.7-.7.7H122c-.4 0-.7-.2-.7-.7v-11h-2.6c-.4 0-.7-.2-.7-.7v-1.9c0-.4.2-.7.7-.7h8.4c.4 0 .7.2.7.7v1.9c0 .4-.2.7-.7.7h-2.5zm6.1-3.2h1.9c.4 0 .7.2.7.7v13.7c0 .4-.2.7-.7.7h-1.9c-.4 0-.7-.2-.7-.7V20.7c.1-.5.3-.7.7-.7zm8 5.9h4.5c.4 0 .7.2.7.7v1.9c0 .4-.2.7-.7.7h-4.5v2.7h4.5c.4 0 .7.2.7.7v1.9c0 .4-.2.7-.7.7h-7.1c-.4 0-.7-.2-.7-.7V20.7c0-.4.2-.7.7-.7h7.1c.4 0 .7.2.7.7v1.9c0 .4-.2.7-.7.7h-4.5v2.6zm18 4h-2.6c-.4 0-.7-.2-.7-.7v-1.7c0-.4.2-.7.7-.7h5.3c.4 0 .7.2.7.6V31c.1.5 0 1-.4 1.4-.4.6-1 1.2-1.7 1.6-1.1.7-2.5 1.1-4 1.1-2.2 0-4-.7-5.5-2.2-1.5-1.5-2.2-3.3-2.2-5.4 0-2.1.7-3.9 2.2-5.4 1.5-1.5 3.3-2.2 5.4-2.2 1.8 0 3.2.5 4.5 1.4.2.1.2.3.2.5 0 .1-.1.3-.2.4l-1.2 1.5c-.2.2-.3.3-.5.3-.1 0-.3-.1-.5-.2-.8-.5-1.6-.7-2.4-.7-1.2 0-2.2.4-3.1 1.3-.9.9-1.3 1.9-1.3 3.1 0 1.2.4 2.2 1.3 3.1.9.9 1.9 1.3 3.2 1.3 1.3 0 2.2-.4 2.8-1.1v-.9zm8.9-4h4.5c.4 0 .7.2.7.7v1.9c0 .4-.2.7-.7.7h-4.5v2.7h4.5c.4 0 .7.2.7.7v1.9c0 .4-.2.7-.7.7H163c-.4 0-.7-.2-.7-.7V20.7c0-.4.2-.7.7-.7h7.1c.4 0 .7.2.7.7v1.9c0 .4-.2.7-.7.7h-4.5v2.6zm10.8 5.9h4.2c.4 0 .7.2.7.7v1.9c0 .4-.2.7-.7.7h-6.8c-.4 0-.7-.2-.7-.7V20.7c0-.4.2-.7.7-.7h1.9c.4 0 .7.2.7.7v11.1zm7.1 2.5V20.7c0-.4.2-.7.7-.7h4.3c2.1 0 3.9.7 5.3 2.2 1.5 1.5 2.2 3.2 2.2 5.3s-.7 3.8-2.2 5.3c-1.5 1.5-3.2 2.2-5.3 2.2h-4.3c-.5 0-.8-.2-.7-.7zm3.2-2.5h1.8c1.3 0 2.3-.4 3.1-1.2.8-.8 1.2-1.8 1.2-3.1s-.4-2.3-1.2-3.1c-.8-.8-1.8-1.2-3-1.2h-1.9v8.6zm20.9 0h4.2c.4 0 .7.2.7.7v1.9c0 .4-.2.7-.7.7H205c-.4 0-.7-.2-.7-.7V20.7c0-.4.2-.7.7-.7h1.9c.4 0 .7.2.7.7v11.1zm10.8.5l-.9 2.2c-.1.3-.4.5-.8.5h-2.2c-.3 0-.5-.1-.5-.4 0-.1 0-.2.1-.3l5.5-13.8c.1-.4.4-.5.8-.5h1.3c.4 0 .6.2.8.5l5.5 13.8c0 .1.1.2.1.3 0 .2-.2.4-.5.4h-2.2c-.4 0-.6-.2-.8-.5l-1-2.2h-5.2zm2.6-6.6l-1.4 3.5h2.8l-1.4-3.5zm18.7 1.9l1.8-7.1c.1-.4.3-.6.7-.5h2.1c.4 0 .5.1.5.4v.2l-3.7 13.8c-.1.4-.3.6-.7.5H239c-.4 0-.6-.2-.7-.6l-1.6-7.8-2 7.8c-.1.4-.3.6-.7.5h-1.4c-.4 0-.6-.2-.7-.5l-3.7-13.8v-.2c0-.3.2-.4.5-.4h2.1c.4 0 .6.2.7.5l1.8 7.1 1.8-7.1c.1-.4.3-.6.7-.5h1.4c.4 0 .6.2.7.5l1.8 7.2zm16.8 1.7v5c0 .4-.2.7-.7.7h-1.9c-.4 0-.7-.2-.7-.7V20.7c0-.4.2-.7.7-.7h4c1.3 0 2.3.4 3.1 1.3.9.9 1.3 2 1.3 3.3 0 1.4-.5 2.6-1.4 3.5-.8.8-1.8 1.2-3.1 1.2h-1.3zm0-3.2h1.5c.4 0 .8-.2 1-.6.1-.3.2-.5.2-.9s-.1-.8-.4-1.1c-.2-.2-.5-.3-.8-.3h-1.5v2.9zm10.5 6.2l-.9 2.2c-.1.3-.4.5-.8.5h-2.2c-.3 0-.5-.1-.5-.4 0-.1 0-.2.1-.3l5.5-13.8c.1-.4.4-.5.8-.5h1.3c.4 0 .6.2.8.5l5.5 13.8c0 .1.1.2.1.3 0 .2-.2.4-.5.4H274c-.4 0-.6-.2-.8-.5l-1-2.2H267zm2.6-6.6l-1.4 3.5h2.8l-1.4-3.5zm9 5.8l1.5-.6c.1-.1.3-.1.4-.1.2 0 .3.1.5.3.4.6.9.8 1.5.8.3 0 .6-.1.8-.3.2-.2.4-.6.4-1 0-.6-.2-1-.7-1.3-.2-.1-.6-.3-1.2-.5-2.4-.9-3.7-2.4-3.7-4.5 0-1.3.4-2.4 1.2-3.2.8-.8 1.9-1.2 3.1-1.2 1.3 0 2.3.5 3.2 1.4.4.5.7.9.7 1.2 0 .2-.1.4-.4.5l-1.8.8c-.1.1-.3.1-.3.1-.2 0-.3-.1-.4-.2-.3-.3-.6-.5-.9-.5-.3 0-.6.2-.8.5-.2.2-.2.5-.2.7 0 .6.6 1.1 1.7 1.5l.3.1c2.4.9 3.6 2.5 3.6 4.6 0 1.3-.4 2.4-1.3 3.3-.8.8-1.8 1.2-3 1.2h-.2c-1.5 0-2.7-.6-3.6-1.9-.4-.6-.6-1-.6-1.2-.2-.2-.1-.4.2-.5zm11 0l1.5-.6c.1-.1.3-.1.4-.1.2 0 .3.1.5.3.4.6.9.8 1.5.8.3 0 .6-.1.8-.3.2-.2.4-.6.4-1 0-.6-.2-1-.7-1.3-.2-.1-.6-.3-1.2-.5-2.4-.9-3.7-2.4-3.7-4.5 0-1.3.4-2.4 1.2-3.2.8-.8 1.9-1.2 3.1-1.2 1.3 0 2.3.5 3.2 1.4.4.5.7.9.7 1.2 0 .2-.1.4-.4.5l-1.8.8c-.1.1-.3.1-.3.1-.2 0-.3-.1-.4-.2-.3-.3-.6-.5-.9-.5-.3 0-.6.2-.8.5-.2.2-.2.5-.2.7 0 .6.6 1.1 1.7 1.5l.3.1c2.4.9 3.6 2.5 3.6 4.6 0 1.3-.4 2.4-1.3 3.3-.8.8-1.8 1.2-3 1.2h-.2c-1.5 0-2.7-.6-3.6-1.9-.4-.6-.6-1-.6-1.2-.2-.2-.1-.4.2-.5zm13.8-5.6h4.5c.4 0 .7.2.7.7v1.9c0 .4-.2.7-.7.7h-4.5v2.7h4.5c.4 0 .7.2.7.7v1.9c0 .4-.2.7-.7.7h-7.1c-.4 0-.7-.2-.7-.7V20.7c0-.4.2-.7.7-.7h7.1c.4 0 .7.2.7.7v1.9c0 .4-.2.7-.7.7h-4.5v2.6zm7.6 8.4V20.7c0-.4.2-.7.7-.7h4.3c2.1 0 3.9.7 5.3 2.2 1.5 1.5 2.2 3.2 2.2 5.3s-.7 3.8-2.2 5.3c-1.5 1.5-3.2 2.2-5.3 2.2h-4.3c-.5 0-.7-.2-.7-.7zm3.2-2.5h1.8c1.3 0 2.3-.4 3.1-1.2.8-.8 1.2-1.8 1.2-3.1s-.4-2.3-1.2-3.1c-.8-.8-1.8-1.2-3-1.2h-1.9v8.6z"/>
  </g>
  <g>
    <path fill="#2b2f47" d="M87.1 105.2h-1.6c-.4 0-.7-.2-.7-.7v-1.7c0-.4.2-.7.7-.7h4.2c.4 0 .7.2.7.7v13.5c0 .4-.2.7-.7.7h-1.9c-.4 0-.7-.2-.7-.7v-11.1zm18.1 2v4.9c0 1.4-.5 2.6-1.5 3.6s-2.2 1.5-3.6 1.5-2.6-.5-3.6-1.5-1.5-2.2-1.5-3.6v-4.9c0-1.4.5-2.6 1.5-3.6s2.2-1.5 3.6-1.5 2.6.5 3.6 1.5 1.5 2.2 1.5 3.6zm-7 0v4.8c0 .5.2 1 .6 1.3.4.4.8.6 1.3.6s1-.2 1.3-.6c.4-.4.6-.8.6-1.3v-4.8c0-.5-.2-1-.6-1.3-.4-.4-.8-.6-1.3-.6s-1 .2-1.3.6-.6.8-.6 1.3zm23.1 1.5c1.1 1 1.6 2.2 1.6 3.6 0 1.3-.4 2.4-1.3 3.3-.9 1-2 1.4-3.3 1.4h-4.1c-.4 0-.7-.2-.7-.7v-13.7c0-.4.2-.7.7-.7h3.8c.7 0 1.4.3 2.2.8 1.2.8 1.8 2 1.8 3.4 0 1-.2 1.8-.7 2.6zm-4.6-1h1.1c.3 0 .5-.1.8-.4.2-.2.3-.5.3-.9s-.1-.6-.3-.8c-.2-.2-.5-.3-.9-.3h-1v2.4zm0 6.1h1.4c.4 0 .7-.1 1-.4.3-.3.5-.7.5-1.2s-.2-.9-.5-1.2c-.3-.3-.6-.4-1-.4h-1.4v3.2zm11.7.5l-.9 2.2c-.1.3-.4.5-.8.5h-2.2c-.3 0-.5-.1-.5-.4 0-.1 0-.2.1-.3l5.5-13.8c.1-.4.4-.5.8-.5h1.3c.4 0 .6.2.8.5l5.5 13.8c0 .1.1.2.1.3 0 .2-.2.4-.5.4h-2.2c-.4 0-.6-.2-.8-.5l-1-2.2h-5.2zm2.6-6.6l-1.4 3.5h2.8l-1.4-3.5zm9.4-5.7h1.9c.4 0 .7.2.7.7v13.7c0 .4-.2.7-.7.7h-1.9c-.4 0-.7-.2-.7-.7v-13.7c.1-.5.3-.7.7-.7zm8 11.8h4.2c.4 0 .7.2.7.7v1.9c0 .4-.2.7-.7.7h-6.8c-.4 0-.7-.2-.7-.7v-13.7c0-.4.2-.7.7-.7h1.9c.4 0 .7.2.7.7v11.1zM156 102h1.9c.4 0 .7.2.7.7v13.7c0 .4-.2.7-.7.7H156c-.4 0-.7-.2-.7-.7v-13.7c.1-.5.3-.7.7-.7zm8 9.1v5.2c0 .4-.2.7-.7.7h-1.9c-.4 0-.7-.2-.7-.7v-13.7c0-.4.2-.7.7-.7h7.1c.4 0 .7.2.7.7v1.9c0 .4-.2.7-.7.7H164v2.6h4.6c.4 0 .7.2.7.7v1.9c0 .4-.2.7-.7.7H164zm10.7 0v5.2c0 .4-.2.7-.7.7h-1.9c-.4 0-.7-.2-.7-.7v-13.7c0-.4.2-.7.7-.7h7.1c.4 0 .7.2.7.7v1.9c0 .4-.2.7-.7.7h-4.6v2.6h4.6c.4 0 .7.2.7.7v1.9c0 .4-.2.7-.7.7h-4.5zm19.2.2l2.9-8.7c.1-.4.4-.5.7-.5h2.2c.3 0 .5.1.5.4 0 .1 0 .2-.1.3l-4.9 13.8c-.1.4-.4.5-.7.5h-1.3c-.4 0-.6-.2-.7-.5l-4.9-13.8v-.3c0-.3.2-.4.5-.4h2.2c.4 0 .6.2.7.5l2.9 8.7zm8.9-9.3h1.9c.4 0 .7.2.7.7v13.7c0 .4-.2.7-.7.7h-1.9c-.4 0-.7-.2-.7-.7v-13.7c0-.5.2-.7.7-.7zm5.2 11.5l1.5-.6c.1-.1.3-.1.4-.1.2 0 .3.1.5.3.4.6.9.8 1.5.8.3 0 .6-.1.8-.3.2-.2.4-.6.4-1 0-.6-.2-1-.7-1.3-.2-.1-.6-.3-1.2-.5-2.4-.9-3.7-2.4-3.7-4.5 0-1.3.4-2.4 1.2-3.2.8-.8 1.9-1.2 3.1-1.2 1.3 0 2.3.5 3.2 1.4.4.5.7.9.7 1.2 0 .2-.1.4-.4.5l-1.8.8c-.1.1-.3.1-.3.1-.2 0-.3-.1-.4-.2-.3-.3-.6-.5-.9-.5-.3 0-.6.2-.8.5-.2.2-.2.5-.2.7 0 .6.6 1.1 1.7 1.5l.3.1c2.4.9 3.6 2.5 3.6 4.6 0 1.3-.4 2.4-1.3 3.3-.8.8-1.8 1.2-3 1.2h-.2c-1.5 0-2.7-.6-3.6-1.9-.4-.6-.6-1-.6-1.2-.2-.2-.1-.4.2-.5zm11.2-11.5h1.9c.4 0 .7.2.7.7v13.7c0 .4-.2.7-.7.7h-1.9c-.4 0-.7-.2-.7-.7v-13.7c0-.5.2-.7.7-.7zm11.1 3.2v11.1c0 .4-.2.7-.7.7h-1.9c-.4 0-.7-.2-.7-.7v-11.1h-2.6c-.4 0-.7-.2-.7-.7v-1.9c0-.4.2-.7.7-.7h8.4c.4 0 .7.2.7.7v1.9c0 .4-.2.7-.7.7h-2.5zm23.7-1l-1.2 1.5c-.2.2-.3.3-.5.3-.1 0-.3-.1-.5-.2-.8-.5-1.6-.7-2.4-.7-.8 0-1.6.2-2.4.7-.6.4-1.1.9-1.5 1.6-.4.7-.6 1.4-.6 2.1 0 1.2.4 2.2 1.2 3.1.9.9 1.9 1.3 3.2 1.3.8 0 1.6-.2 2.4-.7.2-.1.4-.2.5-.2.2 0 .3.1.5.3l1.2 1.6c.1.2.2.3.2.4 0 .2-.1.4-.4.6-1.3.9-2.8 1.3-4.3 1.3-2.1 0-3.9-.7-5.4-2.2-1.5-1.5-2.2-3.3-2.2-5.4 0-2.1.7-3.9 2.2-5.4 1.5-1.5 3.3-2.2 5.4-2.2 1.8 0 3.3.5 4.5 1.5.1.1.2.3.2.4.1 0 0 .1-.1.3zm10.1-2.3c2.1 0 3.9.7 5.3 2.2 1.5 1.5 2.2 3.3 2.2 5.4s-.7 3.9-2.2 5.4c-1.5 1.5-3.3 2.2-5.4 2.2s-3.9-.7-5.4-2.2c-1.5-1.5-2.2-3.3-2.2-5.4 0-2.1.7-3.9 2.2-5.4 1.5-1.5 3.3-2.2 5.5-2.2zm-.1 3.2c-1.2 0-2.2.4-3.1 1.3-.9.9-1.3 1.9-1.3 3.1 0 1.2.4 2.2 1.3 3.1.9.9 1.9 1.3 3.1 1.3s2.2-.4 3.1-1.3 1.3-1.9 1.3-3.1c0-1.2-.4-2.3-1.3-3.1-.8-.9-1.9-1.3-3.1-1.3zm17.8 6.6l3.3-9.2c.1-.4.4-.5.8-.5h2.9c.4 0 .7.2.7.7v13.7c0 .4-.2.7-.7.7h-1.9c-.4 0-.7-.2-.7-.7v-8.9l-3 9.1c-.1.4-.4.5-.7.5h-1.3c-.4 0-.6-.2-.7-.5l-2.9-8v7.9c0 .4-.2.7-.7.7h-2c-.4 0-.7-.2-.7-.7v-13.7c0-.4.2-.7.7-.7h2.8c.4 0 .6.2.7.5l3.4 9.1zm13.3-.4v5c0 .4-.2.7-.7.7h-1.9c-.4 0-.7-.2-.7-.7v-13.7c0-.4.2-.7.7-.7h4c1.3 0 2.3.4 3.1 1.3.9.9 1.3 2 1.3 3.3 0 1.4-.5 2.6-1.4 3.5-.8.8-1.8 1.2-3.1 1.2h-1.3zm0-3.2h1.5c.4 0 .8-.2 1-.6.1-.3.2-.5.2-.9s-.1-.8-.4-1.1c-.2-.2-.5-.3-.8-.3h-1.5v2.9zm10.5 6.2l-.9 2.2c-.1.3-.4.5-.8.5h-2.2c-.3 0-.5-.1-.5-.4 0-.1 0-.2.1-.3l5.5-13.8c.1-.4.4-.5.8-.5h1.3c.4 0 .6.2.8.5l5.5 13.8c0 .1.1.2.1.3 0 .2-.2.4-.5.4h-2.2c-.4 0-.6-.2-.8-.5l-1-2.2h-5.2zm2.6-6.6l-1.4 3.5h2.8l-1.4-3.5zm11.9.6v8c0 .4-.2.7-.7.7h-1.7c-.4 0-.7-.2-.7-.7v-13.7c0-.4.2-.7.7-.7h1.7c.4 0 .7.2.9.5l5.7 8.2v-8c0-.4.2-.7.7-.7h1.7c.4 0 .7.2.7.7v13.6c0 .4-.2.7-.7.7h-1.7c-.4 0-.7-.2-.9-.5l-5.7-8.1zm12-6.3h1.9c.4 0 .7.2.7.7v13.7c0 .4-.2.7-.7.7h-1.9c-.4 0-.7-.2-.7-.7v-13.7c0-.5.2-.7.7-.7zm8 5.9h4.5c.4 0 .7.2.7.7v1.9c0 .4-.2.7-.7.7h-4.5v2.7h4.5c.4 0 .7.2.7.7v1.9c0 .4-.2.7-.7.7h-7.1c-.4 0-.7-.2-.7-.7v-13.7c0-.4.2-.7.7-.7h7.1c.4 0 .7.2.7.7v1.9c0 .4-.2.7-.7.7h-4.5v2.5zm8 5.6l1.5-.6c.1-.1.3-.1.4-.1.2 0 .3.1.5.3.4.6.9.8 1.5.8.3 0 .6-.1.8-.3.2-.2.4-.6.4-1 0-.6-.2-1-.7-1.3-.2-.1-.6-.3-1.2-.5-2.4-.9-3.7-2.4-3.7-4.5 0-1.3.4-2.4 1.2-3.2.8-.8 1.9-1.2 3.1-1.2 1.3 0 2.3.5 3.2 1.4.4.5.7.9.7 1.2 0 .2-.1.4-.4.5l-1.8.8c-.1.1-.3.1-.3.1-.2 0-.3-.1-.4-.2-.3-.3-.6-.5-.9-.5-.3 0-.6.2-.8.5-.2.2-.2.5-.2.7 0 .6.6 1.1 1.7 1.5l.3.1c2.4.9 3.6 2.5 3.6 4.6 0 1.3-.4 2.4-1.3 3.3-.8.8-1.8 1.2-3 1.2h-.2c-1.5 0-2.7-.6-3.6-1.9-.4-.6-.6-1-.6-1.2-.2-.2-.1-.4.2-.5z"/>
  </g>
  <g>
    <path fill="#2b2f47" d="M83.8 584.3l-.9 2.2c-.1.3-.4.5-.8.5h-2.2c-.3 0-.5-.1-.5-.4 0-.1 0-.2.1-.3l5.5-13.8c.1-.4.4-.5.8-.5H87c.4 0 .6.2.8.5l5.5 13.8c0 .1.1.2.1.3 0 .2-.2.4-.5.4h-2.2c-.4 0-.6-.2-.8-.5l-1-2.2h-5.1zm2.6-6.6l-1.4 3.5h2.8l-1.4-3.5zm18.1 3.6v5c0 .4-.2.7-.7.7h-1.9c-.4 0-.7-.2-.7-.7v-13.7c0-.4.2-.7.7-.7h4c1.3 0 2.3.4 3.1 1.3.9.9 1.3 2 1.3 3.3 0 1.4-.5 2.6-1.4 3.5-.8.8-1.8 1.2-3.1 1.2h-1.3zm0-3.2h1.5c.4 0 .8-.2 1-.6.1-.3.2-.5.2-.9s-.1-.8-.4-1.1c-.2-.2-.5-.3-.8-.3h-1.5v2.9zm11.3 5.7h4.2c.4 0 .7.2.7.7v1.9c0 .4-.2.7-.7.7h-6.8c-.4 0-.7-.2-.7-.7v-13.7c0-.4.2-.7.7-.7h1.9c.4 0 .7.2.7.7v11.1zm10.9.5l-.9 2.2c-.1.3-.4.5-.8.5h-2.2c-.3 0-.5-.1-.5-.4 0-.1 0-.2.1-.3l5.5-13.8c.1-.4.4-.5.8-.5h1.3c.4 0 .6.2.8.5l5.5 13.8c0 .1.1.2.1.3 0 .2-.2.4-.5.4h-2.2c-.4 0-.6-.2-.8-.5l-1-2.2h-5.2zm2.6-6.6l-1.4 3.5h2.8l-1.4-3.5zm9 5.8l1.5-.6c.1-.1.3-.1.4-.1.2 0 .3.1.5.3.4.6.9.8 1.5.8.3 0 .6-.1.8-.3.2-.2.4-.6.4-1 0-.6-.2-1-.7-1.3-.2-.1-.6-.3-1.2-.5-2.4-.9-3.7-2.4-3.7-4.5 0-1.3.4-2.4 1.2-3.2.8-.8 1.9-1.2 3.1-1.2 1.3 0 2.3.5 3.2 1.4.4.5.7.9.7 1.2 0 .2-.1.4-.4.5l-1.8.8c-.1.1-.3.1-.3.1-.2 0-.3-.1-.4-.2-.3-.3-.6-.5-.9-.5-.3 0-.6.2-.8.5-.2.2-.2.5-.2.7 0 .6.6 1.1 1.7 1.5l.3.1c2.4.9 3.6 2.5 3.6 4.6 0 1.3-.4 2.4-1.3 3.3-.8.8-1.8 1.2-3 1.2h-.5c-1.5 0-2.7-.6-3.6-1.9-.4-.6-.6-1-.6-1.2 0-.2.2-.4.5-.5zm16.9-8.3v11.1c0 .4-.2.7-.7.7h-1.9c-.4 0-.7-.2-.7-.7v-11.1h-2.6c-.4 0-.7-.2-.7-.7v-1.9c0-.4.2-.7.7-.7h8.4c.4 0 .7.2.7.7v1.9c0 .4-.2.7-.7.7h-2.5zm6.1-3.2h1.9c.4 0 .7.2.7.7v13.7c0 .4-.2.7-.7.7h-1.9c-.4 0-.7-.2-.7-.7v-13.7c.1-.5.3-.7.7-.7zm16.9 2.2l-1.2 1.5c-.2.2-.3.3-.5.3-.1 0-.3-.1-.5-.2-.8-.5-1.6-.7-2.4-.7-.8 0-1.6.2-2.4.7-.6.4-1.1.9-1.5 1.6-.4.7-.6 1.4-.6 2.1 0 1.2.4 2.2 1.2 3.1.9.9 1.9 1.3 3.2 1.3.8 0 1.6-.2 2.4-.7.2-.1.4-.2.5-.2.2 0 .3.1.5.3l1.2 1.6c.1.2.2.3.2.4 0 .2-.1.4-.4.6-1.3.9-2.8 1.3-4.3 1.3-2.1 0-3.9-.7-5.4-2.2-1.5-1.5-2.2-3.3-2.2-5.4 0-2.1.7-3.9 2.2-5.4 1.5-1.5 3.3-2.2 5.4-2.2 1.8 0 3.3.5 4.5 1.5.1.1.2.3.2.4.1 0 .1.1-.1.3zm11.7 6.9v5.2c0 .4-.2.7-.7.7h-1.9c-.4 0-.7-.2-.7-.7v-13.7c0-.4.2-.7.7-.7h7.1c.4 0 .7.2.7.7v1.9c0 .4-.2.7-.7.7h-4.6v2.6h4.6c.4 0 .7.2.7.7v1.9c0 .4-.2.7-.7.7h-4.5zm14.5-.3l3.2 5.6c.1.1.1.2.1.3 0 .2-.1.3-.4.3h-2.4c-.4 0-.7-.2-.8-.5l-3.1-5.4h-.4v5.2c0 .4-.2.7-.7.7H198c-.4 0-.7-.2-.7-.7v-13.7c0-.4.2-.7.7-.7h4.2c1.3 0 2.4.4 3.3 1.3.9.9 1.3 2 1.3 3.4 0 2-.8 3.3-2.4 4.2zm-3.9-2.6h1.7c.5 0 .8-.2 1.1-.5.2-.3.3-.6.3-1s-.1-.8-.4-1.1c-.2-.2-.6-.4-1-.4h-1.7v3zm12-.3h4.5c.4 0 .7.2.7.7v1.9c0 .4-.2.7-.7.7h-4.5v2.7h4.5c.4 0 .7.2.7.7v1.9c0 .4-.2.7-.7.7h-7c-.4 0-.7-.2-.7-.7v-13.7c0-.4.2-.7.7-.7h7.1c.4 0 .7.2.7.7v1.9c0 .4-.2.7-.7.7h-4.5v2.5zm10.8 0h4.5c.4 0 .7.2.7.7v1.9c0 .4-.2.7-.7.7h-4.5v2.7h4.5c.4 0 .7.2.7.7v1.9c0 .4-.2.7-.7.7h-7.1c-.4 0-.7-.2-.7-.7v-13.7c0-.4.2-.7.7-.7h7.1c.4 0 .7.2.7.7v1.9c0 .4-.2.7-.7.7h-4.5v2.5zm21.3-6c2.1 0 3.9.7 5.3 2.2 1.5 1.5 2.2 3.3 2.2 5.4s-.7 3.9-2.2 5.4c-1.5 1.5-3.3 2.2-5.4 2.2s-3.9-.7-5.4-2.2c-1.5-1.5-2.2-3.3-2.2-5.4 0-2.1.7-3.9 2.2-5.4 1.5-1.5 3.3-2.2 5.5-2.2zm-.1 3.2c-1.2 0-2.2.4-3.1 1.3-.9.9-1.3 1.9-1.3 3.1 0 1.2.4 2.2 1.3 3.1.9.9 1.9 1.3 3.1 1.3s2.2-.4 3.1-1.3 1.3-1.9 1.3-3.1c0-1.2-.4-2.3-1.3-3.1-.8-.9-1.8-1.3-3.1-1.3zm22.3-.9l-1.2 1.5c-.2.2-.3.3-.5.3-.1 0-.3-.1-.5-.2-.8-.5-1.6-.7-2.4-.7-.8 0-1.6.2-2.4.7-.6.4-1.1.9-1.5 1.6-.4.7-.6 1.4-.6 2.1 0 1.2.4 2.2 1.2 3.1.9.9 1.9 1.3 3.2 1.3.8 0 1.6-.2 2.4-.7.2-.1.4-.2.5-.2.2 0 .3.1.5.3l1.2 1.6c.1.2.2.3.2.4 0 .2-.1.4-.4.6-1.3.9-2.8 1.3-4.3 1.3-2.1 0-3.9-.7-5.4-2.2-1.5-1.5-2.2-3.3-2.2-5.4 0-2.1.7-3.9 2.2-5.4 1.5-1.5 3.3-2.2 5.4-2.2 1.8 0 3.3.5 4.5 1.5.1.1.2.3.2.4.1 0 0 .1-.1.3zm5.6 3.7h4.5c.4 0 .7.2.7.7v1.9c0 .4-.2.7-.7.7h-4.5v2.7h4.5c.4 0 .7.2.7.7v1.9c0 .4-.2.7-.7.7h-7.1c-.4 0-.7-.2-.7-.7v-13.7c0-.4.2-.7.7-.7h7.1c.4 0 .7.2.7.7v1.9c0 .4-.2.7-.7.7h-4.5v2.5zm11.4 6.4l-.9 2.2c-.1.3-.4.5-.8.5h-2.2c-.3 0-.5-.1-.5-.4 0-.1 0-.2.1-.3l5.5-13.8c.1-.4.4-.5.8-.5h1.3c.4 0 .6.2.8.5l5.5 13.8c0 .1.1.2.1.3 0 .2-.2.4-.5.4h-2.2c-.4 0-.6-.2-.8-.5l-1-2.2h-5.2zm2.6-6.6l-1.4 3.5h2.8l-1.4-3.5zm11.9.6v8c0 .4-.2.7-.7.7h-1.7c-.4 0-.7-.2-.7-.7v-13.7c0-.4.2-.7.7-.7h1.7c.4 0 .7.2.9.5l5.7 8.2v-8c0-.4.2-.7.7-.7h1.7c.4 0 .7.2.7.7v13.6c0 .4-.2.7-.7.7h-1.7c-.4 0-.7-.2-.9-.5l-5.7-8.1z"/>
  </g>
  <g>
    <path fill="#36afc5" d="M84.1 372.2h-1.6c-.4 0-.7-.2-.7-.7v-1.7c0-.4.2-.7.7-.7h4.2c.4 0 .7.2.7.7v13.5c0 .4-.2.7-.7.7h-1.9c-.4 0-.7-.2-.7-.7v-11.1zm18.1 2v4.9c0 1.4-.5 2.6-1.5 3.6s-2.2 1.5-3.6 1.5-2.6-.5-3.6-1.5-1.5-2.2-1.5-3.6v-4.9c0-1.4.5-2.6 1.5-3.6s2.2-1.5 3.6-1.5 2.6.5 3.6 1.5 1.5 2.2 1.5 3.6zm-7 0v4.8c0 .5.2 1 .6 1.3.4.4.8.6 1.3.6s1-.2 1.3-.6c.4-.4.6-.8.6-1.3v-4.8c0-.5-.2-1-.6-1.3-.4-.4-.8-.6-1.3-.6s-1 .2-1.3.6-.6.8-.6 1.3zm22.9 4.5l3.3-9.2c.1-.4.4-.5.8-.5h2.9c.4 0 .7.2.7.7v13.7c0 .4-.2.7-.7.7h-1.9c-.4 0-.7-.2-.7-.7v-8.9l-3 9.1c-.1.4-.4.5-.7.5h-1.3c-.4 0-.6-.2-.7-.5l-2.9-8v7.9c0 .4-.2.7-.7.7h-2c-.4 0-.7-.2-.7-.7v-13.7c0-.4.2-.7.7-.7h2.8c.4 0 .6.2.7.5l3.4 9.1zm17.8-9.8c2.1 0 3.9.7 5.3 2.2 1.5 1.5 2.2 3.3 2.2 5.4s-.7 3.9-2.2 5.4c-1.5 1.5-3.3 2.2-5.4 2.2s-3.9-.7-5.4-2.2c-1.5-1.5-2.2-3.3-2.2-5.4 0-2.1.7-3.9 2.2-5.4 1.5-1.5 3.4-2.2 5.5-2.2zm-.1 3.2c-1.2 0-2.2.4-3.1 1.3-.9.9-1.3 1.9-1.3 3.1 0 1.2.4 2.2 1.3 3.1.9.9 1.9 1.3 3.1 1.3s2.2-.4 3.1-1.3 1.3-1.9 1.3-3.1c0-1.2-.4-2.3-1.3-3.1-.8-.9-1.8-1.3-3.1-1.3zm17.2 5.7l3.2 5.6c.1.1.1.2.1.3 0 .2-.1.3-.4.3h-2.4c-.4 0-.7-.2-.8-.5l-3.1-5.4h-.4v5.2c0 .4-.2.7-.7.7h-1.9c-.4 0-.7-.2-.7-.7v-13.7c0-.4.2-.7.7-.7h4.2c1.3 0 2.4.4 3.3 1.3.9.9 1.3 2 1.3 3.4 0 2-.8 3.3-2.4 4.2zm-3.9-2.6h1.7c.5 0 .8-.2 1.1-.5.2-.3.3-.6.3-1s-.1-.8-.4-1.1c-.2-.2-.6-.4-1-.4h-1.7v3zm12-.3h4.5c.4 0 .7.2.7.7v1.9c0 .4-.2.7-.7.7h-4.5v2.7h4.5c.4 0 .7.2.7.7v1.9c0 .4-.2.7-.7.7h-7.1c-.4 0-.7-.2-.7-.7v-13.7c0-.4.2-.7.7-.7h7.1c.4 0 .7.2.7.7v1.9c0 .4-.2.7-.7.7h-4.5v2.5zm21.4.8c1.1 1 1.6 2.2 1.6 3.6 0 1.3-.4 2.4-1.3 3.3-.9 1-2 1.4-3.3 1.4h-4.1c-.4 0-.7-.2-.7-.7v-13.7c0-.4.2-.7.7-.7h3.8c.7 0 1.4.3 2.2.8 1.2.8 1.8 2 1.8 3.4.1 1-.2 1.8-.7 2.6zm-4.5-1h1.1c.3 0 .5-.1.8-.4.2-.2.3-.5.3-.9s-.1-.6-.3-.8c-.2-.2-.5-.3-.9-.3h-1v2.4zm0 6.1h1.4c.4 0 .7-.1 1-.4.3-.3.5-.7.5-1.2s-.2-.9-.5-1.2c-.3-.3-.6-.4-1-.4H178v3.2zm11.6.5l-.9 2.2c-.1.3-.4.5-.8.5h-2.2c-.3 0-.5-.1-.5-.4 0-.1 0-.2.1-.3l5.5-13.8c.1-.4.4-.5.8-.5h1.3c.4 0 .6.2.8.5l5.5 13.8c0 .1.1.2.1.3 0 .2-.2.4-.5.4h-2.2c-.4 0-.6-.2-.8-.5l-1-2.2h-5.2zm2.6-6.6l-1.4 3.5h2.8l-1.4-3.5zm9.5-5.7h1.9c.4 0 .7.2.7.7v13.7c0 .4-.2.7-.7.7h-1.9c-.4 0-.7-.2-.7-.7v-13.7c0-.5.2-.7.7-.7zm7.9 11.8h4.2c.4 0 .7.2.7.7v1.9c0 .4-.2.7-.7.7H207c-.4 0-.7-.2-.7-.7v-13.7c0-.4.2-.7.7-.7h1.9c.4 0 .7.2.7.7v11.1zm7.7-11.8h1.9c.4 0 .7.2.7.7v13.7c0 .4-.2.7-.7.7h-1.9c-.4 0-.7-.2-.7-.7v-13.7c0-.5.2-.7.7-.7zm8 9.1v5.2c0 .4-.2.7-.7.7h-1.9c-.4 0-.7-.2-.7-.7v-13.7c0-.4.2-.7.7-.7h7.1c.4 0 .7.2.7.7v1.9c0 .4-.2.7-.7.7h-4.6v2.6h4.6c.4 0 .7.2.7.7v1.9c0 .4-.2.7-.7.7h-4.5zm10.6 0v5.2c0 .4-.2.7-.7.7h-1.9c-.4 0-.7-.2-.7-.7v-13.7c0-.4.2-.7.7-.7h7.1c.4 0 .7.2.7.7v1.9c0 .4-.2.7-.7.7h-4.6v2.6h4.6c.4 0 .7.2.7.7v1.9c0 .4-.2.7-.7.7h-4.5zm7.7-8.9h1.5c.4 0 .5.1.5.4v.2l-.9 3c-.1.3-.2.4-.5.4h-.2l-.9-.1c-.3 0-.5-.2-.5-.5v-.1l.3-2.8c.1-.3.3-.5.7-.5zm4.1 11.3l1.5-.6c.1-.1.3-.1.4-.1.2 0 .3.1.5.3.4.6.9.8 1.5.8.3 0 .6-.1.8-.3.2-.2.4-.6.4-1 0-.6-.2-1-.7-1.3-.2-.1-.6-.3-1.2-.5-2.4-.9-3.7-2.4-3.7-4.5 0-1.3.4-2.4 1.2-3.2.8-.8 1.9-1.2 3.1-1.2 1.3 0 2.3.5 3.2 1.4.4.5.7.9.7 1.2 0 .2-.1.4-.4.5l-1.8.8c-.1.1-.3.1-.3.1-.2 0-.3-.1-.4-.2-.3-.3-.6-.5-.9-.5-.3 0-.6.2-.8.5-.2.2-.2.5-.2.7 0 .6.6 1.1 1.7 1.5l.3.1c2.4.9 3.6 2.5 3.6 4.6 0 1.3-.4 2.4-1.3 3.3-.8.8-1.8 1.2-3 1.2h-.2c-1.5 0-2.7-.6-3.6-1.9-.4-.6-.6-1-.6-1.2-.2-.2 0-.4.2-.5zm22.4-2.2l2.9-8.7c.1-.4.4-.5.7-.5h2.2c.3 0 .5.1.5.4 0 .1 0 .2-.1.3l-4.9 13.8c-.1.4-.4.5-.7.5h-1.3c-.4 0-.6-.2-.7-.5l-4.9-13.8v-.3c0-.3.2-.4.5-.4h2.2c.4 0 .6.2.7.5l2.9 8.7zm8.9-9.3h1.9c.4 0 .7.2.7.7v13.7c0 .4-.2.7-.7.7H279c-.4 0-.7-.2-.7-.7v-13.7c0-.5.2-.7.7-.7zm5.2 11.5l1.5-.6c.1-.1.3-.1.4-.1.2 0 .3.1.5.3.4.6.9.8 1.5.8.3 0 .6-.1.8-.3.2-.2.4-.6.4-1 0-.6-.2-1-.7-1.3-.2-.1-.6-.3-1.2-.5-2.4-.9-3.7-2.4-3.7-4.5 0-1.3.4-2.4 1.2-3.2.8-.8 1.9-1.2 3.1-1.2 1.3 0 2.3.5 3.2 1.4.4.5.7.9.7 1.2 0 .2-.1.4-.4.5l-1.8.8c-.1.1-.3.1-.3.1-.2 0-.3-.1-.4-.2-.3-.3-.6-.5-.9-.5-.3 0-.6.2-.8.5-.2.2-.2.5-.2.7 0 .6.6 1.1 1.7 1.5l.3.1c2.4.9 3.6 2.5 3.6 4.6 0 1.3-.4 2.4-1.3 3.3-.8.8-1.8 1.2-3 1.2h-.4c-1.5 0-2.7-.6-3.6-1.9-.4-.6-.6-1-.6-1.2 0-.2.1-.4.4-.5zm11.2-11.5h1.9c.4 0 .7.2.7.7v13.7c0 .4-.2.7-.7.7h-1.9c-.4 0-.7-.2-.7-.7v-13.7c0-.5.2-.7.7-.7zm11.1 3.2v11.1c0 .4-.2.7-.7.7H304c-.4 0-.7-.2-.7-.7v-11.1h-2.6c-.4 0-.7-.2-.7-.7v-1.9c0-.4.2-.7.7-.7h8.4c.4 0 .7.2.7.7v1.9c0 .4-.2.7-.7.7h-2.6zm6 8.3l1.5-.6c.1-.1.3-.1.4-.1.2 0 .3.1.5.3.4.6.9.8 1.5.8.3 0 .6-.1.8-.3.2-.2.4-.6.4-1 0-.6-.2-1-.7-1.3-.2-.1-.6-.3-1.2-.5-2.4-.9-3.7-2.4-3.7-4.5 0-1.3.4-2.4 1.2-3.2.8-.8 1.9-1.2 3.1-1.2 1.3 0 2.3.5 3.2 1.4.4.5.7.9.7 1.2 0 .2-.1.4-.4.5l-1.8.8c-.1.1-.3.1-.3.1-.2 0-.3-.1-.4-.2-.3-.3-.6-.5-.9-.5-.3 0-.6.2-.8.5-.2.2-.2.5-.2.7 0 .6.6 1.1 1.7 1.5l.3.1c2.4.9 3.6 2.5 3.6 4.6 0 1.3-.4 2.4-1.3 3.3-.8.8-1.8 1.2-3 1.2h-.2c-1.5 0-2.7-.6-3.6-1.9-.4-.6-.6-1-.6-1.2-.2-.2-.1-.4.2-.5z"/>
  </g>
  {% set procentage = donatedProgress / 100 * 113 %}
  <path d="M86 401h113c2.5 0 4.5 2 4.5 4.5s-2 4.5-4.5 4.5h-113c-2.5 0-4.5-2-4.5-4.5s2-4.5 4.5-4.5z" opacity=".1871" fill="#36afc5"/>
  <path d="M86 401h{{ procentage }}c2.5 0 4.5 2 4.5 4.5s-2 4.5-4.5 4.5h-{{ procentage }}c-2.5 0-4.5-2-4.5-4.5s2-4.5 4.5-4.5z" fill="#36afc5"/>
  <g>
    <text x="208" y="409" fill="#36afc5" style="font-size: 12px;">{{ donatedProgress }}%</text>
  </g>
</svg>