<svg width="50" height="50" viewBox="0 0 50 50" xmlns="http://www.w3.org/2000/svg" xmlns:xlink="http://www.w3.org/1999/xlink"><defs><path id="a" d="M25 0h25v50H0V0z"/></defs><g fill="none" fill-rule="evenodd"><mask id="b" fill="#fff"><use xlink:href="#a"/></mask><path d="M37.6 20c.4 8.5-6 18-17 18-3.4 0-6.5-1-9-2.8 3 .4 6.2-.5 8.7-2.5-2.6 0-4.8-1.8-5.6-4 1 0 2 0 2.7-.2-2.8-.6-4.8-3.2-4.8-6 .8.5 1.8.7 2.7.8-2.6-1.8-3.4-5.3-1.8-8 3 3.6 7.3 6 12.3 6.2-1-3.7 2-7.3 6-7.3 1.6 0 3 .7 4.2 2 1.4-.4 2.7-1 3.8-1.6-.4 1.4-1.4 2.6-2.6 3.3 1.2-.2 2.4-.5 3.4-1-.8 1.2-1.8 2.3-3 3M25 0C11.2 0 0 11.2 0 25s11.2 25 25 25 25-11.2 25-25S38.8 0 25 0" fill="#FFF" mask="url(#b)"/></g></svg>