<svg width="50" height="50" viewBox="0 0 50 50" xmlns="http://www.w3.org/2000/svg" xmlns:xlink="http://www.w3.org/1999/xlink"><defs><path id="a" d="M0 0h50v50H0z"/></defs><g fill="none" fill-rule="evenodd"><mask id="b" fill="#fff"><use xlink:href="#a"/></mask><path d="M37 23.8c-2.6 5.8-9.2 13.7-13.3 13.7-4 0-4.7-8.7-7-14.5-1-3-1.8-2.2-3.8-.8l-1.4-1.6c3-2.6 6-5.7 8-6 2 0 3.3 1.3 3.7 4.4.7 4 1.6 10.2 3 10.2 1.3 0 4.3-5 4.4-6.7.3-2.6-2-2.6-3.8-1.8 3-9.8 15.3-8 10 3M25 0C11.2 0 0 11.2 0 25s11.2 25 25 25 25-11.2 25-25S38.8 0 25 0" fill="#FFF" mask="url(#b)"/></g></svg>