<svg viewBox="0 0 153 239" xmlns="http://www.w3.org/2000/svg" xmlns:xlink="http://www.w3.org/1999/xlink"><defs><path id="a" d="M150 .8H0V205h150V.8z"/><path id="c" d="M146.2.2v200.6H1V.2H146z"/></defs><g fill="none" fill-rule="evenodd"><g transform="translate(0 -.818)"><mask id="b" fill="#fff"><use xlink:href="#a"/></mask></g><g transform="translate(6 1.182)"><mask id="d" fill="#fff"><use xlink:href="#c"/></mask><path d="M2.8 1S104-1.7 146.2 2.5c0 0-10.4 77.5-2.6 194.4 0 0-70 4.4-117 3.7-7.8 0-15-.3-21-.8 0 0-.7-9-1.4-23.6C2.2 136-1.3 52.7 2.8 1" fill="#EBE0DA" mask="url(#d)"/></g><path d="M33 28.5l2.2-8.3c0-.5.5-.8 1-.8H39c.5 0 .7.2.7.6v.4L35 37.8c0 .5-.5.8-1 .8h-1.8c-.6 0-1-.3-1-.8l-2-8.2-2.2 8.2c-.2.5-.5.8-1 .8h-2c-.4 0-.8-.3-1-.8l-4.5-17.4V20c0-.4.2-.6.7-.6H22c.5 0 1 .3 1 .8l2 8.3 2-8.3c.2-.5.6-.8 1-.8h2c.6 0 1 .3 1 .8l2 8.3zm10.4 6.7l-1.2 2.6c-.2.5-.6.8-1 .8h-3c-.5 0-.7-.2-.7-.6v-.3l7-17.6c.3-.4.7-.6 1.2-.6h1.6c.5 0 1 .2 1 .7l7 17.7v.3c0 .4 0 .6-.6.6H52c-.7 0-1-.3-1.3-.8l-1-2.6h-6.3zm3-7.8L45 31h3l-1.5-3.6zM67 30.7l4 7v.4c0 .4 0 .6-.5.6h-3c-.6 0-1-.3-1.3-.7l-3.6-6.7h-.6v6.3c0 .7-.3 1-1 1h-2.5c-.6 0-1-.3-1-1V20.4c0-.7.4-1 1-1h5.4c1.7 0 3 .6 4.2 1.7 1 1.3 1.6 2.7 1.6 4.5 0 2.2-1 4-2.8 5.2zm-5-3.6h1.8c.5 0 1 0 1.2-.4.3-.3.4-.7.4-1.2 0-.4 0-.8-.4-1-.3-.4-.7-.6-1.2-.6h-1.8V27zm20 3.7l4 7v.4c0 .4-.2.6-.6.6h-3c-.6 0-1-.3-1.3-.7l-3.7-6.7h-.6v6.3c0 .7-.3 1-1 1h-2.5c-.6 0-1-.3-1-1V20.4c0-.7.4-1 1-1h5.5c1.6 0 3 .6 4 1.7 1.3 1.3 2 2.7 2 4.5 0 2.2-1 4-3 5.2zm-5-3.6h1.7c.5 0 1 0 1.2-.4.3-.3.4-.7.4-1.2 0-.4 0-.8-.3-1-.3-.4-.7-.6-1.2-.6h-1.8V27zm15.5 8.2l-1 2.6c-.3.5-.7.8-1.3.8h-3c-.4 0-.6-.2-.6-.6v-.3l7-17.6c.3-.4.7-.6 1.2-.6h1.6c.5 0 1 .2 1 .7l7 17.7v.3c0 .4 0 .6-.6.6h-2.8c-.6 0-1-.3-1-.8l-1.3-2.6h-6.2zm3-7.8L94 31h2.8l-1.4-3.6zm15.4.3v10c0 .6-.3 1-1 1h-2.5c-.6 0-1-.4-1-1V20.3c0-.7.4-1 1-1h2.6c.6 0 1 .3 1.3.7l6.3 10.4v-10c0-.7.2-1 1-1h2.4c.7 0 1 .3 1 1v17.2c0 .7-.3 1-1 1h-2.5c-.6 0-1-.3-1.2-.7l-6.3-10.3zm21-4v14c0 .6-.4 1-1 .8H128c-.5 0-.8-.2-.8-1V24h-3c-.7 0-1-.3-1-1v-2.4c0-.7.3-1 1-1h10.6c.6 0 1 .3 1 1V23c0 .5-.4 1-1 .8h-3.2z" fill="#000"/><g fill="#1E0000" opacity=".1"><path d="M22 177.3l14.5-1h14.3c9.6 0 19.2 0 28.8-.2 9.6 0 19.2-.3 28.7-.7l7.2-.3 7.2-.4h7.2l7-.3c-2.3.4-4.7 1-7 1.2l-7.2 1-7.2.5-7.2.3c-9.6.4-19.2.7-28.8.8-9.6.3-19.2.4-28.7.4H36.4l-14.4-1M22 166.3l14.5-1h14.3c9.6 0 19.2 0 28.8-.2 9.6 0 19.2-.3 28.7-.7l7.2-.3 7.2-.4h7.2l7-.3c-2.3.4-4.7 1-7 1.2l-7.2 1-7.2.5-7.2.3c-9.6.4-19.2.7-28.8.8-9.6.3-19.2.4-28.7.4H36.4l-14.4-1M22 155.3l14.5-1h14.3c9.6 0 19.2 0 28.8-.2 9.6 0 19.2-.3 28.7-.7l7.2-.3 7.2-.4h7.2l7-.3c-2.3.4-4.7 1-7 1.2l-7.2 1-7.2.5-7.2.3c-9.6.4-19.2.7-28.8.8-9.6.3-19.2.4-28.7.4H36.4l-14.4-1M22 144.3l14.5-1h14.3c9.6 0 19.2 0 28.8-.2 9.6 0 19.2-.3 28.7-.7l7.2-.3 7.2-.4h7.2l7-.3c-2.3.4-4.7 1-7 1.2l-7.2 1-7.2.5-7.2.3c-9.6.4-19.2.7-28.8.8-9.6.3-19.2.4-28.7.4H36.4l-14.4-1M22 133.3l14.5-1h14.3c9.6 0 19.2 0 28.8-.2 9.6 0 19.2-.3 28.7-.7l7.2-.3 7.2-.4h7.2l7-.3c-2.3.4-4.7 1-7 1.2l-7.2 1-7.2.5-7.2.3c-9.6.4-19.2.7-28.8.8-9.6.3-19.2.4-28.7.4H36.4l-14.4-1M21 123.3l14.5-1h14.3c9.6 0 19.2 0 28.8-.2 9.6 0 19.2-.3 28.7-.7l7.2-.3 7.2-.4h7.2l7-.3c-2.3.4-4.7 1-7 1.2l-7.2 1-7.2.5-7.2.3c-9.6.4-19.2.7-28.8.8-9.6.3-19.2.4-28.7.4H35.4l-14.4-1M21 112.3l14.5-1h14.3c9.6 0 19.2 0 28.8-.2 9.6 0 19.2-.3 28.7-.7l7.2-.3 7.2-.4h7.2l7-.3c-2.3.4-4.7 1-7 1.2l-7.2 1-7.2.5-7.2.3c-9.6.4-19.2.7-28.8.8-9.6.3-19.2.4-28.7.4H35.4l-14.4-1M21 101.3l14.5-1h14.3c9.6 0 19.2 0 28.8-.2 9.6 0 19.2-.3 28.7-.7l7.2-.3 7.2-.4h7.2l7-.3c-2.3.4-4.7 1-7 1.2l-7.2 1-7.2.5-7.2.3c-9.6.4-19.2.7-28.8.8-9.6.3-19.2.4-28.7.4H35.4l-14.4-1M21 91.3l14.5-1h14.3c9.6 0 19.2 0 28.8-.2 9.6 0 19.2-.3 28.7-.7l7.2-.3 7.2-.4h7.2l7-.3c-2.3.4-4.7 1-7 1.2l-7.2 1-7.2.5-7.2.3c-9.6.4-19.2.7-28.8.8-9.6.3-19.2.4-28.7.4H35.4l-14.4-1M21 80.3l14.5-1h14.3c9.6 0 19.2 0 28.8-.2 9.6 0 19.2-.3 28.7-.7l7.2-.3 7.2-.4h7.2l7-.3c-2.3.4-4.7 1-7 1.2l-7.2 1-7.2.5-7.2.3c-9.6.4-19.2.7-28.8.8-9.6.3-19.2.4-28.7.4H35.4l-14.4-1M21 71.3l14.5-1h14.3c9.6 0 19.2 0 28.8-.2 9.6 0 19.2-.3 28.7-.7l7.2-.3 7.2-.4h7.2l7-.3c-2.3.4-4.7 1-7 1.2l-7.2 1-7.2.5-7.2.3c-9.6.4-19.2.7-28.8.8-9.6.3-19.2.4-28.7.4H35.4l-14.4-1M21 61.3l14.5-1h14.3c9.6 0 19.2 0 28.8-.2 9.6 0 19.2-.3 28.7-.7l7.2-.3 7.2-.4h7.2l7-.3c-2.3.4-4.7 1-7 1.2l-7.2 1-7.2.5-7.2.3c-9.6.4-19.2.7-28.8.8-9.6.3-19.2.4-28.7.4H35.4l-14.4-1"/></g></g></svg>