<svg viewBox="0 0 153 239" xmlns="http://www.w3.org/2000/svg" xmlns:xlink="http://www.w3.org/1999/xlink"><defs><path id="a" d="M0 204.4V.4h150v204H0z"/><path id="c" d="M146.2.6v200.7H1V.6H146z"/></defs><g fill="none" fill-rule="evenodd"><g transform="translate(0 -.265)"><mask id="b" fill="#fff"><use xlink:href="#a"/></mask></g><g transform="translate(6 .735)"><mask id="d" fill="#fff"><use xlink:href="#c"/></mask><path d="M2.8 1.4S104-1.2 146.2 3c0 0-10.4 77.5-2.6 194.3 0 0-70 4.6-117 4-7.8-.2-15-.5-21-1 0 0-.7-9-1.4-23.4-2-40.5-5.5-124-1.4-175.6" fill="#EBE0DA" mask="url(#d)"/></g><path d="M33 28.5l2.2-8.3c0-.5.5-.8 1-.8H39c.5 0 .7.2.7.6v.4L35 37.8c0 .5-.5.8-1 .8h-1.8c-.6 0-1-.3-1-.8l-2-8.2-2.2 8.2c-.2.5-.5.8-1 .8h-2c-.4 0-.8-.3-1-.8l-4.5-17.4V20c0-.4.2-.6.7-.6H22c.5 0 1 .3 1 .8l2 8.3 2-8.3c.2-.5.6-.8 1-.8h2c.6 0 1 .3 1 .8l2 8.3zm10.4 6.7l-1.2 2.6c-.2.5-.6.8-1 .8h-3c-.5 0-.7-.2-.7-.6v-.3l7-17.6c.3-.4.7-.6 1.2-.6h1.6c.5 0 1 .2 1 .7l7 17.7v.3c0 .4 0 .6-.6.6H52c-.7 0-1-.3-1.3-.8l-1-2.6h-6.3zm3-7.8L45 31h3l-1.5-3.6zM67 30.7l4 7v.4c0 .4 0 .6-.5.6h-3c-.6 0-1-.3-1.3-.7l-3.6-6.7h-.6v6.3c0 .7-.3 1-1 1h-2.5c-.6 0-1-.3-1-1V20.4c0-.7.4-1 1-1h5.4c1.7 0 3 .6 4.2 1.7 1 1.3 1.6 2.7 1.6 4.5 0 2.2-1 4-2.8 5.2zm-5-3.6h1.8c.5 0 1 0 1.2-.4.3-.3.4-.7.4-1.2 0-.4 0-.8-.4-1-.3-.4-.7-.6-1.2-.6h-1.8V27zm20 3.7l4 7v.4c0 .4-.2.6-.6.6h-3c-.6 0-1-.3-1.3-.7l-3.7-6.7h-.6v6.3c0 .7-.3 1-1 1h-2.5c-.6 0-1-.3-1-1V20.4c0-.7.4-1 1-1h5.5c1.6 0 3 .6 4 1.7 1.3 1.3 2 2.7 2 4.5 0 2.2-1 4-3 5.2zm-5-3.6h1.7c.5 0 1 0 1.2-.4.3-.3.4-.7.4-1.2 0-.4 0-.8-.3-1-.3-.4-.7-.6-1.2-.6h-1.8V27zm15.5 8.2l-1 2.6c-.3.5-.7.8-1.3.8h-3c-.4 0-.6-.2-.6-.6v-.3l7-17.6c.3-.4.7-.6 1.2-.6h1.6c.5 0 1 .2 1 .7l7 17.7v.3c0 .4 0 .6-.6.6h-2.8c-.6 0-1-.3-1-.8l-1.3-2.6h-6.2zm3-7.8L94 31h2.8l-1.4-3.6zm15.4.3v10c0 .6-.3 1-1 1h-2.5c-.6 0-1-.4-1-1V20.3c0-.7.4-1 1-1h2.6c.6 0 1 .3 1.3.7l6.3 10.4v-10c0-.7.2-1 1-1h2.4c.7 0 1 .3 1 1v17.2c0 .7-.3 1-1 1h-2.5c-.6 0-1-.3-1.2-.7l-6.3-10.3zm21-4v14c0 .6-.4 1-1 .8H128c-.5 0-.8-.2-.8-1V24h-3c-.7 0-1-.3-1-1v-2.4c0-.7.3-1 1-1h10.6c.6 0 1 .3 1 1V23c0 .5-.4 1-1 .8h-3.2z" fill="#000"/><g><path d="M22 177.3l14.5-1h14.3c9.6 0 19.2 0 28.8-.2 9.6 0 19.2-.3 28.7-.7l7.2-.3 7.2-.4h7.2l7-.3c-2.3.4-4.7 1-7 1.2l-7.2 1-7.2.5-7.2.3c-9.6.4-19.2.7-28.8.8-9.6.3-19.2.4-28.7.4H36.4l-14.4-1M22 166.3l14.5-1h14.3c9.6 0 19.2 0 28.8-.2 9.6 0 19.2-.3 28.7-.7l7.2-.3 7.2-.4h7.2l7-.3c-2.3.4-4.7 1-7 1.2l-7.2 1-7.2.5-7.2.3c-9.6.4-19.2.7-28.8.8-9.6.3-19.2.4-28.7.4H36.4l-14.4-1M22 155.3l14.5-1h14.3c9.6 0 19.2 0 28.8-.2 9.6 0 19.2-.3 28.7-.7l7.2-.3 7.2-.4h7.2l7-.3c-2.3.4-4.7 1-7 1.2l-7.2 1-7.2.5-7.2.3c-9.6.4-19.2.7-28.8.8-9.6.3-19.2.4-28.7.4H36.4l-14.4-1M22 144.3l14.5-1h14.3c9.6 0 19.2 0 28.8-.2 9.6 0 19.2-.3 28.7-.7l7.2-.3 7.2-.4h7.2l7-.3c-2.3.4-4.7 1-7 1.2l-7.2 1-7.2.5-7.2.3c-9.6.4-19.2.7-28.8.8-9.6.3-19.2.4-28.7.4H36.4l-14.4-1M22 133.3l14.5-1h14.3c9.6 0 19.2 0 28.8-.2 9.6 0 19.2-.3 28.7-.7l7.2-.3 7.2-.4h7.2l7-.3c-2.3.4-4.7 1-7 1.2l-7.2 1-7.2.5-7.2.3c-9.6.4-19.2.7-28.8.8-9.6.3-19.2.4-28.7.4H36.4l-14.4-1M22 122.3l14.5-1h14.3c9.6 0 19.2 0 28.8-.2 9.6 0 19.2-.3 28.7-.7l7.2-.3 7.2-.4h7.2l7-.3c-2.3.4-4.7 1-7 1.2l-7.2 1-7.2.5-7.2.3c-9.6.4-19.2.7-28.8.8-9.6.3-19.2.4-28.7.4H36.4l-14.4-1M22 111.3l14.5-1h14.3c9.6 0 19.2 0 28.8-.2 9.6 0 19.2-.3 28.7-.7l7.2-.3 7.2-.4h7.2l7-.3c-2.3.4-4.7 1-7 1.2l-7.2 1-7.2.5-7.2.3c-9.6.4-19.2.7-28.8.8-9.6.3-19.2.4-28.7.4H36.4l-14.4-1M22 100.3l14.5-1h14.3c9.6 0 19.2 0 28.8-.2 9.6 0 19.2-.3 28.7-.7l7.2-.3 7.2-.4h7.2l7-.3c-2.3.4-4.7 1-7 1.2l-7.2 1-7.2.5-7.2.3c-9.6.4-19.2.7-28.8.8-9.6.3-19.2.4-28.7.4H36.4l-14.4-1M22 89.3l14.5-1h14.3c9.6 0 19.2 0 28.8-.2 9.6 0 19.2-.3 28.7-.7l7.2-.3 7.2-.4h7.2l7-.3c-2.3.4-4.7 1-7 1.2l-7.2 1-7.2.5-7.2.3c-9.6.4-19.2.7-28.8.8-9.6.3-19.2.4-28.7.4H36.4l-14.4-1M22 78.3l14.5-1h14.3c9.6 0 19.2 0 28.8-.2 9.6 0 19.2-.3 28.7-.7l7.2-.3 7.2-.4h7.2l7-.3c-2.3.4-4.7 1-7 1.2l-7.2 1-7.2.5-7.2.3c-9.6.4-19.2.7-28.8.8-9.6.3-19.2.4-28.7.4H36.4l-14.4-1M22 68.3l14.5-1h14.3c9.6 0 19.2 0 28.8-.2 9.6 0 19.2-.3 28.7-.7l7.2-.3 7.2-.4h7.2l7-.3c-2.3.4-4.7 1-7 1.2l-7.2 1-7.2.5-7.2.3c-9.6.4-19.2.7-28.8.8-9.6.3-19.2.4-28.7.4H36.4l-14.4-1M22 57.3l14.5-1h14.3c9.6 0 19.2 0 28.8-.2 9.6 0 19.2-.3 28.7-.7l7.2-.3 7.2-.4h7.2l7-.3c-2.3.4-4.7 1-7 1.2l-7.2 1-7.2.5-7.2.3c-9.6.4-19.2.7-28.8.8-9.6.3-19.2.4-28.7.4H36.4l-14.4-1" fill="#1E0000"/><path d="M43 188.3c0 8.3-6.6 15-15 15-8.2 0-15-6.7-15-15s6.8-15 15-15c8.4 0 15 6.7 15 15" fill="#D85555"/><path d="M20.2 199s-8 11.3-7 31.3l4-9 3 9s5-24 7-29-7-2.2-7-2.2" fill="#D85555"/><path d="M24.4 202.4s0 16 13.6 36.3l-2.3-11.5 8.3 8s-10.8-27.8-12.3-34c-1.4-6.3-7.3 1.2-7.3 1.2M17 173.3l5 6s5.7-1.8 5.4-2c-.3 0-1.3-6-1.3-6s-3-3-9 2" fill="#D85555"/><path d="M12.3 182l7.7 1.3s3-5 2.8-5c-.3.3-5-3.7-5-3.7s-4.2-.3-5.5 7.4" fill="#D85555"/><path d="M11.4 191.4l7-3.3s-.2-5.7-.4-5.5c0 .3-6.2-.3-6.2-.3s-3.7 2-.4 9.2M16.3 201l5.4-5.6s-2.5-5.3-2.6-5c0 .3-5.8 2-5.8 2s-2.6 3.4 3 8.7M26.3 170l1.8 7.7s6 1 5.7.7c-.2-.2 1.6-6 1.6-6s-1.4-4-9-2.3M36.4 171.8l-1.8 7.6s4.7 3.4 4.6 3c0-.2 4.2-4.6 4.2-4.6s.6-4.2-7-6M44.4 178.6l-5.6 5.4s2 5.4 2.2 5c0-.2 6-1.6 6-1.6s2.8-3-2.6-8.8" fill="#D85555"/><path d="M48.2 188.7l-7.7-1.3-2.8 4.8c.3 0 5 3.8 5 3.8s4 .4 5.5-7.3" fill="#D85555"/><path d="M44.6 196.3l-7-3.6s-4.4 3.7-4 3.7c.2 0 3.4 5.2 3.4 5.2s4 1.6 7.6-5.3" fill="#D85555"/><path d="M37.6 203l-2.8-7.3h-5.6c.2.3-.8 6.3-.8 6.3s2 3.8 9.2 1" fill="#D85555"/><path d="M40 188.3c0 6.6-5.3 12-12 12-6.6 0-12-5.4-12-12 0-6.7 5.4-12 12-12 6.7 0 12 5.3 12 12" fill="#000102" opacity=".1"/><path d="M38 188.3c0 5.5-4.4 10-10 10-5.4 0-10-4.5-10-10s4.6-10 10-10c5.6 0 10 4.5 10 10" fill="#FCD47C"/><path d="M28 180.3s7-2 8 7c0 0-2-6-8-7" fill="#FFF"/></g></g></svg>