<?xml version="1.0" encoding="utf-8"?>
<!-- Generator: Adobe Illustrator 21.1.0, SVG Export Plug-In . SVG Version: 6.00 Build 0)  -->
<svg version="1.1" id="Layer_1" xmlns="http://www.w3.org/2000/svg" xmlns:xlink="http://www.w3.org/1999/xlink" x="0px" y="0px"
	 viewBox="0 0 153 239" style="enable-background:new 0 0 153 239;" xml:space="preserve">
<style type="text/css">
	.st0{fill:#FFFFFF;}
	.st1{filter:url(#Adobe_OpacityMaskFilter);}
	.st2{mask:url(#d);fill:#EBE0DA;}
	.st3{fill:#1E0000;}
	.st4{opacity:0.1;fill:#1E0000;enable-background:new    ;}
	.st5{enable-background:new    ;}
</style>
<g>
	<path id="a" class="st0" d="M150,0H0v204.2h150V0z"/>
</g>
<g>
	<g transform="translate(6 1.182)">
		<defs>
			<filter id="Adobe_OpacityMaskFilter" filterUnits="userSpaceOnUse" x="0.9" y="0.1" width="145.3" height="200.5">
				<feColorMatrix  type="matrix" values="1 0 0 0 0  0 1 0 0 0  0 0 1 0 0  0 0 0 1 0"/>
			</filter>
		</defs>
		<mask maskUnits="userSpaceOnUse" x="0.9" y="0.1" width="145.3" height="200.5" id="d">
			<g class="st1">
				<path id="c" class="st0" d="M146.2,0.2v200.6H1V0.2h145H146.2z"/>
			</g>
		</mask>
		<path class="st2" d="M2.8,1c0,0,101.2-2.7,143.4,1.5c0,0-10.4,77.5-2.6,194.4c0,0-70,4.4-117,3.7c-7.8,0-15-0.3-21-0.8
			c0,0-0.7-9-1.4-23.6C2.2,136-1.3,52.7,2.8,1"/>
	</g>
	<g>
		<path class="st3" d="M22,177.3l14.5-1h14.3c9.6,0,19.2,0,28.8-0.2c9.6,0,19.2-0.3,28.7-0.7l7.2-0.3l7.2-0.4h7.2l7-0.3
			c-2.3,0.4-4.7,1-7,1.2l-7.2,1l-7.2,0.5l-7.2,0.3c-9.6,0.4-19.2,0.7-28.8,0.8c-9.6,0.3-19.2,0.4-28.7,0.4H36.4l-14.4-1 M22,166.3
			l14.5-1h14.3c9.6,0,19.2,0,28.8-0.2c9.6,0,19.2-0.3,28.7-0.7l7.2-0.3l7.2-0.4h7.2l7-0.3c-2.3,0.4-4.7,1-7,1.2l-7.2,1l-7.2,0.5
			l-7.2,0.3c-9.6,0.4-19.2,0.7-28.8,0.8c-9.6,0.3-19.2,0.4-28.7,0.4H36.4l-14.4-1 M22,155.3l14.5-1h14.3c9.6,0,19.2,0,28.8-0.2
			c9.6,0,19.2-0.3,28.7-0.7l7.2-0.3l7.2-0.4h7.2l7-0.3c-2.3,0.4-4.7,1-7,1.2l-7.2,1l-7.2,0.5l-7.2,0.3c-9.6,0.4-19.2,0.7-28.8,0.8
			c-9.6,0.3-19.2,0.4-28.7,0.4H36.4l-14.4-1 M22,144.3l14.5-1h14.3c9.6,0,19.2,0,28.8-0.2c9.6,0,19.2-0.3,28.7-0.7l7.2-0.3l7.2-0.4
			h7.2l7-0.3c-2.3,0.4-4.7,1-7,1.2l-7.2,1l-7.2,0.5l-7.2,0.3c-9.6,0.4-19.2,0.7-28.8,0.8c-9.6,0.3-19.2,0.4-28.7,0.4H36.4l-14.4-1
			 M22,133.3l14.5-1h14.3c9.6,0,19.2,0,28.8-0.2c9.6,0,19.2-0.3,28.7-0.7l7.2-0.3l7.2-0.4h7.2l7-0.3c-2.3,0.4-4.7,1-7,1.2l-7.2,1
			l-7.2,0.5l-7.2,0.3c-9.6,0.4-19.2,0.7-28.8,0.8c-9.6,0.3-19.2,0.4-28.7,0.4H36.4l-14.4-1 M21,123.3l14.5-1h14.3
			c9.6,0,19.2,0,28.8-0.2c9.6,0,19.2-0.3,28.7-0.7l7.2-0.3l7.2-0.4h7.2l7-0.3c-2.3,0.4-4.7,1-7,1.2l-7.2,1l-7.2,0.5l-7.2,0.3
			c-9.6,0.4-19.2,0.7-28.8,0.8c-9.6,0.3-19.2,0.4-28.7,0.4H35.4l-14.4-1 M21,112.3l14.5-1h14.3c9.6,0,19.2,0,28.8-0.2
			c9.6,0,19.2-0.3,28.7-0.7l7.2-0.3l7.2-0.4h7.2l7-0.3c-2.3,0.4-4.7,1-7,1.2l-7.2,1l-7.2,0.5l-7.2,0.3c-9.6,0.4-19.2,0.7-28.8,0.8
			c-9.6,0.3-19.2,0.4-28.7,0.4H35.4l-14.4-1"/>
		<path class="st4" d="M21,101.3l14.5-1h14.3c9.6,0,19.2,0,28.8-0.2c9.6,0,19.2-0.3,28.7-0.7l7.2-0.3l7.2-0.4h7.2l7-0.3
			c-2.3,0.4-4.7,1-7,1.2l-7.2,1l-7.2,0.5l-7.2,0.3c-9.6,0.4-19.2,0.7-28.8,0.8c-9.6,0.3-19.2,0.4-28.7,0.4H35.4l-14.4-1 M21,91.3
			l14.5-1h14.3c9.6,0,19.2,0,28.8-0.2c9.6,0,19.2-0.3,28.7-0.7l7.2-0.3l7.2-0.4h7.2l7-0.3c-2.3,0.4-4.7,1-7,1.2l-7.2,1l-7.2,0.5
			l-7.2,0.3c-9.6,0.4-19.2,0.7-28.8,0.8c-9.6,0.3-19.2,0.4-28.7,0.4H35.4l-14.4-1 M21,80.3l14.5-1h14.3c9.6,0,19.2,0,28.8-0.2
			c9.6,0,19.2-0.3,28.7-0.7l7.2-0.3l7.2-0.4h7.2l7-0.3c-2.3,0.4-4.7,1-7,1.2l-7.2,1l-7.2,0.5l-7.2,0.3c-9.6,0.4-19.2,0.7-28.8,0.8
			c-9.6,0.3-19.2,0.4-28.7,0.4H35.4l-14.4-1 M21,71.3l14.5-1h14.3c9.6,0,19.2,0,28.8-0.2c9.6,0,19.2-0.3,28.7-0.7l7.2-0.3l7.2-0.4
			h7.2l7-0.3c-2.3,0.4-4.7,1-7,1.2l-7.2,1l-7.2,0.5l-7.2,0.3c-9.6,0.4-19.2,0.7-28.8,0.8c-9.6,0.3-19.2,0.4-28.7,0.4H35.4l-14.4-1
			 M21,61.3l14.5-1h14.3c9.6,0,19.2,0,28.8-0.2c9.6,0,19.2-0.3,28.7-0.7l7.2-0.3l7.2-0.4h7.2l7-0.3c-2.3,0.4-4.7,1-7,1.2l-7.2,1
			l-7.2,0.5l-7.2,0.3c-9.6,0.4-19.2,0.7-28.8,0.8c-9.6,0.3-19.2,0.4-28.7,0.4H35.4l-14.4-1"/>
	</g>
	<g>
		<g class="st5">
			<path d="M45.2,22.9v4.5c0,0.4-0.2,0.7-0.7,0.7h-1.8c-0.4,0-0.7-0.2-0.7-0.7V15.4c0-0.4,0.2-0.7,0.7-0.7h6.4
				c0.4,0,0.7,0.2,0.7,0.7v1.8c0,0.4-0.2,0.7-0.7,0.7h-3.9v2h3.9c0.4,0,0.7,0.2,0.7,0.7v1.8c0,0.4-0.2,0.7-0.7,0.7H45.2z"/>
			<path d="M57.4,14.6c1.8,0,3.4,0.7,4.7,2c1.3,1.3,2,3,2,4.8c0,1.9-0.7,3.5-2,4.9c-1.3,1.3-2.9,2-4.8,2c-1.9,0-3.4-0.7-4.8-2
				c-1.4-1.3-2-3-2-4.9c0-1.9,0.7-3.5,2-4.8C53.8,15.3,55.5,14.6,57.4,14.6z M57.3,17.7c-1,0-1.8,0.4-2.6,1.1
				c-0.7,0.7-1.1,1.6-1.1,2.7s0.4,1.9,1.1,2.7c0.7,0.7,1.6,1.1,2.6,1.1s1.9-0.4,2.6-1.1c0.7-0.7,1.1-1.6,1.1-2.7s-0.4-1.9-1.1-2.7
				C59.2,18.1,58.3,17.7,57.3,17.7z"/>
			<path d="M71.8,22.6l2.8,4.9c0.1,0.1,0.1,0.2,0.1,0.3c0,0.2-0.1,0.3-0.4,0.3h-2.1c-0.4,0-0.7-0.2-0.8-0.5L68.8,23h-0.5v4.4
				c0,0.4-0.2,0.7-0.7,0.7h-1.8c-0.4,0-0.7-0.2-0.7-0.7V15.4c0-0.4,0.2-0.7,0.7-0.7h3.8c1.2,0,2.1,0.4,2.9,1.2
				c0.8,0.8,1.2,1.8,1.2,3.1C73.8,20.6,73.1,21.8,71.8,22.6z M68.3,20.1h1.3c0.3,0,0.6-0.1,0.8-0.3c0.2-0.2,0.3-0.5,0.3-0.8
				c0-0.3-0.1-0.6-0.3-0.8c-0.2-0.2-0.5-0.3-0.8-0.3h-1.3V20.1z"/>
			<path d="M78.8,20.8v6.7c0,0.4-0.2,0.7-0.7,0.7h-1.8c-0.4,0-0.7-0.2-0.7-0.7V15.4c0-0.4,0.2-0.7,0.7-0.7h2.5
				c0.4,0,0.6,0.2,0.7,0.5l2.8,7.8l2.8-7.9c0.1-0.4,0.4-0.5,0.7-0.5h2.6c0.4,0,0.7,0.2,0.7,0.7v12.1c0,0.4-0.2,0.7-0.7,0.7h-1.8
				c-0.4,0-0.7-0.2-0.7-0.7v-6.7l-2.4,6.8c-0.1,0.4-0.4,0.5-0.7,0.5h-1.3c-0.4,0-0.6-0.2-0.7-0.5L78.8,20.8z"/>
			<path d="M94.5,25.8l-0.8,1.8c-0.1,0.3-0.4,0.5-0.8,0.5h-2c-0.3,0-0.5-0.1-0.5-0.4c0-0.1,0-0.2,0.1-0.3l4.9-12.2
				c0.1-0.3,0.4-0.5,0.8-0.5h1.1c0.4,0,0.6,0.2,0.8,0.5l4.9,12.2c0,0.1,0.1,0.2,0.1,0.3c0,0.3-0.2,0.4-0.5,0.4h-2
				c-0.4,0-0.6-0.2-0.8-0.5l-0.8-1.8H94.5z M96.7,20.3l-1,2.5h2L96.7,20.3z"/>
			<path d="M107.3,25.1h3.4c0.4,0,0.7,0.2,0.7,0.7v1.8c0,0.4-0.2,0.7-0.7,0.7h-5.8c-0.4,0-0.7-0.2-0.7-0.7V15.4
				c0-0.4,0.2-0.7,0.7-0.7h1.8c0.4,0,0.7,0.2,0.7,0.7V25.1z"/>
		</g>
		<g class="st5">
			<path d="M49.1,41.9v6.9c0,0.4-0.2,0.7-0.7,0.7h-1.8c-0.4,0-0.7-0.2-0.7-0.7V36.8c0-0.4,0.2-0.7,0.7-0.7h1.8
				c0.4,0,0.7,0.2,0.9,0.5l4.3,7.2v-7c0-0.4,0.2-0.7,0.7-0.7h1.8c0.4,0,0.7,0.2,0.7,0.7v12.1c0,0.4-0.2,0.7-0.7,0.7h-1.8
				c-0.4,0-0.7-0.2-0.9-0.5L49.1,41.9z"/>
			<path d="M64.8,36c1.8,0,3.4,0.7,4.7,2c1.3,1.3,2,3,2,4.8c0,1.9-0.7,3.5-2,4.9c-1.3,1.3-2.9,2-4.8,2c-1.9,0-3.4-0.7-4.8-2
				c-1.4-1.3-2-3-2-4.9c0-1.9,0.7-3.5,2-4.8C61.3,36.7,62.9,36,64.8,36z M64.8,39.1c-1,0-1.8,0.4-2.6,1.1c-0.7,0.7-1.1,1.6-1.1,2.7
				s0.4,1.9,1.1,2.7c0.7,0.7,1.6,1.1,2.6,1.1s1.9-0.4,2.6-1.1c0.7-0.7,1.1-1.6,1.1-2.7s-0.4-1.9-1.1-2.7
				C66.7,39.5,65.8,39.1,64.8,39.1z"/>
			<path d="M77.6,39.2v9.6c0,0.4-0.2,0.7-0.7,0.7h-1.8c-0.4,0-0.7-0.2-0.7-0.7v-9.6h-2.1c-0.4,0-0.7-0.2-0.7-0.7v-1.8
				c0-0.4,0.2-0.7,0.7-0.7h7.4c0.4,0,0.7,0.2,0.7,0.7v1.8c0,0.4-0.2,0.7-0.7,0.7H77.6z"/>
			<path d="M82.1,36.2h1.8c0.4,0,0.7,0.2,0.7,0.7v12.1c0,0.4-0.2,0.7-0.7,0.7h-1.8c-0.4,0-0.7-0.2-0.7-0.7V36.8
				C81.5,36.4,81.7,36.2,82.1,36.2z"/>
			<path d="M96.4,38l-1.1,1.4c-0.2,0.2-0.3,0.3-0.5,0.3c-0.1,0-0.2,0-0.3-0.1c-0.6-0.4-1.2-0.5-1.9-0.5c-1.1,0-1.9,0.4-2.7,1.1
				c-0.7,0.7-1.1,1.6-1.1,2.6c0,1.1,0.3,2,1,2.7c0.7,0.7,1.6,1.1,2.6,1.1c0.7,0,1.3-0.2,1.9-0.5c0.1-0.1,0.2-0.1,0.3-0.1
				c0.2,0,0.3,0.1,0.5,0.3l1.1,1.4c0.1,0.2,0.2,0.3,0.2,0.4c0,0.2-0.1,0.3-0.3,0.5C96,48.8,95.5,49,95,49.2
				c-0.8,0.3-1.6,0.4-2.4,0.4c-1.9,0-3.5-0.7-4.8-2c-1.3-1.3-2-3-2-4.8c0-1.9,0.7-3.5,2-4.8s2.9-2,4.8-2c1.2,0,2.2,0.3,3.2,0.8
				c0.5,0.3,0.8,0.5,0.8,0.8C96.5,37.7,96.5,37.9,96.4,38z"/>
			<path d="M101,41.3h3.9c0.4,0,0.7,0.2,0.7,0.7v1.8c0,0.4-0.2,0.7-0.7,0.7H101v2.1h3.9c0.4,0,0.7,0.2,0.7,0.7v1.8
				c0,0.4-0.2,0.7-0.7,0.7h-6.4c-0.4,0-0.7-0.2-0.7-0.7V36.8c0-0.4,0.2-0.7,0.7-0.7h6.4c0.4,0,0.7,0.2,0.7,0.7v1.8
				c0,0.4-0.2,0.7-0.7,0.7H101V41.3z"/>
		</g>
	</g>
</g>
</svg>
