<svg id="Layer_1" xmlns="http://www.w3.org/2000/svg" viewBox="0 0 150 150"><style>.st0{fill:#C1E7EF;} .st1{enable-background:new ;} .st2{fill:#231F20;} .st3{fill:#36AFC5;}</style><path class="st0" d="M75 150c-41.4 0-75-33.6-75-75S33.6 0 75 0s75 33.6 75 75-33.6 75-75 75zm0-30c25 0 45-20 45-45s-20-45-45-45-45 20-45 45 20 45 45 45z"/><g class="st1"><path class="st2" d="M53 79.5l2-.3c.3 1.2.8 2 1.3 2.6s1.3.8 2 .8c1 0 2-.3 2.6-1s1-1.5 1-2.6c0-1-.4-1.8-1-2.4s-1.4-1-2.4-1L57 76l.3-2h.3c1 0 1.7-.2 2.4-.7s1-1.2 1-2.2c0-.7-.2-1.3-.7-1.8s-1.2-.8-2-.8-1.5.3-2 .8-1 1.3-1.2 2.3l-2-.4c.3-1.3.8-2.4 1.8-3.2s2-1.2 3.4-1.2c1 0 1.8.2 2.6.6s1.4 1 1.8 1.6.6 1.4.6 2.2c0 .7-.2 1.4-.6 2s-1 1-1.8 1.5c1 .2 1.8.7 2.4 1.5s.8 1.7.8 2.8c0 1.5-.5 2.8-1.6 3.8s-2.5 1.6-4 1.6c-1.6 0-3-.4-4-1.3s-1.3-2-1.4-3.5zM77.3 71l-2 .2c-.3-.8-.6-1.4-1-1.8-.5-.6-1.2-1-2-1-.7 0-1.3.3-1.8.7-.7.6-1.2 1.3-1.6 2.2s-.7 2.3-.7 4c.5-.8 1-1.3 2-1.7s1.4-.6 2.2-.6c1.4 0 2.6.4 3.6 1.5s1.6 2.4 1.6 4c0 1-.2 2-.7 3s-1.2 1.6-2 2-1.7.8-2.8.8c-1.8 0-3.2-.6-4.3-2S66 79 66 76c0-3.3.6-5.7 1.8-7.2 1-1.3 2.5-2 4.3-2 1.4 0 2.5.4 3.3 1s1.5 2 1.7 3.2zm-8.6 7.4c0 .7.2 1.4.5 2s.7 1.3 1.3 1.6 1 .5 1.7.5c1 0 1.7-.4 2.3-1s1-1.8 1-3-.3-2-1-2.8-1.3-1-2.3-1c-1 0-1.8.3-2.4 1s-1 1.6-1 2.7zM80 71c0-1.3.4-2.4 1-3.2s1.5-1.3 2.7-1.3c1 0 2 .4 2.7 1.2s1 2 1 3.4c0 1.6-.3 2.7-1 3.5s-1.6 1.2-2.6 1.2-2-.4-2.6-1.2-1-2-1-3.6zm3.8-3c-.5 0-1 .2-1.3.7S82 70 82 71.2c0 1 .2 2 .5 2.3s.8.7 1.3.7 1-.2 1.3-.7.6-1.3.6-2.5c0-1-.2-2-.5-2.3s-.7-.7-1.2-.7zm0 16.6l9.4-18H95l-9.5 18h-1.7zm7.4-4.6c0-1.2.3-2.3 1-3s1.4-1.4 2.6-1.4c1 0 2 .4 2.7 1.2s1 2 1 3.4c0 1.5-.3 2.6-1 3.4s-1.6 1.2-2.7 1.2c-1 0-2-.4-2.6-1.2s-1-2-1-3.6zm3.7-3c-.6 0-1 .2-1.4.7S93 79 93 80.2c0 1 .2 2 .5 2.3s.8.7 1.3.7 1-.2 1.3-.7.6-1.3.6-2.5c0-1-.2-2-.5-2.3s-.6-.7-1-.7z"/></g><path class="st3" d="M33.3 92L5.5 103c11 27.4 38 46.8 69.5 46.8v-30c-19 0-35-11.6-41.7-28z"/></svg>