<?xml version="1.0" encoding="utf-8"?>
<!-- Generator: Adobe Illustrator 21.1.0, SVG Export Plug-In . SVG Version: 6.00 Build 0)  -->
<svg version="1.1" id="Layer_1" xmlns="http://www.w3.org/2000/svg" xmlns:xlink="http://www.w3.org/1999/xlink" x="0px" y="0px"
	 viewBox="0 0 150 150" style="enable-background:new 0 0 150 150;" xml:space="preserve">
<style type="text/css">
	.st0{fill:#C1E7EF;}
	.st1{fill:#231F20;}
	.st2{font-family:'ArialMT';}
	.st3{font-size:24px;}
	.st4{fill:#36AFC5;}
</style>
<g>
	<path class="st0" d="M75,150c-41.4,0-75-33.6-75-75S33.6,0,75,0s75,33.6,75,75S116.4,150,75,150z M75,120c25,0,45-20,45-45
		s-20-45-45-45S30,50,30,75S50,120,75,120z"/>
	<text transform="matrix(1 0 0 1 52 84)" class="st1 st2 st3">36%</text>
	<path class="st4" d="M33.3,91.9L5.5,103.2C16.6,130.6,43.5,150,75,150v-30C56.1,120,40,108.4,33.3,91.9z"/>
</g>
</svg>
