<?xml version="1.0" encoding="utf-8"?>
<!-- Generator: Adobe Illustrator 21.1.0, SVG Export Plug-In . SVG Version: 6.00 Build 0)  -->
<svg version="1.1" id="Layer_1" xmlns="http://www.w3.org/2000/svg" xmlns:xlink="http://www.w3.org/1999/xlink" x="0px" y="0px"
	 viewBox="0 0 150 150" style="enable-background:new 0 0 150 150;" xml:space="preserve">
<style type="text/css">
	.st0{fill:#C1E7EF;}
	.st1{fill:#36AFC5;}
	.st2{fill:#231F20;}
	.st3{font-family:'ArialMT';}
	.st4{font-size:24px;}
</style>
<g>
	<path class="st0" d="M75,150c-41.4,0-75-33.6-75-75S33.6,0,75,0s75,33.6,75,75S116.4,150,75,150z M75,120c25,0,45-20,45-45
		s-20-45-45-45S30,50,30,75S50,120,75,120z"/>
	<path class="st1" d="M137.8,116c7.7-11.8,12.2-26,12.2-41c0-41.4-33.6-75-75-75S0,33.6,0,75s33.6,75,75,75v-30c-25,0-45-20-45-45
		s20-45,45-45s45,20,45,45c0,8.8-2.5,17-6.8,24L137.8,116z"/>
	<text transform="matrix(1 0 0 1 43.9746 84)" class="st2 st3 st4">&gt;80%</text>
</g>
</svg>
