<svg id="Layer_1" data-name="Layer 1" xmlns="http://www.w3.org/2000/svg" viewBox="0 0 105 105"><defs><style>.cls-1{fill:#c1e7ef;}.cls-1,.cls-2{fill-rule:evenodd;}.cls-2{fill:#36afc5;}.cls-3{fill:#231f20;}</style></defs><title>Artboard 19</title><path class="cls-1" d="M52.5,84A31.5,31.5,0,1,0,21,52.5,31.5,31.5,0,0,0,52.5,84Zm0,21A52.5,52.5,0,1,1,105,52.5,52.5,52.5,0,0,1,52.5,105Z"/><path class="cls-2" d="M96.45,81.23l-17.24-12A31.5,31.5,0,1,0,52.5,84v21A52.48,52.48,0,1,1,96.45,81.23Z"/><path class="cls-3" d="M43.71,51.66a4,4,0,0,1,1.76,3.17,4,4,0,0,1-8.08,0,4.09,4.09,0,0,1,1.76-3.17A3.08,3.08,0,0,1,39,47a3.31,3.31,0,0,1,2.41-1,3.35,3.35,0,0,1,2.43,1,3.1,3.1,0,0,1,1,2.29A3.57,3.57,0,0,1,43.71,51.66Zm-2.28,1a2.09,2.09,0,0,0-2.1,2.09,2.1,2.1,0,0,0,2.11,2.12,2,2,0,0,0,1.47-.62,2.09,2.09,0,0,0,.62-1.51,2,2,0,0,0-.61-1.49A2,2,0,0,0,41.43,52.7Zm0-4.78A1.49,1.49,0,0,0,40,49.4a1.45,1.45,0,0,0,.44,1.07,1.43,1.43,0,0,0,1,.44,1.4,1.4,0,0,0,1-.43,1.49,1.49,0,0,0,.44-1.08,1.46,1.46,0,0,0-1.48-1.47Z"/><path class="cls-3" d="M47.32,54.65V50.17A4.26,4.26,0,0,1,51.51,46a4.07,4.07,0,0,1,3,1.25,4,4,0,0,1,1.24,2.94v4.48a4.19,4.19,0,0,1-8.38,0Zm1.94-4.45v4.41a2.33,2.33,0,0,0,2.26,2.25,2.1,2.1,0,0,0,1.54-.66,2.17,2.17,0,0,0,.67-1.58V50.2a2.17,2.17,0,0,0-.66-1.58A2.12,2.12,0,0,0,51.52,48a2.18,2.18,0,0,0-1.59.67A2.14,2.14,0,0,0,49.25,50.2Z"/><path class="cls-3" d="M60.32,46.1a2.9,2.9,0,0,1,2.12.88,2.94,2.94,0,0,1,.88,2.15,3,3,0,0,1-6,0,3,3,0,0,1,3.05-3Zm0,1.43a1.57,1.57,0,0,0-1.58,1.59,1.6,1.6,0,1,0,3.19,0A1.58,1.58,0,0,0,61.43,48,1.56,1.56,0,0,0,60.28,47.53Zm.59,11.16-.29-.18c-.13-.08-.2-.17-.2-.27a.45.45,0,0,1,.07-.19l6.19-11.74q.11-.21.25-.21a.46.46,0,0,1,.21.07l.29.17c.13.08.2.16.2.26a.46.46,0,0,1-.06.2l-6.2,11.76a.31.31,0,0,1-.26.2A.38.38,0,0,1,60.87,58.68Zm7-6a2.89,2.89,0,0,1,2.12.88,3,3,0,1,1-5.17,2.14A2.87,2.87,0,0,1,66,53.22,3,3,0,0,1,67.83,52.65Zm0,1.43a1.52,1.52,0,0,0-1.12.46,1.6,1.6,0,1,0,2.73,1.13,1.58,1.58,0,0,0-1.62-1.59Z"/></svg>