<svg id="Layer_1" data-name="Layer 1" xmlns="http://www.w3.org/2000/svg" viewBox="0 0 105 105"><defs><style>.cls-1{fill:#c1e7ef;}.cls-1,.cls-2{fill-rule:evenodd;}.cls-2{fill:#36afc5;}.cls-3{fill:#231f20;}</style></defs><title>Artboard 19 copy</title><path class="cls-1" d="M52.5,84A31.5,31.5,0,1,0,21,52.5,31.5,31.5,0,0,0,52.5,84Zm0,21A52.5,52.5,0,1,1,105,52.5,52.5,52.5,0,0,1,52.5,105Z"/><path class="cls-2" d="M70.42,101.86,64.74,81.53A31.52,31.52,0,1,0,52.5,84v21a52.45,52.45,0,1,1,17.92-3.14Z"/><path class="cls-3" d="M40.91,54l-.3,0a4.34,4.34,0,0,1-2.33-.71,4,4,0,0,1-1.94-3.57,4.27,4.27,0,0,1,1.28-3.12,4.43,4.43,0,0,1,6.23,0,4.18,4.18,0,0,1,1.27,3.07,4.07,4.07,0,0,1-.59,2.23l-3.76,5.91a.41.41,0,0,1-.33.22.53.53,0,0,1-.24-.09l-1-.6A.39.39,0,0,1,39,57a.49.49,0,0,1,.09-.24Zm-.2-6.72A2.32,2.32,0,0,0,39,48a2.5,2.5,0,0,0,0,3.48,2.32,2.32,0,0,0,1.71.71,2.35,2.35,0,0,0,1.73-.7,2.43,2.43,0,0,0-1.76-4.17Z"/><path class="cls-3" d="M48.85,50a5,5,0,0,1,1.53-.24,4,4,0,0,1,3,1.18,3.92,3.92,0,0,1,1.17,2.9,4.3,4.3,0,0,1-4.35,4.32A4.66,4.66,0,0,1,47.1,57a.61.61,0,0,1-.26-.41.64.64,0,0,1,.08-.23l.51-1a.29.29,0,0,1,.25-.2.3.3,0,0,1,.21.09,3.19,3.19,0,0,0,2.29,1,2.35,2.35,0,0,0,1.73-.69,2.22,2.22,0,0,0,.68-1.64,2.16,2.16,0,0,0-.65-1.58,2.38,2.38,0,0,0-1.75-.67,3.46,3.46,0,0,0-1.7.41,1.45,1.45,0,0,1-.45.19.44.44,0,0,1-.31-.16l-.57-.59a.76.76,0,0,1-.25-.51q0-.14.24-1.58l.21-1.24q.19-1.19.22-1.35c.08-.46.12-.71.12-.73a1.16,1.16,0,0,1,.14-.51.43.43,0,0,1,.33-.11h5.07a.35.35,0,0,1,.41.41v1.12a.35.35,0,0,1-.41.41H49.45c-.11,0-.17,0-.19.12Z"/><path class="cls-3" d="M59.62,45.4a2.9,2.9,0,0,1,2.12.88,2.94,2.94,0,0,1,.88,2.15,3,3,0,0,1-6,0,3,3,0,0,1,3.05-3Zm0,1.43A1.57,1.57,0,0,0,58,48.42a1.6,1.6,0,1,0,3.19,0,1.58,1.58,0,0,0-.46-1.14A1.56,1.56,0,0,0,59.58,46.83ZM60.17,58l-.3-.18c-.13-.08-.2-.17-.2-.27a.45.45,0,0,1,.07-.19l6.19-11.74c.07-.14.16-.21.25-.21a.46.46,0,0,1,.21.07l.3.17c.13.08.2.16.2.26a.46.46,0,0,1-.06.2l-6.2,11.76a.31.31,0,0,1-.26.2A.38.38,0,0,1,60.17,58Zm7-6a2.89,2.89,0,0,1,2.12.88A3,3,0,1,1,64.07,55a2.87,2.87,0,0,1,1.25-2.45A3,3,0,0,1,67.13,52Zm0,1.43a1.52,1.52,0,0,0-1.12.46A1.6,1.6,0,1,0,68.7,55a1.58,1.58,0,0,0-1.62-1.59Z"/></svg>