<svg id="Layer_1" xmlns="http://www.w3.org/2000/svg" viewBox="0 0 150 150"><style>.st0{fill:#C1E7EF;} .st1{enable-background:new ;} .st2{fill:#231F20;} .st3{fill:#36AFC5;}</style><path class="st0" d="M75 150c-41.4 0-75-33.6-75-75S33.6 0 75 0s75 33.6 75 75-33.6 75-75 75zm0-30c25 0 45-20 45-45s-20-45-45-45-45 20-45 45 20 45 45 45z"/><g class="st1"><path class="st2" d="M56.7 76.5l-11.4 5v-2.2l9-3.7-9-3.7v-2.2l11.4 4.8v2zM59 79.5l2.2-.2c.2 1 .5 2 1 2.4s1.4.8 2.3.8c1 0 2-.4 2.6-1s1.2-2 1.2-3c0-1.3-.3-2.3-1-3s-1.6-1-2.7-1c-.7 0-1.3.3-1.8.6s-1 .8-1.3 1.3l-2-.3 1.7-8.8h8.6v2h-7l-.8 4.6c1-.7 2-1 3.2-1 1.5 0 2.8.4 3.8 1.5s1.5 2.4 1.5 4-.5 3-1.4 4c-1.2 1.4-2.7 2-4.6 2-1.6 0-2.8-.3-3.8-1.2S59 81 59 79.6zM72.3 75.5c0-2 .2-3.7.6-5s1-2 1.8-2.8 2-1 3-1 1.8.2 2.5.6 1.3 1 1.7 1.6.8 1.5 1 2.5.5 2.4.5 4c0 2-.2 3.7-.6 5s-1 2.2-2 3-2 1-3 1c-1.8 0-3-.7-4-2-1-1.4-1.7-3.7-1.7-7zm2.2 0c0 2.8.3 4.7 1 5.6s1.5 1.5 2.4 1.5 1.7-.5 2.3-1.4 1-2.7 1-5.5-.3-4.7-1-5.6-1.5-1.5-2.5-1.5-1.7.4-2.3 1.2c-.6 1-1 3-1 5.8zM86 71c0-1.3.4-2.4 1-3.2s1.5-1.3 2.7-1.3c1 0 2 .4 2.7 1.2s1 2 1 3.4c0 1.6-.3 2.7-1 3.5s-1.6 1.2-2.6 1.2-2-.4-2.6-1.2-1-2-1-3.6zm3.7-3c-.5 0-1 .2-1.3.7S88 70 88 71.2c0 1 0 2 .4 2.3s.8.7 1.3.7 1-.2 1.3-.7.5-1.3.5-2.5c0-1-.2-2-.5-2.3s-.7-.7-1.3-.7zm0 16.6l9.5-18h1.7l-9.5 18h-1.7zm7.5-4.6c0-1.2.3-2.3 1-3s1.4-1.4 2.6-1.4c1 0 2 .4 2.7 1.2s1 2 1 3.4c0 1.5-.3 2.6-1 3.4s-1.6 1.2-2.7 1.2c-1 0-2-.4-2.6-1.2s-1-2-1-3.6zm3.7-3c-.6 0-1 .2-1.4.7S99 79 99 80.2c0 1 .2 2 .5 2.3s.8.7 1.3.7 1-.2 1.3-.7.6-1.3.6-2.5c0-1-.2-2-.5-2.3s-.6-.7-1-.7z"/></g><path class="st3" d="M75 120c-25 0-45-20-45-45s20-45 45-45V0C33.6 0 0 33.6 0 75s33.6 75 75 75v-30z"/></svg>