<svg id="Layer_1" xmlns="http://www.w3.org/2000/svg" viewBox="0 0 150 150"><style>.st0{fill:#C1E7EF;} .st1{enable-background:new ;} .st2{fill:#231F20;} .st3{fill:#36AFC5;} .st4{fill:#FFFFFF;stroke:#000000;stroke-miterlimit:10;}</style><path class="st0" d="M75 150c-41.4 0-75-33.6-75-75S33.6 0 75 0s75 33.6 75 75-33.6 75-75 75zm0-30c25 0 45-20 45-45s-20-45-45-45-45 20-45 45 20 45 45 45z"/><g class="st1"><path class="st2" d="M53.3 80l2-.2c.2 1 .5 1.6 1 2s1 .7 2 .7c.5 0 1 0 1.6-.4s.8-.6 1-1 .7-1.3 1-2 .2-1.8.2-2.7V76c-.4.6-1 1-1.7 1.5S59 78 58 78c-1.3 0-2.5-.4-3.5-1.4s-1.5-2.4-1.5-4c0-1.7.5-3 1.5-4.2s2.3-1.6 4-1.6c1 0 2 .3 3 1s1.6 1.4 2 2.5.8 2.7.8 4.8c0 2.3-.2 4-.7 5.3s-1.2 2.3-2 3-2 1-3.4 1c-1.3 0-2.4-.4-3.3-1s-1.5-2-1.7-3.3zm8.6-7.6c0-1.2-.4-2.2-1-3s-1.5-1-2.4-1c-1 0-1.8.4-2.4 1s-1 2-1 3c0 1.2.3 2 1 2.8s1.5 1 2.4 1c1 0 1.8-.3 2.4-1s1-1.5 1-2.8zM73 84v-4h-7.4v-2l7.8-11H75v11h2.4v2H75v4h-2zm0-6v-7.7L67.8 78H73zM80 71c0-1.3.4-2.4 1-3.2s1.5-1.3 2.7-1.3c1 0 2 .4 2.7 1.2s1 2 1 3.4c0 1.6-.3 2.7-1 3.5s-1.6 1.2-2.6 1.2-2-.4-2.6-1.2-1-2-1-3.6zm3.8-3c-.5 0-1 .2-1.3.7S82 70 82 71.2c0 1 .2 2 .5 2.3s.8.7 1.3.7 1-.2 1.3-.7.6-1.3.6-2.5c0-1-.2-2-.5-2.3s-.7-.7-1.2-.7zm0 16.6l9.4-18H95l-9.5 18h-1.7zm7.4-4.6c0-1.2.3-2.3 1-3s1.4-1.4 2.6-1.4c1 0 2 .4 2.7 1.2s1 2 1 3.4c0 1.5-.3 2.6-1 3.4s-1.6 1.2-2.7 1.2c-1 0-2-.4-2.6-1.2s-1-2-1-3.6zm3.7-3c-.6 0-1 .2-1.4.7S93 79 93 80.2c0 1 .2 2 .5 2.3s.8.7 1.3.7 1-.2 1.3-.7.6-1.3.6-2.5c0-1-.2-2-.5-2.3s-.6-.7-1-.7z"/></g><path class="st3" d="M235 0c-41.4 0-75 33.6-75 75s33.6 75 75 75 75-33.6 75-75-33.6-75-75-75zm0 120c-25 0-45-20-45-45s20-45 45-45 45 20 45 45-20 45-45 45z"/><path class="st4" d="M235 75v88.3l25.7-7.3z"/><path class="st3" d="M75 0C33.6 0 0 33.6 0 75s33.6 75 75 75v-30c-25 0-45-20-45-45s20-45 45-45 45 20 45 45c0 20-13.2 37-31.4 43l9 28.5C128 137 150 108.5 150 75c0-41.4-33.6-75-75-75z"/></svg>