<svg viewBox="0 0 150 150" xmlns="http://www.w3.org/2000/svg"><g fill="none" fill-rule="evenodd"><path d="M75 150c-41.4 0-75-33.6-75-75S33.6 0 75 0s75 33.6 75 75-33.6 75-75 75zm0-30c25 0 45-20 45-45s-20-45-45-45-45 20-45 45 20 45 45 45z" fill="#C1E7EF"/><path d="M137.8 116c7.7-11.8 12.2-26 12.2-41 0-41.4-33.6-75-75-75S0 33.6 0 75s33.6 75 75 75v-30c-25 0-45-20-45-45s20-45 45-45 45 20 45 45c0 8.8-2.5 17-6.8 24l24.6 17z" fill="#36AFC5"/><text font-family="Arial, Verdana" font-size="24" font-weight="300" fill="#231F20"><tspan x="52" y="84">80%</tspan></text></g></svg>