<svg id="Layer_1" data-name="Layer 1" xmlns="http://www.w3.org/2000/svg" viewBox="0 0 86 80"><defs><style>.cls-1{fill:#c1e7ef;}.cls-1,.cls-2{fill-rule:evenodd;}.cls-2{fill:#fff;opacity:0.3;}.cls-3{fill:#2b2f47;}</style></defs><title>Artboard 17</title><path class="cls-1" d="M0,5.36V80H86V3.24s-28.91,6.35-52.87-.7S0,5.36,0,5.36Z"/><path class="cls-2" d="M0,12.43V80H86V10.31s-28.91,6.35-52.87-.7S0,12.43,0,12.43Z"/><path class="cls-3" d="M20,46.7a3.64,3.64,0,0,1-.59,0,8.68,8.68,0,0,1-4.66-1.43,7.89,7.89,0,0,1-3.89-7.14,8.54,8.54,0,0,1,2.56-6.25,8.44,8.44,0,0,1,6.2-2.56,8.5,8.5,0,0,1,6.27,2.58,8.36,8.36,0,0,1,2.54,6.14,8.12,8.12,0,0,1-1.18,4.46L19.78,54.35a.82.82,0,0,1-.66.44,1.08,1.08,0,0,1-.48-.18l-1.94-1.2a.79.79,0,0,1-.44-.66,1,1,0,0,1,.18-.48Zm-.39-13.44a4.64,4.64,0,0,0-3.41,1.38,5,5,0,0,0,0,7A4.63,4.63,0,0,0,19.7,43a4.7,4.7,0,0,0,3.46-1.39,4.87,4.87,0,0,0-3.51-8.35Z"/><path class="cls-3" d="M44,30.34v16a.25.25,0,0,0,.28.28h1.38a.71.71,0,0,1,.82.84v2.28a.71.71,0,0,1-.82.82H44.29a.25.25,0,0,0-.28.28v3a.71.71,0,0,1-.82.82H40.93a.71.71,0,0,1-.82-.82v-3.1a.25.25,0,0,0-.28-.28H30.25a.71.71,0,0,1-.82-.82V47.78a3.86,3.86,0,0,1,.64-2.12l4.77-7.51,1.64-2.61,2.58-4.05.84-1.31A1.22,1.22,0,0,1,41,29.52H43.2A.71.71,0,0,1,44,30.34Zm-4.07,6.18-6.18,10a.17.17,0,0,0,0,.1c0,.08,0,.12.13.12h6a.25.25,0,0,0,.28-.28V36.61c0-.09,0-.13-.07-.13A.11.11,0,0,0,39.95,36.53Z"/><path class="cls-3" d="M55.45,29.49a5.8,5.8,0,0,1,4.23,1.76,5.88,5.88,0,0,1,1.75,4.3,6,6,0,0,1-12.09,0,6,6,0,0,1,6.1-6.05Zm-.08,2.85a3.14,3.14,0,0,0-3.17,3.18,3.19,3.19,0,1,0,6.38,0,3.17,3.17,0,0,0-.92-2.28A3.12,3.12,0,0,0,55.37,32.34Zm1.18,22.31L56,54.3a.68.68,0,0,1-.39-.54.9.9,0,0,1,.13-.38L68.08,29.9c.14-.27.31-.41.51-.41a.92.92,0,0,1,.41.13l.59.34q.39.23.39.53a.91.91,0,0,1-.12.39L57.47,54.41a.62.62,0,0,1-.53.39A.77.77,0,0,1,56.55,54.66ZM70.46,42.6a5.77,5.77,0,0,1,4.23,1.76,6.06,6.06,0,1,1-10.34,4.28,5.74,5.74,0,0,1,2.49-4.91A6.07,6.07,0,0,1,70.46,42.6Zm-.08,2.86a3,3,0,0,0-2.23.92,3.21,3.21,0,1,0,5.46,2.26,3.17,3.17,0,0,0-3.23-3.18Z"/></svg>