<svg width="50" height="50" viewBox="0 0 50 50" xmlns="http://www.w3.org/2000/svg" xmlns:xlink="http://www.w3.org/1999/xlink"><defs><path id="a" d="M50 50H0V0h50z"/></defs><g fill="none" fill-rule="evenodd"><mask id="b" fill="#fff"><use xlink:href="#a"/></mask><path d="M33.8 31c0-.4 0-.8-.6-.8s-.7.4-.7 1v.7h1.3v-1zm1.5.2v2h-2.8v1.5c0 .6 0 1 .6 1 .8 0 .8-.4.8-1V34h1.5v.7c0 1.5-.6 2.4-2.2 2.4-1.3 0-2-1-2-2.3v-3.5c0-1.4 1-2.4 2.2-2.4 1.4 0 2 1 2 2.4zm2 .5c-.2-5.4-.6-7.5-4-7.8-3.2-.3-13.4-.3-16.6 0-3.4.2-3.8 2.2-4 7.7.2 5.4.6 7.5 4 7.7 3.2.2 13.4.2 16.6 0 3.4-.2 3.8-2.3 4-7.7zM16 10.4l2 6.7v4.7h2V17l2-6.6h-2L19 15l-1.2-4.6H16zm5.8 5v4.2c0 1.5.8 2.2 2.3 2.2 1.3 0 2.3-.8 2.3-2.2v-4c0-1.4-1-2.3-2.2-2.3-1.3 0-2.2 1-2.2 2.2zm5.8 5c0 .7.3 1.4 1 1.4.6 0 1.2-.2 2-1v1H32v-8.4h-1.5v6.3c-.2.2-.6.6-1 .6-.3 0-.3-.2-.3-.6v-6.3h-1.6v7zM50 25c0 13.8-11.2 25-25 25S0 38.8 0 25 11.2 0 25 0s25 11.2 25 25zm-21.6 6c0-.3 0-.5-.2-.6-.2-.2-.5-.3-.8 0H27v5l.5.3h.7l.2-.6v-4zm1.5 0v4.3c0 1-.5 1.7-1.5 1.7-.5 0-1-.2-1.4-.7v.6h-1.4V26H27v3.5c.5-.4 1-.8 1.4-.8 1 0 1.5.8 1.5 2zM20 26h-5v1.6h1.7v9h1.6v-9H20v-1.6zm4-6c.5 0 .7-.2.7-.7v-3.8c0-.5-.2-.8-.6-.8-.4 0-.6.2-.6.7v3.8c0 .5.3.8.7.8zM22.8 29h1.5v8h-1.5v-1c-.2.4-.5.6-.8.8-1 .5-2 .4-2-1.2V29h1.5v6c0 .4 0 .6.4.6.2 0 .6-.3.7-.6v-6z" fill="#FFF" mask="url(#b)"/></g></svg>