<svg xmlns="http://www.w3.org/2000/svg" viewBox="0 0 50 50"><path fill="#00aaec" d="M13 26.8h2v10.8h2V26.8h2V25h-6V27M29 28.2a2.3 2.3 0 0 0-1.7 1v-4h-1.7v12.4h1.6v-1a2.3 2.3 0 0 0 1.8 1 1.3 1.3 0 0 0 1.3-1 7.4 7.4 0 0 0 .2-1.8V31a7.2 7.2 0 0 0-.2-1.8 1.3 1.3 0 0 0-1.3-1zm-.2 6.7c0 .8-.2 1.2-.7 1.2a1.2 1.2 0 0 1-.7-.4V30a1.2 1.2 0 0 1 .8-.3c.6 0 .8.4.8 1.2zM22.4 35.4c-.3.5-.7.8-1 .8s-.4-.2-.4-.4a5.2 5.2 0 0 1 0-.7v-6.7h-1.8v7.3a4.7 4.7 0 0 0 .2 1.4 1 1 0 0 0 1 .7 2.7 2.7 0 0 0 2-1.2v1H24v-9.3h-1.6zM24 19.7c.4 0 .7-.5.7-1.3v-4c0-1-.3-1.3-.8-1.3s-1 .5-1 1.4v4c0 .8.3 1.3 1 1.3z"/><path d="M25 0a25 25 0 1 0 25 25A25 25 0 0 0 25 0zm2.8 11.7h1.7v7a4 4 0 0 0 0 .6c0 .2.2.4.4.4s.6-.3 1-.8v-7.3h1.7V21H31v-1a2.7 2.7 0 0 1-2 1.2 1 1 0 0 1-1-.7 4.8 4.8 0 0 1-.3-1.4v-7.3zm-6.4 3a3.6 3.6 0 0 1 .5-2 2.5 2.5 0 0 1 4 0 3.7 3.7 0 0 1 .4 2v3.4a3.7 3.7 0 0 1-.5 2.3 2.5 2.5 0 0 1-4 0 3.6 3.6 0 0 1-.6-2.2zm-4.6-6.2l1.3 5 1.4-5h2L19 16v5h-1.8v-5a31 31 0 0 0-1.2-4l-1.2-3.5zm21.7 30a3.5 3.5 0 0 1-3 2.6 93.7 93.7 0 0 1-10.5.5 93.7 93.7 0 0 1-10.4-.4 3.5 3.5 0 0 1-3-2.6 29.8 29.8 0 0 1-.5-6.6 30 30 0 0 1 .6-6.6 3.5 3.5 0 0 1 3-2.7A93.7 93.7 0 0 1 25 22a93.7 93.7 0 0 1 10.4.5 3.5 3.5 0 0 1 3 2.7 30 30 0 0 1 .5 6.6 29.8 29.8 0 0 1-.5 6.6z" fill="#00aaec"/><path d="M34.4 28.2a2.4 2.4 0 0 0-2 1 3.6 3.6 0 0 0-.6 2.2v3.2a3.6 3.6 0 0 0 .6 2.2 2.4 2.4 0 0 0 2 1 2.3 2.3 0 0 0 2-1 2.4 2.4 0 0 0 .4-1v-1.3h-1.6a11 11 0 0 1 0 1 .7.7 0 0 1-.8.8c-.6 0-1-.5-1-1.3v-1.8H37v-2a3.7 3.7 0 0 0-.6-2 2.3 2.3 0 0 0-2-1zm.8 3.6h-1.7V31q0-1.3.8-1.3c.6 0 1 .4 1 1.3z" fill="#00aaec"/></svg>