<svg xmlns="http://www.w3.org/2000/svg" viewBox="0 0 480 119">
  <path fill="#20323c" d="M162.1 59V27h12c6.4 0 12.4 3.3 12.4 10.7v10.7c0 7.4-6 10.5-12.4 10.5zm12.3-7.7c2.2 0 4-1.2 4-2.9V37.6c0-1.7-1.8-3.1-4-3.1h-4.1v16.8zm38.4-16.8h-14.1v4.8h13v7.2h-13v4.8h14v7.6h-22.2V27h22.3zM238 50.1l1.3-7.5 5-15.7h8.7l-11.5 32H234l-11.5-32h8.6l5 15.6 1.3 7.6zm27.9-23.8c6.6 0 13.2 3.6 13.2 11v11.3c0 7.3-6.6 11-13.2 11s-13.3-3.6-13.3-11V37.2c0-7.3 6.6-11 13.3-11zm-5.2 22.3c0 4.7 10.4 4.7 10.4 0V37.2c0-4.8-10.4-4.7-10.4 0zm36-22.3c6.6 0 13.2 3.6 13.2 11v11.3c0 7.3-6.5 11-13.2 11s-13.3-3.6-13.3-11V37.2c0-7.3 6.6-11 13.3-11zm-5.2 22.3c0 4.7 10.4 4.7 10.4 0V37.2c0-4.8-10.4-4.7-10.4 0zM341.6 59h-10l-8-10.2h-1.4v10.1H314V27h12.8c6.6 0 11.7 3 11.9 10.5 0 6-2.4 9.3-6.3 10.5zm-14.7-17.2a3.7 3.7 0 1 0 0-7.3h-4.7v7.3zm32.7 5.1h-9.2v12h-8.2V27h8.2v12.1h9.2V27h8.1v32h-8.1zm25.8-20.6c6.7 0 13.3 3.6 13.3 11v11.3c0 7.3-6.6 11-13.2 11s-13.3-3.6-13.3-11V37.2c0-7.3 6.6-11 13.2-11zm-5.1 22.3c0 4.7 10.3 4.7 10.3 0V37.2c0-4.8-10.3-4.7-10.3 0zm44.5-14.1h-14v4.8h13v7.2h-13v4.8h14v7.6h-22.3V27h22.3zm3.7 24.5V27h12c6.4 0 12.4 3.3 12.4 10.7v10.7c0 7.4-6 10.5-12.4 10.5zm12.2-7.7c2.3 0 4-1.2 4-2.9V37.6c0-1.7-1.8-3.1-4-3.1h-4v16.8zm38.4-16.8H465v4.8h13v7.2h-13v4.8h14v7.6h-22V27h22z"/>
  <path fill="#7a8387" d="M167.2 84.3c-1.9 0-3 .9-3 2.4v2.5h2.8v2.1h-2.8v9.5h-2v-14c0-3 2.2-4.5 5-4.5zm8.1 3v2.1a4 4 0 0 0-2 0 2.5 2.5 0 0 0-2 2.3v9h-2.1v-9a4.4 4.4 0 0 1 3.8-4.4 5.5 5.5 0 0 1 2.3 0zm7-.3c2.5 0 5.1 1.5 5.1 4.5v5c0 3-2.6 4.5-5.1 4.6s-5.3-1.6-5.3-4.6v-5c0-3 2.7-4.5 5.3-4.5zm-3.2 4.5v5c0 1.8 1.7 2.5 3.2 2.5s3-.8 3-2.4v-5.1c0-1.7-1.6-2.5-3-2.5s-3.2.8-3.2 2.5zm11.3-3.1a16.5 16.5 0 0 1 5.2-1c2.6 0 5 1.3 5 4.3v9h-2v-9c0-1.6-1.5-2.4-3-2.4a9.5 9.5 0 0 0-3.1.6v10.9h-2.1zm18.9 12.4c-3.1.4-5.5-1.4-5.5-4.4v-14h2v5h2.8v2h-2.7v7a2.7 2.7 0 0 0 3.4 2.6zm1.1-8.8h6.7v2.1h-6.7zm11.1 4.6c0 1.7 1.5 2.4 3.1 2.4a3.3 3.3 0 0 0 3-1.8l2 1a5.4 5.4 0 0 1-5 3c-2.6 0-5.2-1.6-5.2-4.6v-5c0-3 2.6-4.5 5.2-4.5s5.2 1.4 5.2 4.4v3.6h-8.3zm3.1-7.5c-1.6 0-3.1.8-3 2.4v1.9h6.2v-2c0-1.5-1.6-2.3-3.2-2.3zm8.1-.7a16.6 16.6 0 0 1 5.3-1c2.5 0 5 1.3 5 4.3v9h-2v-9c0-1.6-1.5-2.4-3-2.4a9.4 9.4 0 0 0-3.1.6v10.9h-2.2zm23.9 11.7a16.5 16.5 0 0 1-5.3 1c-2.5 0-5-1.5-5-4.5v-5c0-2.9 2.5-4.4 5.1-4.4a4.8 4.8 0 0 1 3.1.8v-5.4h2.1zm-2-1.3v-9a9 9 0 0 0-3.2-.6c-1.6 0-3.1.8-3 2.4v5a2.8 2.8 0 0 0 3 2.6 11.2 11.2 0 0 0 3.2-.4zm22.1 1.3a16.6 16.6 0 0 1-5.3 1c-2.5 0-5.1-1.5-5.1-4.5v-5c0-2.9 2.6-4.4 5.2-4.4a4.8 4.8 0 0 1 3.1.8v-5.4h2.1zm-2-1.3v-9a9 9 0 0 0-3.2-.6c-1.6 0-3.1.8-3.1 2.4v5c0 1.7 1.5 2.6 3 2.6a11.1 11.1 0 0 0 3.2-.4zm7-2.2c0 1.7 1.5 2.4 3 2.4a3.3 3.3 0 0 0 3.1-1.8l2 1a5.4 5.4 0 0 1-5 3c-2.6 0-5.2-1.6-5.2-4.6v-5c0-3 2.6-4.5 5.2-4.5s5.1 1.4 5.1 4.4v3.6h-8.2zm3-7.5c-1.5 0-3 .8-3 2.4v1.9h6.3v-2c0-1.5-1.7-2.3-3.2-2.3zm12.5 9.8h.1l.6-2.7 3.1-8.9h2.2l-4.7 13.5H296l-4.8-13.5h2.3l3.1 9zm9.6-2.3c0 1.7 1.5 2.4 3 2.4a3.3 3.3 0 0 0 3.1-1.8l2 1a5.4 5.4 0 0 1-5 3c-2.6 0-5.2-1.6-5.2-4.6v-5c0-3 2.6-4.5 5.2-4.5s5.1 1.4 5.1 4.4v3.6h-8.3zm3-7.5c-1.5 0-3 .8-3 2.4v1.9h6.2v-2c0-1.5-1.6-2.3-3.1-2.3zm12.7 11.8c-3 0-4.6-1.7-4.6-4.4V82.6h2.1v13.9c0 1.5.8 2.3 2.5 2.3zm7-13.9c2.6 0 5.2 1.5 5.2 4.5v5c0 3-2.6 4.5-5.2 4.6s-5.2-1.5-5.2-4.5v-5.1c0-3 2.6-4.5 5.2-4.5zm-3.1 4.5v5c0 1.8 1.6 2.5 3.1 2.5s3.1-.8 3.1-2.4v-5.1c0-1.7-1.6-2.5-3-2.5s-3.2.8-3.2 2.5zm11.2-3.5a17.4 17.4 0 0 1 5.3-1c2.6 0 5.1 1.4 5.1 4.5v5c0 2.9-2.6 4.5-5.2 4.5a5.5 5.5 0 0 1-3-.8v5.2h-2.2zm2.1 10.3a9.3 9.3 0 0 0 3.2.6c1.5 0 3-.8 3-2.4v-5c0-1.6-1.5-2.5-3-2.5a12 12 0 0 0-3.1.3zm13.1-1.7c0 1.7 1.5 2.4 3.1 2.4a3.3 3.3 0 0 0 3.1-1.8l1.9 1a5.4 5.4 0 0 1-5 3c-2.6 0-5.2-1.6-5.2-4.5v-5.2c0-3 2.6-4.5 5.2-4.5s5.1 1.5 5.1 4.5v3.6h-8.3zm3.1-7.5c-1.6 0-3.1.8-3.1 2.4v1.9h6.3v-2c0-1.5-1.7-2.3-3.2-2.3zm14.1-1.8v2.1a4 4 0 0 0-2.1 0 2.5 2.5 0 0 0-2.1 2.3v9h-2v-9a4.4 4.4 0 0 1 3.8-4.4 5.5 5.5 0 0 1 2.3 0zm2.4 9.9a4.4 4.4 0 0 0 3.9 1.8c1.2 0 2.5-.6 2.5-2s-1.5-1.8-2.7-2c-2.2-.4-4.7-1-4.7-4s2.7-3.8 4.9-3.8a5.9 5.9 0 0 1 4 1.6l-1.3 1.5a3.6 3.6 0 0 0-2.7-1.1c-1.2 0-2.8.3-2.8 1.8s1.8 1.8 3 2c2 .4 4.3 1.3 4.3 4s-2.2 3.8-4.5 3.9a5.9 5.9 0 0 1-5.4-2.8z"/>
  <path fill="#11343c" d="M60.4 0C37.5 0 16.5 5.6 0 15.2c0 19.1 5.6 40.1 17 60s26.8 35.2 43.4 44.6z"/>
  <path fill="#eddd3d" d="M60.4 0c23 0 44 5.6 60.4 15.2.1 19.1-5.5 40.1-17 60S77 110.4 60.4 119.8z"/>
  <path fill="#fff" d="M103 25a77.2 77.2 0 0 0-24.5-9.3 178.5 178.5 0 0 1 0 18.2l3.3.8h.6v.9a60.8 60.8 0 0 1-6.2 25.3 44 44 0 0 1-15.8 17.6 43 43 0 0 1-15.7-17.6 60.8 60.8 0 0 1-6.1-25.4 7.1 7.1 0 0 1 0-.8h.3v-.1h.2l3.4-.8a178.5 178.5 0 0 1 0-18.2A77 77 0 0 0 18 25c0 13.9 3.9 29.1 12 43.6S48.8 94 60.4 101C72.1 94.1 83 83 91 68.5s12-29.7 12-43.5z"/>
  <path fill="#eaeaea" d="M60.4 78.5a43 43 0 0 1-15.7-17.6 60.8 60.8 0 0 1-6.1-25.4 7.3 7.3 0 0 1 0-.8h.3v-.1h.2l3.4-.8a178.5 178.5 0 0 1 0-18.2A77 77 0 0 0 18 25c0 13.9 3.9 29.1 12 43.6S48.8 94 60.4 101z"/>
</svg>
